<svg xmlns="http://www.w3.org/2000/svg" width="715" height="797" viewBox="0 0 715 797">
  <path id="india" d="M160.738,6.542c0-.661,3.213-2.266,7.276-3.588A42.616,42.616,0,0,1,183.795.5c4.63,0,9.355.378,10.4.944s5.292,4.343,9.449,8.5a98.743,98.743,0,0,0,12.285,10.574,51.287,51.287,0,0,1,7.182,5.759,46.714,46.714,0,0,1,4.346,6.042,15.228,15.228,0,0,0,5.387,5,17.861,17.861,0,0,0,5.48,1.6c1.323,0,3.5,1.511,5.481,3.871,2.363,2.738,4.064,3.871,6.237,3.965,1.984.094,4.63-.944,8.221-3.3,3.024-1.983,5.386-3.3,5.386-2.832,0,.378.378.189.756-.378s2.741-1.7,5.387-2.549a127.672,127.672,0,0,1,13.229-3.116c6.615-1.227,9.355-1.322,12.285-.566a37.074,37.074,0,0,1,8.977,4.626c2.835,1.983,5.764,4.815,6.331,6.231,1.04,2.172.851,3.682-1.134,10.385-1.228,4.249-3.5,9.441-5.008,11.518a35.905,35.905,0,0,1-6.426,6.7c-2.835,2.266-3.874,3.871-4.441,6.892-.378,2.455-1.323,4.249-2.552,4.815a15.01,15.01,0,0,1-5.669.944c-2.079,0-4.064.566-4.536,1.227-.378.566-.756,3.3-.851,5.854a56.686,56.686,0,0,1-.661,7.837c-.473,2.549-.189,3.3,1.984,4.626a24.41,24.41,0,0,1,4.347,3.588c.945,1.038,1.417,1.227,1.04.472-.473-1.039-.378-1.133.377-.472.567.566,2.079,3.965,3.308,7.552,1.323,3.683,2.551,7.365,2.929,8.309.378,1.133-.094,1.888-1.606,2.643a77.568,77.568,0,0,0-6.8,4.343c-4.441,3.116-4.819,3.21-7.087,1.888a11.671,11.671,0,0,1-3.591-3.87c-.567-1.322-1.512-2.455-2.079-2.455a9.808,9.808,0,0,0-2.835.944,3.694,3.694,0,0,0-1.89,3.3,15.008,15.008,0,0,0,1.512,5.476c.851,1.6,2.552,7.081,3.78,11.991a83.641,83.641,0,0,1,2.268,11.329,8.794,8.794,0,0,0,1.134,4.154c1.228,1.7,1.323,1.7,6.615-1.794l3.969,4.532a29.939,29.939,0,0,0,8.6,6.7,116.069,116.069,0,0,1,14.174,9.442c5.2,3.965,11.151,7.741,13.23,8.4,2.079.755,4.157,2.077,4.724,2.927.756,1.227.473,1.888-.945,2.738a37.315,37.315,0,0,0-5.48,4.437c-2.079,1.888-5.2,6.609-7.277,10.858a87.54,87.54,0,0,0-5.386,13.973c-1.228,4.626-1.417,6.8-.756,8.025.567.849,6.615,4.343,13.324,7.741,6.8,3.4,15.309,8.4,18.9,11.141,5.292,3.965,8.789,5.665,18.333,8.875,7.181,2.454,13.7,5.287,16.536,7.269,4.253,3.022,5.387,3.3,10.395,3.21a43.852,43.852,0,0,0,9.45-1.133,43.046,43.046,0,0,1,9.166-1.038,22.869,22.869,0,0,1,8.505,1.511c1.7.849,5.2,3.776,7.843,6.514,4.536,4.721,5.2,5.1,18.426,9.252,7.56,2.361,16.065,4.91,18.9,5.665a68.868,68.868,0,0,0,13.7,1.133,70.662,70.662,0,0,1,13.7.944,39.88,39.88,0,0,0,8.693,1.039,8.349,8.349,0,0,0,5.2-1.794c1.511-1.511,1.7-3.682,1.7-21.337,0-16.05.284-19.921,1.418-21.243.756-.944,2.929-1.983,4.725-2.549a28.28,28.28,0,0,1,5.859-.85,3.6,3.6,0,0,1,3.685,2.172c.661,1.133.85,3.682.472,5.853a44.142,44.142,0,0,0,.284,10.386c.567,3.682,1.795,7.647,2.74,8.969a12.358,12.358,0,0,0,5.481,3.4,42.023,42.023,0,0,0,10.3,1.228c3.685.094,14.458-.472,24.1-1.228,9.638-.849,19.844-1.982,22.679-2.549a78.242,78.242,0,0,1,9.166-1.416c3.78-.377,4.063-.566,4.063-3.21a19.116,19.116,0,0,0-1.512-6.325,21.251,21.251,0,0,0-3.5-5.76,14.22,14.22,0,0,0-5.2-3.021c-2.646-.849-3.024-1.322-3.024-3.965,0-3.116,0-3.116,4.913-3.3a31.931,31.931,0,0,0,9.45-2.078c3.119-1.321,7.465-5,13.608-11.14,4.913-5.1,9.449-10.385,9.922-11.8.567-1.982,1.7-2.832,3.874-3.21a27.409,27.409,0,0,0,7.087-3.3,58.173,58.173,0,0,0,9.355-9.064c2.835-3.587,5.67-6.325,6.143-6.136a.685.685,0,0,0,.85-.756c0-.472,1.323-.944,2.835-.944a18.73,18.73,0,0,1,6.615,1.888,17.747,17.747,0,0,0,6.142,1.889,12.364,12.364,0,0,0,4.914-1.322,24.515,24.515,0,0,0,5.481-4.343,20.014,20.014,0,0,1,5.858-4.343c3.024-1.227,3.213-1.227,5.954,1.511,2.268,2.266,2.645,3.21,1.889,4.72a10.462,10.462,0,0,0-.944,3.305c0,.849.85,1.416,2.362,1.416a12.193,12.193,0,0,1,4.252.944,3.678,3.678,0,0,1,1.89,3.588,13.345,13.345,0,0,1-1.89,5.664,12.312,12.312,0,0,0-1.89,4.249c0,.755,2.363,1.133,8.316,1.227,4.536.1,9.355.661,10.773,1.228a8.986,8.986,0,0,1,4.063,3.4,7.2,7.2,0,0,1,1.039,4.06A31.231,31.231,0,0,1,711.179,237c-2.741,3.21-3.4,4.72-3.4,8.025a10.914,10.914,0,0,0,1.89,6.325,8.742,8.742,0,0,1,1.89,3.588,1.237,1.237,0,0,1-1.229,1.133,3.913,3.913,0,0,1-2.551-1.416,12.7,12.7,0,0,0-4.536-2.455c-2.363-.661-3.78-.472-6.615.944a69.3,69.3,0,0,0-8.694,5.665c-2.834,2.171-8.882,7.553-21.734,19.921l.473,9.913c.378,7.742.094,10.763-1.04,13.973a37.831,37.831,0,0,1-4.441,7.742c-2.74,3.682-2.835,3.965-1.795,8.5a15.356,15.356,0,0,1-.189,9.441c-.662,2.644-2.646,8.025-4.253,12.085-1.606,3.965-2.929,7.93-2.929,8.686a5.043,5.043,0,0,1-1.418,2.832c-1.133,1.133-3.023,1.322-19.371,0l1.89,5.948a43.711,43.711,0,0,1,1.89,11.046,23.932,23.932,0,0,1-2.079,9.725c-1.7,3.682-2.174,6.8-2.646,18.6-.378,7.93-1.134,15.106-1.7,16.333-.662,1.133-1.8,2.077-2.552,2.077a13.472,13.472,0,0,1-3.779-1.133,7.4,7.4,0,0,1-3.213-3.587c-.473-1.322-1.985-7.459-3.308-13.69-1.417-6.231-3.874-15.956-5.669-21.715-1.8-5.665-3.875-10.763-4.725-11.329a2.656,2.656,0,0,0-3.024,0c-.851.566-2.363,3.3-3.4,6.136a43.334,43.334,0,0,0-2.173,9.442c-.189,2.36-1.04,4.909-1.89,5.664-1.418,1.228-1.7,1.228-3.119-.849a55.006,55.006,0,0,0-5.008-5.665,30.769,30.769,0,0,1-4.536-5.476,23.077,23.077,0,0,1-1.039-7.364c0-4.532.378-5.665,3.024-8.592a27.549,27.549,0,0,1,6.614-5.192,25.2,25.2,0,0,0,11.718-12.651,46.012,46.012,0,0,0,2.646-7.553,5.947,5.947,0,0,0-.567-4.532c-1.134-1.605-2.93-1.7-20.6-1.605-10.678,0-22.774-.189-26.932-.567-4.725-.377-8.315-1.133-9.733-2.077-1.7-1.321-2.268-3.021-3.024-9.158a86.144,86.144,0,0,0-1.89-11.046c-.567-2.171-1.512-3.587-2.362-3.587-.756,0-1.89,1.038-2.363,2.36a3.372,3.372,0,0,1-2.834,2.36c-1.04,0-4.158-2.171-6.9-4.72-4.441-4.249-5.008-4.627-6.331-3.3a5.112,5.112,0,0,1-3.307,1.511,11.385,11.385,0,0,1-4.064-1.511,5.291,5.291,0,0,0-3.307-1.038c-.567.188-2.646,3.21-4.441,6.8-1.8,3.493-3.4,6.987-3.591,7.648-.1.66,1.512,2.738,3.591,4.531a44.819,44.819,0,0,0,7.276,5.1,45.592,45.592,0,0,1,6.331,4.059c1.607,1.228,2.552,2.738,2.268,3.588-.283.755-1.795,1.7-3.5,2.171-1.7.378-5.481,3.116-9.072,6.609-3.4,3.21-6.331,6.609-6.615,7.553s.567,2.549,2.079,4.06A46.027,46.027,0,0,0,512.359,352c2.551,1.227,4.535,2.643,4.535,3.21s.567.849,1.134.755c.662-.189,1.323.661,1.418,1.888.189,1.133-.473,3.682-1.323,5.665a16.769,16.769,0,0,0-1.418,6.325,8.684,8.684,0,0,0,1.418,4.249,56.138,56.138,0,0,1,4.158,7.081,62.147,62.147,0,0,1,3.874,9.913,55.593,55.593,0,0,1,1.512,8.969,28.663,28.663,0,0,0,1.512,7.553,40.008,40.008,0,0,1,1.606,7.553c.473,3.965.284,4.909-1.228,5.854a4.616,4.616,0,0,1-3.213.566c-.756-.283-3.4.661-5.953,1.983-3.4,1.888-4.914,2.266-6.332,1.51a3.408,3.408,0,0,1-1.89-2.36c0-.755-.472-1.416-.944-1.416s-1.8,1.51-2.835,3.3c-1.512,2.549-3.686,4.154-9.922,7.081a78.516,78.516,0,0,1-8.789,3.777c-.378,0-2.268,1.416-4.346,3.021-3.591,3.115-3.686,3.21-2.93,7.836a74.205,74.205,0,0,1,.756,8.5,19.874,19.874,0,0,1-1.7,7.553A48.658,48.658,0,0,1,473.9,471.9a33.719,33.719,0,0,1-13.041,8.686c-3.969,1.7-7.938,3.021-8.694,3.021a10.551,10.551,0,0,1-3.779-1.416c-1.323-.756-3.024-1.228-3.78-.945a5.9,5.9,0,0,0-2.552,3.116c-.661,1.416-4.347,7.459-8.221,13.407-5.67,8.685-9.922,13.784-21.734,25.585-8.127,8.025-16.253,16.522-18.143,18.882a34.022,34.022,0,0,1-8.5,6.893,78.139,78.139,0,0,0-7.938,4.815,19.958,19.958,0,0,0-4.913,6.231c-1.418,2.927-1.89,5.1-1.512,7.458.559,3.262.474,3.3-5.706,6.391l-.248.124a31.81,31.81,0,0,1-12.662,3.587c-3.874.284-6.8,1.039-7.843,1.983a58.724,58.724,0,0,0-5.67,8.025c-2.173,3.493-4.63,6.326-5.386,6.326a13.849,13.849,0,0,1-4.536-1.417c-2.741-1.321-3.308-1.227-6.615.378a21.736,21.736,0,0,0-6.142,5.382,40.094,40.094,0,0,0-3.874,7.458c-1.04,2.927-1.134,6.892-.567,18.41.472,9.442,1.322,16.145,2.267,18.883a31.036,31.036,0,0,1,1.512,5c0,.377-.85.849-1.89,1.133s-1.889,1.133-1.889,1.888,1.133,2.171,2.456,3.115a6.243,6.243,0,0,1,2.741,4.438,28.712,28.712,0,0,1-.662,7.553c-.567,2.643-3.4,10.007-6.425,16.522s-5.954,14.162-6.615,16.994a20.752,20.752,0,0,0-.189,9.913c.567,2.644,1.039,9.819,1.039,16.05.1,7.931-.283,11.707-1.039,12.557a5.753,5.753,0,0,1-3.874,1.133,15.415,15.415,0,0,0-5.67,1.511,27.054,27.054,0,0,0-6.426,5.853,63.536,63.536,0,0,0-6.048,9.63c-1.89,3.777-2.457,5.948-1.417,10.857l-8.694,2.644c-5.575,1.7-9.733,3.682-11.434,5.193a16.048,16.048,0,0,0-3.4,5.381c-.472,1.511-1.134,3.965-1.417,5.476-.284,1.416-2.174,4.06-4.158,5.854a20.022,20.022,0,0,1-6.331,4.248,30.723,30.723,0,0,1-6.143,1.322c-2.267.283-4.913-.283-8.5-2.077-2.835-1.322-8.127-5.287-11.812-8.781a60.7,60.7,0,0,1-9.544-11.8,69.764,69.764,0,0,1-4.914-12.179c-1.04-3.682-3.308-11.518-4.914-17.466-1.7-5.948-4.347-14.068-5.859-17.939s-4.725-10.857-7.087-15.578a180.069,180.069,0,0,0-10.773-17.938,116.083,116.083,0,0,1-9.166-16.05,142.342,142.342,0,0,1-5.291-17.938c-1.418-6.231-3.591-14.539-4.725-18.41a122.423,122.423,0,0,0-5.953-14.634c-1.985-4.154-6.9-13.69-10.868-21.243s-8.788-18.127-10.583-23.6a70.945,70.945,0,0,1-3.969-20.3c-.472-7.837-1.7-14.257-4.819-25.964-2.363-8.591-4.442-17.372-4.631-19.543-.283-2.832.1-4.437,1.04-5.193a3.386,3.386,0,0,0,1.417-2.36c0-.661-1.039-1.7-2.362-2.171-2.174-.85-2.362-1.605-2.835-7.742-.189-3.777-.283-10.291-.094-14.445a50.494,50.494,0,0,1,1.889-11.8c.945-2.36,2.079-5.57,2.646-7.081.851-2.36.567-3.871-1.984-9.63-1.607-3.776-2.929-8.308-2.929-9.913.094-1.7,1.039-4.72,4.252-10.2l-2.174-1.889a14.594,14.594,0,0,1-3.023-4.248,18.088,18.088,0,0,1-.945-5.854c.094-2.36-.567-4.248-3.78-7.364l-.945,2.644a79.951,79.951,0,0,0-1.985,10.857c-.567,4.532-1.7,9.536-2.457,11.046a26.353,26.353,0,0,1-3.5,5c-1.039,1.133-2.268,2.077-2.74,2.077a13.081,13.081,0,0,0-3.307,1.888c-1.418,1.039-6.8,3.4-12,5.1a111.384,111.384,0,0,1-13.7,3.871c-3.874.472-4.819.188-9.922-3.116-3.4-2.266-8.977-7.553-13.8-13.029-4.441-5.193-10.583-12.557-13.7-16.428-3.213-3.87-7.087-8.874-8.694-11.046-2.457-3.3-2.835-4.437-2.079-5.948.851-1.7,1.134-1.794,3.307-.472a18.353,18.353,0,0,0,7.276,1.416,42.41,42.41,0,0,0,9.733-1.321A43.643,43.643,0,0,0,46.3,404.3c2.362-1.511,5.953-4.343,8.032-6.043,2.079-1.793,3.5-3.587,3.024-4.059-.378-.378-4.63.377-9.45,1.7-5.386,1.511-10.3,2.36-12.946,2.172a35.117,35.117,0,0,1-10.395-3.3,64.554,64.554,0,0,1-10.3-6.42,34.173,34.173,0,0,1-6.331-6.7,11.353,11.353,0,0,1-1.984-5.759,8.663,8.663,0,0,1,2.079-4.532c1.512-1.605,1.606-2.077.472-1.983A7.411,7.411,0,0,0,5.2,370.784,6.68,6.68,0,0,1,1.606,372.2C.378,372.2,0,371.444,0,369.178c0-1.7.472-3.682,1.134-4.248.661-.661,3.024-1.227,5.386-1.227,3.4,0,4.914-.472,6.709-2.266,1.323-1.322,2.646-2.172,3.024-1.983.472.283.945-.189,1.228-.944.378-1.039,1.89-1.416,5.386-1.416a34.415,34.415,0,0,1,8.316,1.038c1.8.567,6.52.944,10.395.944a48.791,48.791,0,0,0,12.1-1.793c4.914-1.6,5.1-1.6,8.977.566a21.122,21.122,0,0,0,4.914,2.077c.473,0,2.74-.755,9.072-3.3l-.661-4.249c-.284-2.36-.756-5.1-.945-6.137s-1.89-6.8-3.78-12.745-3.874-11.8-4.252-12.935c-.567-1.416-2.079-2.454-4.441-3.115a14.251,14.251,0,0,1-5.67-3.021c-1.7-1.794-2.173-3.21-2.173-7.365a41.5,41.5,0,0,1,.945-8.5,8.179,8.179,0,0,0,.189-4.72,6.275,6.275,0,0,0-2.362-2.077,8.839,8.839,0,0,0-3.685-.756,12.98,12.98,0,0,1-5.2-1.888,11.968,11.968,0,0,1-4.063-4.437,9.694,9.694,0,0,1,0-6.137,11.711,11.711,0,0,1,3.969-5.665,60.789,60.789,0,0,0,6.993-7.364c2.268-2.832,5.481-6.8,7.276-8.686,2.268-2.549,3.874-3.493,5.953-3.587,2.173,0,3.685.944,10.395,8.308l10.111-1.794c5.67-.944,11.812-2.643,13.7-3.588a21.8,21.8,0,0,0,5.576-4.059,48.874,48.874,0,0,0,3.969-5.476c1.039-1.794,6.992-8.12,13.135-13.879,6.142-5.853,12.284-12.651,13.8-15.106,1.418-2.549,3.78-6.892,5.2-9.724,1.985-4.06,3.5-5.665,6.993-7.553a23.733,23.733,0,0,0,6.237-4.721A61.258,61.258,0,0,0,158,188.1a36.551,36.551,0,0,1,7.276-9.913,34.928,34.928,0,0,0,6.331-7.742c.756-1.888,1.323-6.325,1.323-11.14,0-7.081.284-8.308,2.173-10.574,1.418-1.7,4.442-3.305,8.222-4.532,4.157-1.322,6.236-2.549,6.992-4.06.756-1.6.756-2.643,0-3.776-.567-.85-3.212-2.455-5.764-3.494a28.464,28.464,0,0,1-6.331-3.3,8.171,8.171,0,0,1-2.079-3.776,5.637,5.637,0,0,0-1.606-3.022,7.14,7.14,0,0,0-3.024-.755c-1.04.095-3.024-.755-4.536-1.888a13.65,13.65,0,0,0-3.024-1.888,23.676,23.676,0,0,1-3.591-1.605,15.928,15.928,0,0,0-3.969-1.6,7.267,7.267,0,0,1-2.457-1.039,8,8,0,0,1-2.457-2.832c-.567-1.039-1.039-5.1-1.134-8.969s-.283-8.592-.472-10.386c-.283-1.794-.661-6.987-1.512-19.826l3.5-2.549c1.89-1.511,5.481-4.532,8.033-6.892s4.63-4.815,4.535-5.382c0-.661-1.417-2.36-3.212-3.776a21.47,21.47,0,0,1-4.536-5.476,10.26,10.26,0,0,0-5.1-4.343,37.3,37.3,0,0,1-7.938-5.287,17.336,17.336,0,0,0-8.315-4.343c-2.552-.378-4.536-1.416-5.481-2.738a5.994,5.994,0,0,1-.851-5c.378-1.794,3.4-5.57,8.41-10.574,7.56-7.459,8.127-7.836,12-7.742a23.107,23.107,0,0,1,6.047.755,4.722,4.722,0,0,0,3.591-.094C159.982,8.053,160.738,7.2,160.738,6.542Z" transform="translate(0 -0.5)" fill="#aeaeae"/>
</svg>
