<svg width="240" height="91" viewBox="0 0 240 91" fill="none" xmlns="http://www.w3.org/2000/svg">
<g id="Vector">
<path d="M70.5365 72.6126C71.8852 68.4559 72.0399 64.1976 71.19 60.21C70.7897 58.3314 70.1663 56.513 69.3398 54.7934C68.3673 52.77 69.938 49.9918 72.1648 50.256C72.77 50.3278 73.3314 50.6187 73.7125 51.0949C75.9795 53.9282 77.5428 57.2812 78.2503 60.8547C81.5107 50.6386 78.8455 39.9345 72.1586 32.4849C71.272 31.4972 72.2526 29.8112 73.3925 30.4901C73.9025 30.7938 74.4038 31.1125 74.8953 31.4457C85.9716 38.9545 91.2486 53.1491 86.9084 66.5259C82.482 80.1684 69.4637 88.6111 55.8019 87.7983C55.8049 87.7972 55.8078 87.7962 55.8108 87.7951C62.3099 85.4643 67.74 80.357 70.2619 73.4118C70.3577 73.148 70.4492 72.8817 70.5365 72.6126Z" fill="#FF5E14"/>
<path d="M70.5365 72.6126C71.8852 68.4559 72.0399 64.1976 71.19 60.21C70.7897 58.3314 70.1663 56.513 69.3398 54.7934C68.3673 52.77 69.938 49.9918 72.1648 50.256C72.77 50.3278 73.3314 50.6187 73.7125 51.0949C75.9795 53.9282 77.5428 57.2812 78.2503 60.8547C81.5107 50.6386 78.8455 39.9345 72.1586 32.4849C71.272 31.4972 72.2526 29.8112 73.3925 30.4901C73.9025 30.7938 74.4038 31.1125 74.8953 31.4457C85.9716 38.9545 91.2486 53.1491 86.9084 66.5259C82.482 80.1684 69.4637 88.6111 55.8019 87.7983C55.8049 87.7972 55.8078 87.7962 55.8108 87.7951C62.3099 85.4643 67.74 80.357 70.2619 73.4118C70.3577 73.148 70.4492 72.8817 70.5365 72.6126Z" fill="#FFA100"/>
<path d="M28.4826 77.3196C32.8618 77.3196 36.9676 76.1537 40.5039 74.1167C42.1699 73.1571 43.7094 72.0041 45.0917 70.6886C46.7183 69.1406 49.8528 69.7766 50.2914 71.9741C50.4106 72.5713 50.3076 73.1944 49.9719 73.7033C47.9749 76.731 45.2645 79.2504 42.0787 81.0243C52.8247 80.9728 62.1983 75.14 67.2238 66.4892C67.8902 65.3421 69.8008 65.7541 69.5073 67.0466C69.376 67.6249 69.2278 68.1994 69.0627 68.7693C65.3418 81.6093 53.4517 91 39.359 91C24.9864 91 12.9048 81.2326 9.44337 68.0002C9.4453 68.0027 9.44722 68.0052 9.44914 68.0077C13.6853 73.4647 20.2359 77.0499 27.636 77.305C27.917 77.3147 28.1992 77.3196 28.4826 77.3196Z" fill="#FF5E14"/>
<path d="M79.0074 31.365C75.4729 28.7977 71.4724 27.3354 67.4186 26.9129C65.5088 26.7139 63.5872 26.7456 61.6968 27.0012C59.4723 27.302 57.3169 24.9491 58.257 22.9112C58.5125 22.3574 58.9626 21.9129 59.5332 21.6973C62.9281 20.4146 66.5994 19.962 70.2155 20.3922C61.5117 14.1341 50.511 13.3653 41.3603 17.4292C40.147 17.968 38.8475 16.5141 39.8455 15.6388C40.2921 15.2472 40.7501 14.8685 41.2189 14.5035C51.7837 6.28016 66.9107 5.64112 78.2853 13.903C89.8858 22.3289 93.8851 37.3266 88.8863 50.0786C88.8862 50.0755 88.8861 50.0723 88.886 50.0692C88.6806 43.1637 85.5048 36.4182 79.6822 31.8732C79.461 31.7005 79.2362 31.5312 79.0074 31.365Z" fill="#FF5E14"/>
<path d="M79.0074 31.365C75.4729 28.7977 71.4724 27.3354 67.4186 26.9129C65.5088 26.7139 63.5872 26.7456 61.6968 27.0012C59.4723 27.302 57.3169 24.9491 58.257 22.9112C58.5125 22.3574 58.9626 21.9129 59.5332 21.6973C62.9281 20.4146 66.5994 19.962 70.2155 20.3922C61.5117 14.1341 50.511 13.3653 41.3603 17.4292C40.147 17.968 38.8475 16.5141 39.8455 15.6388C40.2921 15.2472 40.7501 14.8685 41.2189 14.5035C51.7837 6.28016 66.9107 5.64112 78.2853 13.903C89.8858 22.3289 93.8851 37.3266 88.8863 50.0786C88.8862 50.0755 88.8861 50.0723 88.886 50.0692C88.6806 43.1637 85.5048 36.4182 79.6822 31.8732C79.461 31.7005 79.2362 31.5312 79.0074 31.365Z" fill="#FFA100"/>
<path d="M42.4036 10.5793C38.8718 13.1416 36.2467 16.4868 34.5933 20.2034C33.8144 21.9543 33.2512 23.7876 32.9105 25.6603C32.5096 27.864 29.6075 29.1836 27.9606 27.6631C27.5131 27.2498 27.2295 26.6856 27.2008 26.0776C27.0297 22.4605 27.7332 18.837 29.2586 15.5382C20.6225 21.8675 16.495 32.0695 17.5325 42.0063C17.67 43.3239 15.8867 44.1087 15.3629 42.8916C15.1285 42.3471 14.91 41.7957 14.7078 41.2382C10.1531 28.6766 14.2164 14.1247 25.5819 5.87896C37.1731 -2.5306 52.6642 -1.7002 63.2422 6.97632C63.2392 6.97543 63.2362 6.97456 63.2332 6.97367C56.6057 5.03885 49.2131 5.97206 43.0949 10.0957C42.8626 10.2523 42.6322 10.4134 42.4036 10.5793Z" fill="#FF5E14"/>
<path d="M42.4036 10.5793C38.8718 13.1416 36.2467 16.4868 34.5933 20.2034C33.8144 21.9543 33.2512 23.7876 32.9105 25.6603C32.5096 27.864 29.6075 29.1836 27.9606 27.6631C27.5131 27.2498 27.2295 26.6856 27.2008 26.0776C27.0297 22.4605 27.7332 18.837 29.2586 15.5382C20.6225 21.8675 16.495 32.0695 17.5325 42.0063C17.67 43.3239 15.8867 44.1087 15.3629 42.8916C15.1285 42.3471 14.91 41.7957 14.7078 41.2382C10.1531 28.6766 14.2164 14.1247 25.5819 5.87896C37.1731 -2.5306 52.6642 -1.7002 63.2422 6.97632C63.2392 6.97543 63.2362 6.97456 63.2332 6.97367C56.6057 5.03885 49.2131 5.97206 43.0949 10.0957C42.8626 10.2523 42.6322 10.4134 42.4036 10.5793Z" fill="#FFA100"/>
<path d="M11.2288 38.7374C12.5823 42.9015 14.965 46.4438 18.004 49.1743C19.4356 50.4607 21.0129 51.5669 22.6968 52.4731C24.6784 53.5395 25.0396 56.7173 23.076 57.8162C22.5423 58.1148 21.9152 58.2102 21.3253 58.0489C17.8157 57.0894 14.5713 55.2938 11.8919 52.815C15.2625 63.017 23.7318 70.1203 33.5491 72.2148C34.8509 72.4926 35.0478 74.4372 33.7224 74.5591C33.1294 74.6137 32.5347 74.651 31.9393 74.6708C18.5232 75.1166 5.87736 66.7243 1.52159 53.3241C-2.92069 39.6577 2.67587 25.1392 14.2469 17.7422C14.2451 17.7448 14.2433 17.7473 14.2415 17.7499C10.3378 23.4711 8.93745 30.8122 10.981 37.9279C11.0586 38.1982 11.1412 38.4679 11.2288 38.7374Z" fill="#FF5E14"/>
<path d="M11.2288 38.7374C12.5823 42.9015 14.965 46.4438 18.004 49.1743C19.4356 50.4607 21.0129 51.5669 22.6968 52.4731C24.6784 53.5395 25.0396 56.7173 23.076 57.8162C22.5423 58.1148 21.9152 58.2102 21.3253 58.0489C17.8157 57.0894 14.5713 55.2938 11.8919 52.815C15.2625 63.017 23.7318 70.1203 33.5491 72.2148C34.8509 72.4926 35.0478 74.4372 33.7224 74.5591C33.1294 74.6137 32.5347 74.651 31.9393 74.6708C18.5232 75.1166 5.87736 66.7243 1.52159 53.3241C-2.92069 39.6577 2.67587 25.1392 14.2469 17.7422C14.2451 17.7448 14.2433 17.7473 14.2415 17.7499C10.3378 23.4711 8.93745 30.8122 10.981 37.9279C11.0586 38.1982 11.1412 38.4679 11.2288 38.7374Z" fill="#FFA100"/>
<path d="M63.7 46.6375C63.7 56.0608 56.0609 63.7 46.6375 63.7C37.2141 63.7 29.575 56.0608 29.575 46.6375C29.575 37.2141 37.2141 29.575 46.6375 29.575C56.0609 29.575 63.7 37.2141 63.7 46.6375Z" fill="url(#paint0_linear_201_402)"/>
<path d="M63.2562 50.5209C63.5466 49.2734 63.7 47.9734 63.7 46.6375C63.7 37.2141 56.0609 29.575 46.6375 29.575C39.6466 29.575 33.6378 33.7793 31.0014 39.7974C31.4285 39.946 31.8352 40.0985 31.9993 40.1732C32.2534 40.2891 32.5296 40.3483 32.8089 40.3468L36.3339 40.3276C36.5309 40.3265 36.7038 40.4585 36.7547 40.6488C36.8235 40.9059 36.8837 40.9879 37.05 41.0507C37.2128 41.1121 37.2588 41.1726 37.2588 41.3245C37.2588 41.5843 37.4855 41.8001 37.7583 41.8001C37.9478 41.8001 37.9652 41.8146 37.8874 41.9084C37.8115 41.9999 37.8376 42.0578 38.0553 42.2808C38.1971 42.4259 38.4358 42.6218 38.5858 42.7159L38.6516 42.7572C38.7413 42.8135 38.7337 42.9467 38.6381 42.9924C38.2563 43.1751 38.3082 43.2908 39.1599 44.1539C39.595 44.595 39.9862 44.9558 40.0292 44.9558C40.2162 44.9558 41.0198 44.589 41.19 44.426C41.2618 44.3572 41.3812 44.4061 41.3841 44.5054L41.4153 45.5658C41.4407 46.4285 41.5047 47.1713 41.6005 47.7147C41.8296 49.0151 41.8681 49.1251 43.0647 51.9016C43.3729 52.6169 43.7852 53.6655 43.9809 54.2319C44.1765 54.7982 44.383 55.3514 44.4398 55.4611C44.5702 55.7133 45.0468 56.1468 45.3554 56.294C45.5766 56.3995 45.6059 56.3982 45.8162 56.2738C45.9397 56.2008 46.1104 56.0158 46.1956 55.8626C46.3015 55.6725 46.4602 55.5279 46.6961 55.4068C47.0062 55.2476 47.0454 55.2007 47.0791 54.9489C47.1253 54.6033 47.1898 54.4931 47.3457 54.4931C47.412 54.4931 47.5397 54.4416 47.6296 54.3786C47.7856 54.2694 47.7908 54.2382 47.7452 53.6904C47.7043 53.1993 47.7193 53.0567 47.8495 52.7004C47.9694 52.3721 48.0176 52.0072 48.0774 50.9747L48.1395 49.9008C48.1475 49.7625 48.2487 49.6474 48.3849 49.6218C48.535 49.5937 48.681 49.4941 48.7988 49.3396C48.9183 49.183 49.0967 49.0625 49.3179 48.9891C49.6783 48.8693 49.8357 48.734 49.9143 48.4764C49.9413 48.3878 50.2551 48.0831 50.6116 47.7993C50.9681 47.5155 51.4759 47.0418 51.74 46.7466C52.0459 46.4049 52.3878 46.1117 52.6815 45.9392C53.4004 45.517 53.8089 45.0275 53.8089 44.5882C53.8089 44.5067 53.9108 44.3549 54.0354 44.2509C54.2229 44.0943 54.2892 44.0743 54.4208 44.1342C54.547 44.1917 54.61 44.1792 54.7271 44.0732C54.8081 43.9999 54.949 43.9497 55.0401 43.9616C55.1312 43.9735 55.3095 43.9373 55.4365 43.8809C55.9649 43.6467 56.1231 43.6849 56.1231 44.047C56.1231 44.3462 56.1925 44.4649 56.3676 44.4649C56.5121 44.4649 56.5298 44.426 56.5572 44.0467C56.5765 43.7802 56.6323 43.579 56.7113 43.4917C56.7795 43.4165 56.8248 43.2811 56.8122 43.1911C56.7725 42.9077 56.9829 43.004 57.2204 43.3779C57.3429 43.5708 57.5046 43.8075 57.5797 43.9039C57.6548 44.0003 57.7398 44.1581 57.7685 44.2545C57.7972 44.3509 57.8975 44.5637 57.9913 44.7273C58.1606 45.0222 58.4751 45.222 58.9457 45.3335C59.1364 45.3787 59.2042 45.5381 59.0684 45.622C58.8627 45.7491 59.0782 46.1728 59.3771 46.2284C59.6086 46.2714 59.7203 46.7305 59.7339 47.6962C59.7408 48.1812 59.7693 48.6151 59.7973 48.6604C59.8252 48.7056 59.9055 48.7427 59.9757 48.7427C60.0458 48.7427 60.1424 48.79 60.1905 48.8478C60.2904 48.9683 60.5809 48.9887 60.648 48.88C60.6729 48.8399 60.7503 48.8252 60.8201 48.8474C60.9596 48.8917 61.1722 48.7206 61.1722 48.5641C61.1722 48.51 61.2665 48.417 61.3817 48.3574C61.4969 48.2979 61.6941 48.1592 61.82 48.0492L61.8284 48.0418C61.9591 47.9276 62.1494 47.9132 62.2958 48.0063C62.5376 48.1601 62.5453 48.1795 62.6641 48.932C62.8096 49.8531 62.9629 50.3331 63.1421 50.4291C63.1826 50.4507 63.2206 50.4814 63.2562 50.5209Z" fill="url(#paint1_linear_201_402)"/>
<path d="M46.6024 58.546L46.6601 57.045C46.6648 56.9248 46.8085 56.8658 46.8962 56.948L47.7485 57.7474C47.9427 57.9295 48.0691 58.1723 48.1068 58.4359L48.1716 58.8886C48.2142 59.186 48.0384 59.4713 47.7537 59.5669C47.5928 59.621 47.4169 59.607 47.2666 59.5283L47.1296 59.4565C46.7929 59.2801 46.5877 58.9258 46.6024 58.546Z" fill="url(#paint2_linear_201_402)"/>
<path d="M120.19 58C120.09 58 120 57.97 119.92 57.91C119.86 57.83 119.83 57.74 119.83 57.64V37.36C119.83 37.26 119.86 37.18 119.92 37.12C120 37.04 120.09 37 120.19 37H123.7C123.8 37 123.88 37.04 123.94 37.12C124.02 37.18 124.06 37.26 124.06 37.36V45.76C124.06 45.82 124.08 45.86 124.12 45.88C124.16 45.88 124.2 45.86 124.24 45.82L131.17 37.21C131.29 37.07 131.44 37 131.62 37H135.58C135.74 37 135.84 37.05 135.88 37.15C135.92 37.23 135.9 37.33 135.82 37.45L129.13 46C129.07 46.08 129.06 46.15 129.1 46.21L136.18 57.58C136.22 57.7 136.24 57.77 136.24 57.79C136.24 57.93 136.14 58 135.94 58H131.98C131.78 58 131.64 57.92 131.56 57.76L126.22 49.12C126.2 49.08 126.17 49.06 126.13 49.06C126.09 49.06 126.05 49.08 126.01 49.12L124.12 51.49C124.08 51.57 124.06 51.63 124.06 51.67V57.64C124.06 57.74 124.02 57.83 123.94 57.91C123.88 57.97 123.8 58 123.7 58H120.19Z" fill="black"/>
<path d="M147.279 36.97C148.599 36.97 149.759 37.24 150.759 37.78C151.759 38.32 152.529 39.09 153.069 40.09C153.629 41.07 153.909 42.2 153.909 43.48C153.909 44.74 153.619 45.85 153.039 46.81C152.479 47.77 151.679 48.52 150.639 49.06C149.619 49.58 148.439 49.84 147.099 49.84H142.839C142.739 49.84 142.689 49.89 142.689 49.99V57.64C142.689 57.74 142.649 57.83 142.569 57.91C142.509 57.97 142.429 58 142.329 58H138.819C138.719 58 138.629 57.97 138.549 57.91C138.489 57.83 138.459 57.74 138.459 57.64V37.33C138.459 37.23 138.489 37.15 138.549 37.09C138.629 37.01 138.719 36.97 138.819 36.97H147.279ZM146.649 46.45C147.569 46.45 148.309 46.19 148.869 45.67C149.429 45.13 149.709 44.43 149.709 43.57C149.709 42.69 149.429 41.98 148.869 41.44C148.309 40.9 147.569 40.63 146.649 40.63H142.839C142.739 40.63 142.689 40.68 142.689 40.78V46.3C142.689 46.4 142.739 46.45 142.839 46.45H146.649Z" fill="black"/>
<path d="M168.19 58C167.99 58 167.86 57.9 167.8 57.7L166.9 54.76C166.86 54.68 166.81 54.64 166.75 54.64H159.37C159.31 54.64 159.26 54.68 159.22 54.76L158.35 57.7C158.29 57.9 158.16 58 157.96 58H154.15C154.03 58 153.94 57.97 153.88 57.91C153.82 57.83 153.81 57.72 153.85 57.58L160.33 37.3C160.39 37.1 160.52 37 160.72 37H165.43C165.63 37 165.76 37.1 165.82 37.3L172.3 57.58C172.32 57.62 172.33 57.67 172.33 57.73C172.33 57.91 172.22 58 172 58H168.19ZM160.3 51.19C160.28 51.31 160.32 51.37 160.42 51.37H165.7C165.82 51.37 165.86 51.31 165.82 51.19L163.12 42.28C163.1 42.2 163.07 42.17 163.03 42.19C162.99 42.19 162.96 42.22 162.94 42.28L160.3 51.19Z" fill="black"/>
<path d="M188.617 37C188.817 37 188.917 37.1 188.917 37.3V38.59C188.917 38.79 188.817 38.89 188.617 38.89H182.737C182.657 38.89 182.617 38.93 182.617 39.01V57.7C182.617 57.9 182.517 58 182.317 58H180.787C180.587 58 180.487 57.9 180.487 57.7V39.01C180.487 38.93 180.447 38.89 180.367 38.89H174.727C174.527 38.89 174.427 38.79 174.427 38.59V37.3C174.427 37.1 174.527 37 174.727 37H188.617Z" fill="black"/>
<path d="M197.155 42.67C197.815 42.67 198.385 42.8 198.865 43.06C199.025 43.14 199.085 43.27 199.045 43.45L198.715 44.92C198.655 45.12 198.525 45.18 198.325 45.1C197.985 44.96 197.595 44.89 197.155 44.89L196.765 44.92C195.725 44.96 194.865 45.35 194.185 46.09C193.505 46.81 193.165 47.73 193.165 48.85V57.7C193.165 57.9 193.065 58 192.865 58H191.335C191.135 58 191.035 57.9 191.035 57.7V43.12C191.035 42.92 191.135 42.82 191.335 42.82H192.865C193.065 42.82 193.165 42.92 193.165 43.12V44.95C193.165 45.01 193.175 45.05 193.195 45.07C193.235 45.07 193.265 45.05 193.285 45.01C193.705 44.27 194.235 43.7 194.875 43.3C195.535 42.88 196.295 42.67 197.155 42.67Z" fill="black"/>
<path d="M211.143 43.12C211.143 42.92 211.243 42.82 211.443 42.82H212.973C213.173 42.82 213.273 42.92 213.273 43.12V57.7C213.273 57.9 213.173 58 212.973 58H211.443C211.243 58 211.143 57.9 211.143 57.7V56.41C211.143 56.37 211.123 56.34 211.083 56.32C211.043 56.3 211.012 56.31 210.992 56.35C210.152 57.59 208.823 58.21 207.003 58.21C206.043 58.21 205.153 58.02 204.333 57.64C203.533 57.24 202.893 56.67 202.413 55.93C201.953 55.19 201.723 54.3 201.723 53.26V43.12C201.723 42.92 201.823 42.82 202.023 42.82H203.553C203.753 42.82 203.852 42.92 203.852 43.12V52.63C203.852 53.77 204.172 54.68 204.812 55.36C205.453 56.02 206.323 56.35 207.423 56.35C208.563 56.35 209.462 56.01 210.122 55.33C210.802 54.65 211.143 53.75 211.143 52.63V43.12Z" fill="black"/>
<path d="M223.026 58.15C221.906 58.15 220.906 57.97 220.026 57.61C219.166 57.25 218.496 56.77 218.016 56.17C217.556 55.57 217.326 54.9 217.326 54.16V53.8C217.326 53.6 217.426 53.5 217.626 53.5H219.066C219.266 53.5 219.366 53.6 219.366 53.8V54.04C219.366 54.7 219.706 55.28 220.386 55.78C221.086 56.26 221.956 56.5 222.996 56.5C224.036 56.5 224.876 56.27 225.516 55.81C226.156 55.33 226.476 54.73 226.476 54.01C226.476 53.51 226.306 53.1 225.966 52.78C225.646 52.46 225.256 52.21 224.796 52.03C224.356 51.85 223.666 51.62 222.726 51.34C221.606 51.02 220.686 50.7 219.966 50.38C219.246 50.06 218.636 49.62 218.136 49.06C217.656 48.48 217.416 47.75 217.416 46.87C217.416 45.59 217.916 44.57 218.916 43.81C219.916 43.05 221.236 42.67 222.876 42.67C223.976 42.67 224.946 42.85 225.786 43.21C226.646 43.57 227.306 44.07 227.766 44.71C228.226 45.33 228.456 46.03 228.456 46.81V46.9C228.456 47.1 228.356 47.2 228.156 47.2H226.746C226.546 47.2 226.446 47.1 226.446 46.9V46.81C226.446 46.13 226.116 45.56 225.456 45.1C224.816 44.64 223.946 44.41 222.846 44.41C221.826 44.41 221.006 44.62 220.386 45.04C219.766 45.44 219.456 46 219.456 46.72C219.456 47.4 219.756 47.92 220.356 48.28C220.956 48.64 221.886 49 223.146 49.36C224.306 49.7 225.246 50.02 225.966 50.32C226.686 50.62 227.306 51.06 227.826 51.64C228.346 52.2 228.606 52.94 228.606 53.86C228.606 55.16 228.096 56.2 227.076 56.98C226.056 57.76 224.706 58.15 223.026 58.15Z" fill="black"/>
<path d="M239.271 44.29C239.271 44.49 239.171 44.59 238.971 44.59H235.581C235.501 44.59 235.461 44.63 235.461 44.71V53.56C235.461 54.52 235.671 55.2 236.091 55.6C236.531 55.98 237.211 56.17 238.131 56.17H238.881C239.081 56.17 239.181 56.27 239.181 56.47V57.7C239.181 57.9 239.081 58 238.881 58C238.641 58.02 238.271 58.03 237.771 58.03C236.331 58.03 235.241 57.76 234.501 57.22C233.761 56.68 233.391 55.68 233.391 54.22V44.71C233.391 44.63 233.351 44.59 233.271 44.59H231.441C231.241 44.59 231.141 44.49 231.141 44.29V43.12C231.141 42.92 231.241 42.82 231.441 42.82H233.271C233.351 42.82 233.391 42.78 233.391 42.7V39.22C233.391 39.02 233.491 38.92 233.691 38.92H235.161C235.361 38.92 235.461 39.02 235.461 39.22V42.7C235.461 42.78 235.501 42.82 235.581 42.82H238.971C239.171 42.82 239.271 42.92 239.271 43.12V44.29Z" fill="black"/>
</g>
<defs>
<linearGradient id="paint0_linear_201_402" x1="119.459" y1="-1.66154e-06" x2="125.245" y2="72.0641" gradientUnits="userSpaceOnUse">
<stop stop-color="#B2CFD6"/>
<stop offset="1" stop-color="#A4DBE7"/>
</linearGradient>
<linearGradient id="paint1_linear_201_402" x1="119.459" y1="-1.66154e-06" x2="125.245" y2="72.0641" gradientUnits="userSpaceOnUse">
<stop stop-color="#75DB7F"/>
<stop offset="1" stop-color="#77C13D"/>
</linearGradient>
<linearGradient id="paint2_linear_201_402" x1="119.459" y1="-1.66154e-06" x2="125.245" y2="72.0641" gradientUnits="userSpaceOnUse">
<stop stop-color="#75DB7F"/>
<stop offset="1" stop-color="#77C13D"/>
</linearGradient>
</defs>
</svg>
