<svg xmlns="http://www.w3.org/2000/svg" xmlns:xlink="http://www.w3.org/1999/xlink" width="715" height="798" viewBox="0 0 715 798" fill="none">
  <path d="M160.738 6.54236C160.738 5.88148 163.951 4.27648 168.014 2.95471C173.684 1.06647 177.18 0.5 183.795 0.5C188.425 0.5 193.15 0.877648 194.19 1.44412C195.229 2.01059 199.482 5.78707 203.639 9.94119C207.797 14.0953 213.278 18.8159 215.924 20.5153C218.475 22.2147 221.783 24.8583 223.106 26.2744C224.429 27.785 226.413 30.523 227.452 32.3168C228.492 34.1106 230.949 36.3765 232.839 37.3206C234.729 38.1703 237.186 38.9256 238.319 38.9256C239.642 38.9256 241.816 40.4362 243.8 42.7965C246.163 45.5345 247.864 46.6674 250.037 46.7618C252.021 46.8562 254.667 45.8177 258.258 43.4574C261.282 41.4748 263.644 40.153 263.644 40.6251C263.644 41.0027 264.022 40.8139 264.4 40.2474C264.778 39.6809 267.141 38.548 269.787 37.6983C272.338 36.8486 278.386 35.4324 283.016 34.5827C289.631 33.3553 292.371 33.2609 295.301 34.0162C297.38 34.5827 301.443 36.6598 304.278 38.6424C307.113 40.6251 310.042 43.4574 310.609 44.8736C311.649 47.0451 311.46 48.5557 309.475 55.2589C308.247 59.5074 305.979 64.7001 304.467 66.7772C303.049 68.8542 300.12 71.8754 298.041 73.4804C295.206 75.7463 294.167 77.3513 293.6 80.3725C293.222 82.8272 292.277 84.621 291.048 85.1875C290.009 85.754 287.457 86.1316 285.379 86.1316C283.3 86.1316 281.315 86.6981 280.843 87.3589C280.465 87.9254 280.087 90.6634 279.992 93.2125C279.992 95.856 279.614 99.3493 279.331 101.049C278.858 103.598 279.142 104.353 281.315 105.675C282.827 106.619 284.717 108.224 285.662 109.263C286.607 110.301 287.079 110.49 286.702 109.735C286.229 108.696 286.324 108.602 287.079 109.263C287.646 109.829 289.158 113.228 290.387 116.815C291.71 120.498 292.938 124.18 293.316 125.124C293.694 126.257 293.222 127.012 291.71 127.767C290.576 128.334 287.457 130.316 284.906 132.11C280.465 135.226 280.087 135.32 277.819 133.998C276.496 133.149 274.889 131.449 274.228 130.128C273.661 128.806 272.716 127.673 272.149 127.673C271.582 127.673 270.354 128.145 269.314 128.617C268.18 129.183 267.424 130.505 267.424 131.921C267.424 133.243 268.086 135.698 268.936 137.397C269.787 139.002 271.488 144.478 272.716 149.388C273.945 154.297 274.984 159.395 274.984 160.717C274.984 162.039 275.456 163.833 276.118 164.871C277.346 166.571 277.441 166.571 282.733 163.077L286.702 167.609C288.875 170.158 292.655 173.085 295.301 174.312C297.852 175.54 304.278 179.788 309.475 183.754C314.672 187.719 320.626 191.495 322.705 192.156C324.784 192.911 326.862 194.233 327.429 195.083C328.185 196.31 327.902 196.971 326.484 197.821C325.445 198.387 322.988 200.37 321.004 202.258C318.925 204.146 315.806 208.867 313.727 213.116C311.649 217.27 309.286 223.501 308.341 227.089C307.113 231.715 306.924 233.886 307.585 235.114C308.152 235.963 314.2 239.457 320.909 242.855C327.713 246.254 336.218 251.258 339.808 253.996C345.1 257.961 348.597 259.661 358.141 262.871C365.322 265.325 371.843 268.158 374.677 270.14C378.93 273.162 380.064 273.445 385.072 273.35C388.19 273.35 392.443 272.784 394.522 272.217C396.601 271.651 400.758 271.179 403.688 271.179C406.806 271.179 410.492 271.84 412.193 272.69C413.893 273.539 417.39 276.466 420.036 279.204C424.572 283.925 425.233 284.302 438.462 288.456C446.022 290.817 454.527 293.366 457.362 294.121C460.197 294.782 466.339 295.348 471.064 295.254C475.788 295.16 481.931 295.537 484.766 296.198C487.6 296.859 491.569 297.331 493.459 297.237C495.444 297.237 497.712 296.387 498.657 295.443C500.168 293.932 500.357 291.761 500.357 274.106C500.357 258.056 500.641 254.185 501.775 252.863C502.531 251.919 504.704 250.88 506.5 250.314C508.295 249.842 510.941 249.464 512.359 249.464C514.154 249.464 515.382 250.125 516.044 251.636C516.705 252.769 516.894 255.318 516.516 257.489C516.138 259.566 516.327 264.192 516.8 267.875C517.367 271.557 518.595 275.522 519.54 276.844C520.58 278.165 523.037 279.676 525.021 280.242C527.1 280.903 531.636 281.47 535.321 281.47C539.006 281.564 549.779 280.998 559.418 280.242C569.056 279.393 579.262 278.26 582.097 277.693C584.932 277.032 589.089 276.466 591.263 276.277C595.043 275.9 595.326 275.711 595.326 273.067C595.326 271.557 594.665 268.63 593.814 266.742C593.058 264.759 591.452 262.21 590.318 260.982C589.184 259.849 586.822 258.433 585.121 257.961C582.475 257.112 582.097 256.639 582.097 253.996C582.097 250.88 582.097 250.88 587.01 250.692C589.751 250.597 594.003 249.653 596.46 248.614C599.579 247.293 603.925 243.611 610.068 237.474C614.981 232.376 619.517 227.089 619.99 225.672C620.557 223.69 621.691 222.84 623.864 222.462C625.565 222.085 628.778 220.574 630.951 219.158C633.219 217.647 637.377 213.588 640.306 210.094C643.141 206.507 645.976 203.769 646.449 203.958C646.921 204.052 647.299 203.769 647.299 203.202C647.299 202.73 648.622 202.258 650.134 202.258C651.646 202.258 654.67 203.108 656.749 204.146C658.828 205.185 661.568 206.035 662.891 206.035C664.214 206.035 666.387 205.468 667.805 204.713C669.317 203.958 671.774 201.975 673.286 200.37C674.797 198.671 677.538 196.688 679.144 196.027C682.168 194.8 682.357 194.8 685.098 197.538C687.366 199.804 687.743 200.748 686.987 202.258C686.515 203.297 686.043 204.807 686.043 205.563C686.043 206.412 686.893 206.979 688.405 206.979C689.728 206.979 691.618 207.451 692.657 207.923C693.886 208.489 694.547 209.811 694.547 211.511C694.547 212.927 693.697 215.476 692.657 217.175C691.618 218.78 690.767 220.763 690.767 221.424C690.767 222.179 693.13 222.557 699.083 222.651C703.619 222.746 708.438 223.312 709.856 223.879C711.368 224.445 713.163 225.956 713.919 227.277C714.675 228.599 715.147 230.393 714.958 231.337C714.675 232.187 712.974 234.736 711.179 237.002C708.438 240.212 707.777 241.722 707.777 245.027C707.777 247.482 708.533 249.842 709.667 251.352C710.706 252.674 711.557 254.279 711.557 254.94C711.557 255.507 710.99 256.073 710.328 256.073C709.761 256.167 708.533 255.507 707.777 254.657C707.021 253.807 704.942 252.769 703.241 252.202C700.878 251.541 699.461 251.73 696.626 253.146C694.736 254.09 690.767 256.639 687.932 258.811C685.098 260.982 679.05 266.364 666.198 278.732L666.671 288.645C667.049 296.387 666.765 299.408 665.631 302.618C664.781 304.79 662.797 308.283 661.19 310.36C658.45 314.042 658.355 314.325 659.395 318.857C660.34 322.633 660.245 324.522 659.206 328.298C658.544 330.942 656.56 336.323 654.953 340.383C653.347 344.348 652.024 348.313 652.024 349.069C652.024 349.824 651.362 351.146 650.606 351.901C649.473 353.034 647.583 353.223 631.235 351.901L633.125 357.849C634.164 361.059 635.015 366.063 635.015 368.895C635.015 372.294 634.259 375.693 632.936 378.62C631.235 382.302 630.762 385.417 630.29 397.219C629.912 405.149 629.156 412.325 628.589 413.552C627.927 414.685 626.793 415.629 626.037 415.629C625.281 415.629 623.581 415.063 622.258 414.496C620.935 413.835 619.517 412.23 619.045 410.909C618.572 409.587 617.06 403.45 615.737 397.219C614.32 390.988 611.863 381.263 610.068 375.504C608.272 369.839 606.193 364.741 605.343 364.175C604.335 363.545 603.327 363.545 602.319 364.175C601.468 364.741 599.956 367.479 598.917 370.311C597.878 373.144 596.933 377.392 596.744 379.753C596.555 382.113 595.704 384.662 594.854 385.417C593.436 386.645 593.153 386.645 591.735 384.568C590.885 383.34 588.617 380.791 586.727 378.903C584.837 377.015 582.758 374.56 582.191 373.427C581.624 372.2 581.152 368.895 581.152 366.063C581.152 361.531 581.53 360.398 584.176 357.471C585.877 355.583 588.9 353.223 590.79 352.279C592.775 351.24 595.704 349.069 597.311 347.464C599.011 345.764 601.279 342.271 602.508 339.628C603.642 337.078 604.87 333.585 605.154 332.075C605.532 330.375 605.343 328.581 604.587 327.543C603.453 325.938 601.657 325.843 583.987 325.938C573.309 325.938 561.213 325.749 557.055 325.371C552.33 324.994 548.74 324.238 547.322 323.294C545.621 321.973 545.054 320.273 544.298 314.136C543.826 309.982 542.975 304.978 542.408 303.09C541.841 300.919 540.896 299.503 540.046 299.503C539.29 299.503 538.156 300.541 537.683 301.863C537.117 303.279 535.983 304.223 534.849 304.223C533.809 304.223 530.691 302.052 527.95 299.503C523.509 295.254 522.942 294.876 521.619 296.198C520.863 297.048 519.351 297.709 518.312 297.709C517.272 297.614 515.477 296.953 514.248 296.198C513.114 295.443 511.603 294.971 510.941 295.16C510.374 295.348 508.295 298.37 506.5 301.957C504.704 305.45 503.098 308.944 502.909 309.605C502.814 310.265 504.421 312.343 506.5 314.136C508.579 315.93 511.886 318.29 513.776 319.235C515.76 320.273 518.595 322.067 520.107 323.294C521.714 324.522 522.659 326.032 522.375 326.882C522.092 327.637 520.58 328.581 518.879 329.053C517.178 329.431 513.398 332.169 509.807 335.662C506.405 338.872 503.476 342.271 503.192 343.215C502.909 344.159 503.759 345.764 505.271 347.275C506.783 348.597 509.902 350.674 512.359 351.996C514.91 353.223 516.894 354.639 516.894 355.206C516.894 355.772 517.461 356.055 518.028 355.961C518.69 355.772 519.351 356.622 519.446 357.849C519.635 358.982 518.973 361.531 518.123 363.514C517.272 365.402 516.611 368.329 516.705 369.839C516.8 371.35 517.461 373.333 518.123 374.088C518.784 374.843 520.674 378.053 522.281 381.169C523.793 384.284 525.588 388.722 526.155 391.082C526.816 393.442 527.478 397.502 527.667 400.051C527.856 402.695 528.517 406.094 529.179 407.604C529.746 409.115 530.502 412.608 530.785 415.157C531.258 419.122 531.069 420.066 529.557 421.011C528.517 421.577 527.1 421.86 526.344 421.577C525.588 421.294 522.942 422.238 520.391 423.56C516.989 425.448 515.477 425.826 514.059 425.07C513.02 424.504 512.169 423.465 512.169 422.71C512.169 421.955 511.697 421.294 511.225 421.294C510.752 421.294 509.429 422.804 508.39 424.598C506.878 427.147 504.704 428.752 498.468 431.679C494.026 433.756 490.152 435.456 489.679 435.456C489.301 435.456 487.411 436.872 485.333 438.477C481.742 441.592 481.647 441.687 482.403 446.313C482.781 448.957 483.159 452.733 483.159 454.81C483.254 456.887 482.403 460.286 481.458 462.363C480.419 464.44 477.111 468.689 473.899 471.899C469.457 476.336 466.622 478.224 460.858 480.585C456.889 482.284 452.92 483.606 452.164 483.606C451.408 483.606 449.708 482.945 448.385 482.19C447.062 481.434 445.361 480.962 444.605 481.245C443.849 481.529 442.62 482.85 442.053 484.361C441.392 485.777 437.706 491.82 433.832 497.768C428.162 506.453 423.91 511.552 412.098 523.353C403.971 531.378 395.845 539.875 393.955 542.235C392.065 544.501 388.285 547.617 385.45 549.128C382.615 550.638 379.024 552.81 377.512 553.943C376 555.076 373.733 557.813 372.599 560.174C371.181 563.101 370.709 565.272 371.087 567.632C371.646 570.894 371.561 570.936 365.381 574.023L365.133 574.147C360.409 576.413 356.912 577.451 352.471 577.734C348.597 578.018 345.667 578.773 344.628 579.717C343.683 580.661 341.131 584.154 338.958 587.742C336.785 591.235 334.328 594.068 333.572 594.068C332.816 594.068 330.737 593.501 329.036 592.651C326.295 591.33 325.728 591.424 322.421 593.029C320.531 593.973 317.791 596.428 316.279 598.411C314.861 600.488 313.16 603.792 312.405 605.869C311.365 608.796 311.271 612.761 311.838 624.279C312.31 633.721 313.16 640.424 314.105 643.162C314.956 645.522 315.617 647.694 315.617 648.166C315.617 648.543 314.767 649.015 313.727 649.299C312.688 649.582 311.838 650.432 311.838 651.187C311.838 651.942 312.971 653.358 314.294 654.302C315.806 655.247 316.846 657.04 317.035 658.74C317.224 660.25 316.94 663.744 316.373 666.293C315.806 668.936 312.971 676.3 309.948 682.815C306.924 689.329 303.994 696.977 303.333 699.809C302.482 703.585 302.388 706.229 303.144 709.722C303.711 712.366 304.183 719.541 304.183 725.772C304.278 733.703 303.9 737.479 303.144 738.329C302.482 738.99 300.781 739.556 299.27 739.462C297.852 739.462 295.301 740.123 293.6 740.973C291.993 741.822 289.064 744.466 287.174 746.826C285.19 749.281 282.544 753.624 281.126 756.456C279.236 760.233 278.669 762.404 279.709 767.313L271.015 769.957C265.44 771.656 261.282 773.639 259.581 775.15C258.164 776.566 256.652 779.021 256.179 780.531C255.707 782.042 255.045 784.496 254.762 786.007C254.478 787.423 252.588 790.067 250.604 791.861C248.714 793.749 245.785 795.637 244.273 796.109C242.761 796.676 239.926 797.242 238.13 797.431C235.863 797.714 233.217 797.148 229.626 795.354C226.791 794.032 221.499 790.067 217.814 786.573C214.034 782.891 209.971 777.888 208.27 774.772C206.569 771.656 204.395 766.275 203.356 762.593C202.316 758.911 200.048 751.075 198.442 745.127C196.741 739.179 194.095 731.059 192.583 727.188C191.071 723.318 187.858 716.331 185.496 711.61C183.134 706.89 178.314 698.865 174.723 693.672C171.227 688.48 167.069 681.304 165.557 677.622C164.045 673.94 161.683 665.915 160.266 659.684C158.848 653.453 156.675 645.145 155.541 641.274C154.312 637.403 151.666 630.794 149.588 626.64C147.603 622.486 142.689 612.95 138.72 605.397C134.752 597.844 129.932 587.27 128.137 581.794C125.585 574.147 124.735 569.521 124.168 561.496C123.696 553.659 122.467 547.239 119.349 535.532C116.986 526.941 114.907 518.16 114.718 515.989C114.435 513.157 114.813 511.552 115.758 510.796C116.608 510.135 117.27 509.003 117.175 508.436C117.175 507.775 116.136 506.737 114.813 506.265C112.639 505.415 112.451 504.66 111.978 498.523C111.789 494.746 111.695 488.232 111.884 484.078C112.073 479.924 112.923 474.637 113.773 472.276C114.718 469.916 115.852 466.706 116.419 465.195C117.27 462.835 116.986 461.324 114.435 455.565C112.828 451.789 111.506 447.257 111.506 445.652C111.6 443.953 112.545 440.932 115.758 435.456L113.584 433.567C112.451 432.529 111.128 430.641 110.561 429.319C109.994 427.997 109.616 425.354 109.616 423.465C109.71 421.105 109.049 419.217 105.836 416.101L104.891 418.745C104.418 420.161 103.473 424.976 102.906 429.602C102.339 434.134 101.205 439.138 100.449 440.648C99.6935 442.159 98.0871 444.425 96.9531 445.652C95.9137 446.785 94.6852 447.729 94.2127 447.729C93.8347 447.729 92.4173 448.579 90.9054 449.617C89.4879 450.656 84.1016 453.016 78.9043 454.716C73.7071 456.509 67.5648 458.209 65.2024 458.587C61.328 459.059 60.3831 458.775 55.2803 455.471C51.8784 453.205 46.3032 447.918 41.4838 442.442C37.0425 437.249 30.9003 429.885 27.7819 426.014C24.569 422.144 20.6947 417.14 19.0882 414.968C16.6313 411.664 16.2533 410.531 17.0093 409.02C17.8598 407.321 18.1433 407.226 20.3167 408.548C21.6396 409.304 24.947 409.964 27.5929 409.964C30.3333 409.964 34.6801 409.398 37.326 408.643C39.8774 407.793 43.9407 405.905 46.3031 404.3C48.6656 402.789 52.2564 399.957 54.3353 398.257C56.4142 396.464 57.8317 394.67 57.3592 394.198C56.9812 393.82 52.7289 394.575 47.9096 395.897C42.5233 397.408 37.6095 398.257 34.9636 398.069C32.6012 397.88 27.9709 396.464 24.569 394.764C21.1672 393.065 16.5368 390.232 14.2689 388.344C11.9065 386.456 9.07164 383.435 7.93768 381.641C6.70923 379.847 5.85877 377.204 5.95326 375.882C6.04776 374.466 6.99272 372.483 8.03218 371.35C9.54412 369.745 9.63861 369.273 8.50466 369.367C7.74869 369.367 6.23675 370.028 5.19729 370.784C4.15783 371.633 2.5514 372.2 1.60644 372.2C0.377985 372.2 0 371.444 0 369.178C0 367.479 0.472481 365.496 1.13395 364.93C1.79543 364.269 4.15783 363.703 6.52024 363.703C9.9221 363.703 11.434 363.231 13.2295 361.437C14.5524 360.115 15.8754 359.265 16.2534 359.454C16.7258 359.737 17.1983 359.265 17.4818 358.51C17.8598 357.471 19.3717 357.094 22.8681 357.094C25.6085 357.094 29.3883 357.566 31.1838 358.132C32.9792 358.699 37.704 359.076 41.5783 359.076C45.5472 358.982 50.9335 358.227 53.6739 357.283C58.5877 355.678 58.7767 355.678 62.651 357.849C64.8244 358.982 66.9978 359.926 67.5648 359.926C68.0373 359.926 70.3052 359.171 76.6364 356.622L75.975 352.373C75.6915 350.013 75.219 347.275 75.03 346.236C74.841 345.198 73.1401 339.439 71.2502 333.491C69.3602 327.543 67.3758 321.689 66.9978 320.556C66.4308 319.14 64.9189 318.102 62.5565 317.441C60.6666 316.969 58.1152 315.647 56.8867 314.42C55.1858 312.626 54.7133 311.21 54.7133 307.055C54.7133 304.223 55.1858 300.352 55.6583 298.558C56.2253 296.765 56.2253 294.593 55.8473 293.838C55.3748 293.082 54.3353 292.138 53.4849 291.761C52.6344 291.289 51.028 291.005 49.7995 291.005C48.6656 291.005 46.3031 290.156 44.6022 289.117C42.9958 288.079 41.1059 286.096 40.5389 284.68C39.8774 282.792 39.8774 280.998 40.5389 278.543C41.2004 276.372 42.8068 274.106 44.5077 272.878C46.0197 271.651 49.2325 268.347 51.5004 265.514C53.7683 262.682 56.9812 258.717 58.7766 256.828C61.0446 254.279 62.651 253.335 64.7299 253.241C66.9033 253.241 68.4153 254.185 75.1245 261.549L85.2356 259.755C90.9054 258.811 97.0476 257.112 98.9375 256.167C100.922 255.223 103.379 253.335 104.513 252.108C105.552 250.975 107.348 248.426 108.482 246.632C109.521 244.838 115.474 238.512 121.617 232.753C127.759 226.9 133.901 220.102 135.413 217.647C136.831 215.098 139.193 210.755 140.61 207.923C142.595 203.863 144.107 202.258 147.603 200.37C150.06 199.048 152.8 196.971 153.84 195.649C154.785 194.328 156.675 190.929 157.998 188.096C159.415 184.981 162.344 181.016 165.274 178.183C168.014 175.634 170.849 172.046 171.605 170.441C172.361 168.553 172.928 164.116 172.928 159.301C172.928 152.22 173.212 150.993 175.101 148.727C176.519 147.027 179.543 145.422 183.323 144.195C187.48 142.873 189.559 141.646 190.315 140.135C191.071 138.53 191.071 137.492 190.315 136.359C189.748 135.509 187.103 133.904 184.551 132.865C181.905 131.827 179.07 130.316 178.22 129.561C177.369 128.806 176.424 127.106 176.141 125.785C175.857 124.463 175.102 123.141 174.535 122.763C173.873 122.386 172.55 122.008 171.511 122.008C170.471 122.103 168.487 121.253 166.975 120.12C165.557 119.081 164.234 118.232 163.951 118.232C163.667 118.232 162.061 117.476 160.36 116.627C158.754 115.777 156.864 115.022 156.391 115.022C155.824 114.927 154.785 114.55 153.934 113.983C153.084 113.417 151.95 112.189 151.477 111.151C150.91 110.112 150.438 106.053 150.343 102.182C150.249 98.3107 150.06 93.5901 149.871 91.7963C149.588 90.0025 149.21 84.8098 148.359 71.9698L151.855 69.4207C153.745 67.9101 157.336 64.8889 159.888 62.5286C162.439 60.1683 164.518 57.7136 164.423 57.1471C164.423 56.4863 163.006 54.7868 161.211 53.3707C159.51 51.8601 157.431 49.4998 156.675 47.8948C155.824 46.1954 153.84 44.4959 151.572 43.5518C149.588 42.7021 145.997 40.3418 143.634 38.2648C140.799 35.8101 138.059 34.3939 135.319 33.9218C132.767 33.5442 130.783 32.5056 129.838 31.1839C128.83 29.7362 128.546 28.0683 128.987 26.18C129.365 24.3862 132.389 20.6097 137.397 15.6059C144.957 8.14736 145.524 7.76972 149.399 7.86413C151.666 7.86413 154.407 8.24178 155.446 8.61942C156.486 9.09148 158.092 8.99707 159.037 8.52501C159.982 8.05295 160.738 7.20325 160.738 6.54236Z" fill="url(#pattern0)"/>
  <defs>
    <pattern id="pattern0" patternContentUnits="objectBoundingBox" width="1" height="1">
      <use xlink:href="#image0_22_208" transform="matrix(0.000745362 0 0 0.000668675 -0.26347 -0.314931)"/>
    </pattern>
  </defs>
</svg>