<svg width="227" height="108" viewBox="0 0 227 108" fill="none" xmlns="http://www.w3.org/2000/svg">
<g id="Union">
<path d="M89.127 2.14854C93.5693 1.63622 104.437 0.884848 110.728 0.655447C117.024 0.425479 117.568 0.437015 116.76 0.782157C116.332 0.965413 114.581 1.12768 112.868 1.14281C107.464 1.19084 94.6678 2.27374 80.37 3.89335C58.3634 6.3865 52.9815 7.39715 39.9486 11.4825C36.2329 12.6475 33.0197 13.5426 32.8069 13.4722C32.1547 13.2561 52.0115 7.02289 55.8952 6.22462C61.2246 5.12943 66.6537 4.39395 76.0888 3.48939C80.6908 3.04837 86.5584 2.44489 89.127 2.14854Z" fill="#FFA100"/>
<path d="M78.3183 2.56536C78.1891 2.69396 77.8531 2.70795 77.5726 2.596C77.2624 2.47231 77.3544 2.38059 77.8082 2.36206C78.0158 2.35355 78.1769 2.37284 78.2689 2.41085C78.3586 2.44773 78.3821 2.502 78.3183 2.56536Z" fill="#FFA100"/>
<path d="M74.4263 2.95267C74.2971 3.08127 73.9611 3.09527 73.6806 2.98331C73.3704 2.85963 73.4624 2.7679 73.9162 2.74937C74.3259 2.73273 74.5555 2.82407 74.4263 2.95267Z" fill="#FFA100"/>
<path d="M70.8201 3.44098C70.6589 3.43322 70.497 3.4111 70.3556 3.37441C69.9771 3.27607 70.1922 3.18926 70.8345 3.18151C71.4769 3.17375 71.7863 3.25394 71.5232 3.36004C71.3583 3.42661 71.09 3.45403 70.8201 3.44098Z" fill="#FFA100"/>
<path d="M153.823 81.965C153.694 82.0936 153.358 82.1076 153.078 81.9956C152.767 81.8719 152.859 81.7802 153.313 81.7617C153.505 81.7539 153.658 81.7698 153.753 81.8022C153.86 81.8389 153.892 81.8967 153.823 81.965Z" fill="#FFA100"/>
<path fill-rule="evenodd" clip-rule="evenodd" d="M82.5106 5.42521C87.7693 4.80169 92.1995 4.38336 104.306 3.36703C105.162 3.29498 110.241 3.24203 115.593 3.24902C120.944 3.2564 123.96 3.32146 122.293 3.39427C117.642 3.59719 119.076 4.26175 124.275 4.31244C127.757 4.34667 128.46 4.43215 127.269 4.67744C126.413 4.85351 123.139 5.00821 119.994 5.02012C116.257 5.03487 114.184 5.19089 114.01 5.47136C113.824 5.77187 114.13 5.81574 115.035 5.61774C116.173 5.36904 116.259 5.40365 115.754 5.90595C115.347 6.31029 113.88 6.54309 110.716 6.70611C101.35 7.18799 94.2527 7.80414 85.0404 8.93545C79.796 9.57959 75.3301 10.1734 75.1158 10.2551C74.1161 10.6369 77.2191 10.3911 82.8998 9.63802C87.7344 8.99748 91.1064 8.81536 97.979 8.82349C104.139 8.83049 106.753 8.7085 106.575 8.42161C106.411 8.1593 106.566 8.10389 106.998 8.26899C107.372 8.41178 109.283 8.5591 111.246 8.59617C113.208 8.63342 114.07 8.73063 113.16 8.81195C112.25 8.89365 111.506 9.12457 111.506 9.32522C111.506 9.53779 114.556 9.72596 118.804 9.77608C126.084 9.86156 126.088 9.86194 120.36 9.98014C117.203 10.0452 114.62 10.2536 114.62 10.4429C114.62 11.0681 115.53 11.1417 121.625 11.0095C127.814 10.876 128.484 11.005 123.863 11.4407C121.257 11.6866 120.43 12.1932 122.112 12.5155C122.374 12.5658 122.29 12.6182 121.945 12.66C121.655 12.6951 121.183 12.7229 120.578 12.7362C119.253 12.7653 118.06 12.9633 117.928 13.1762C117.796 13.3892 116.515 13.5968 115.083 13.6375C112.723 13.7048 112.826 13.7321 116.176 13.928L119.874 14.1445L113.545 14.4791C103.015 15.0364 105.832 15.7736 117.733 15.5752C119.981 15.5382 121.645 15.5896 121.431 15.6908C120.581 16.0911 105.606 17.2453 99.3435 17.3928C98.3028 17.4178 97.4948 17.62 97.4948 17.8562C97.4948 18.1319 98.1957 18.2006 99.5381 18.0565C100.662 17.936 103.945 17.7442 106.836 17.6304C109.726 17.5165 113.662 17.348 115.584 17.2557C117.838 17.1477 118.874 17.2168 118.503 17.4503C118.186 17.6493 117.534 17.8148 117.052 17.8182C116.57 17.8214 116.176 17.9634 116.176 18.1334C116.176 18.3038 116.833 18.3995 117.636 18.3462C118.28 18.3036 118.629 18.2826 118.712 18.3023C118.807 18.3256 118.533 18.405 117.928 18.572C117.285 18.7494 116.059 18.9124 115.203 18.934C114.008 18.9646 113.783 18.8791 114.23 18.5654C114.463 18.4025 114.514 18.315 114.356 18.2968C114.219 18.2811 113.923 18.3178 113.452 18.4031C112.703 18.5385 110.601 18.7413 108.782 18.8534C107.708 18.9194 106.696 19.0295 106.008 19.1454C105.53 19.226 105.207 19.3094 105.13 19.3829C104.724 19.7672 113.762 19.4779 118.512 18.9542C128.138 17.8938 144.181 17.6419 155.857 18.3685C157.452 18.4682 159 18.4139 159.298 18.2486C159.987 17.8643 151.239 17.4437 141.899 17.4123C136.834 17.3949 134.945 17.2752 135.604 17.0133C136.163 16.7911 142.073 16.6795 150.199 16.7383C157.709 16.793 163.065 16.9596 162.102 17.1086C161.139 17.2578 162.89 17.3244 165.994 17.2567C169.639 17.1772 171.017 17.2434 169.886 17.4433C168.417 17.7032 168.646 17.7431 171.311 17.6903C173.058 17.6559 174.284 17.7563 174.035 17.9135C173.787 18.0706 174.634 18.2195 175.919 18.2439C177.203 18.2679 179.217 18.4328 180.395 18.6102C181.972 18.8481 181.357 18.8876 178.059 18.7613L173.584 18.5898L175.53 19.3056C176.717 19.7425 177.572 19.8756 177.724 19.6475C177.875 19.4209 178.874 19.3888 180.254 19.5654C181.971 19.7854 182.343 19.9344 181.757 20.1693C181.093 20.4348 181.145 20.4849 182.114 20.5082C182.738 20.5228 183.168 20.6158 183.068 20.7145C182.969 20.8132 180.532 20.7126 177.652 20.491C164.839 19.5061 159.309 19.2993 143.226 19.2044C130.882 19.1316 125.449 19.2362 123.766 19.5781C121.719 19.9938 122.775 20.0484 132.328 20.0186C138.322 20 142.263 19.8756 141.085 19.7425C139.289 19.5386 139.57 19.4898 142.837 19.4387C147.774 19.3616 153.578 19.7928 152.55 20.1602C151.816 20.4229 162.263 21.1103 163.854 20.9044C164.137 20.8677 164.503 20.8789 164.81 20.926C164.966 20.9498 165.108 20.9831 165.216 21.0239C165.537 21.1453 167.464 21.3649 169.497 21.5117C171.53 21.6584 174.42 21.8702 175.919 21.9822C179.4 22.243 180.862 22.3355 183.508 22.4614C185.319 22.5476 185.469 22.6067 184.481 22.8436C183.839 22.9978 182.788 23.0624 182.146 22.9874C181.159 22.872 181.219 22.935 182.535 23.3951C184.439 24.0614 184.211 24.1334 181.701 23.6597C179.283 23.2035 171.599 22.8226 173.194 23.2379C174.2 23.5001 174.065 23.5532 172.221 23.6209L170.081 23.6996L172.221 24.2314C173.399 24.5238 175.381 24.7702 176.626 24.7794C177.87 24.7883 179.213 24.9676 179.607 25.1779C180.002 25.3882 181.873 25.6872 183.765 25.8427C186.499 26.0668 186.926 26.1768 185.843 26.3775L184.481 26.6303L186.038 26.7423C187.89 26.8756 188.191 26.8694 188.957 26.6816C189.302 26.5971 189.492 26.7633 189.421 27.0882C189.326 27.5294 189.415 27.5445 189.874 27.1665C190.188 26.907 190.538 26.8461 190.653 27.0309C190.768 27.2157 192.022 27.3989 193.44 27.4379C194.857 27.4767 196.311 27.6576 196.671 27.8396C197.031 28.0217 198.464 28.3873 199.855 28.6518C201.246 28.9164 202.673 29.2865 203.025 29.4741C203.378 29.6619 206.355 30.2724 209.642 30.8305C212.929 31.389 215.88 32.0146 216.201 32.2205C216.556 32.4484 216.548 32.5153 216.132 32.4393C216.044 32.4232 215.937 32.4007 215.812 32.372C215.277 32.2493 213.788 32.0664 212.504 31.9652L210.168 31.7818L212.504 32.5273C213.788 32.9371 215.889 33.4878 217.174 33.7512L219.509 34.2295L218.043 34.4879C217.236 34.6301 214.784 34.704 212.594 34.652C208.328 34.5514 206.715 34.9018 209.585 35.3062C211.157 35.5278 211.088 35.5479 208.916 35.5061C206.184 35.4535 204.935 36.1095 206.509 36.77C207.024 36.9857 210.772 37.7135 214.839 38.3869C222.106 39.5903 223.985 40.0277 223.985 40.5137C223.985 40.6486 223.679 40.6388 223.304 40.4928C222.929 40.3468 221.222 40.1527 219.509 40.0618C217.797 39.9704 215.87 39.7913 215.228 39.664C214.472 39.5137 214.198 39.564 214.45 39.8064C214.664 40.0126 216.24 40.4111 217.952 40.6923C220.96 41.1864 224.644 42.1458 223.736 42.199C223.492 42.2132 221.61 41.8801 219.552 41.4592C214.389 40.4018 207.744 39.7162 205.945 40.0555C204.003 40.4215 204.355 40.7403 206.701 40.7403C207.951 40.7403 208.372 40.8538 207.998 41.0892C207.155 41.6203 208.648 41.5618 209.657 41.0242C210.239 40.7148 210.385 40.7148 210.193 41.0242C210.026 41.2925 210.305 41.4503 210.947 41.4503C211.527 41.4503 211.862 41.6173 211.725 41.8376C211.589 42.0568 211.913 42.2249 212.473 42.2249C214.311 42.2249 227.305 44.8593 226.995 45.1689C226.904 45.2591 225.096 44.9834 222.975 44.5569C220.855 44.1305 218.673 43.78 218.127 43.7776C217.581 43.7757 216.925 43.565 216.668 43.3093C216.411 43.0538 216.201 42.9464 216.201 43.0708C216.201 43.1951 214.931 43.0557 213.379 42.7612C210.001 42.1203 207.778 42.0742 207.428 42.6381C206.935 43.433 207.577 43.6312 211.141 43.7853L212.893 43.861L210.985 44.2235C209.908 44.4283 208.382 44.4468 207.482 44.2657C206.605 44.0894 205.275 44.0406 204.525 44.1575C203.472 44.3222 204.091 44.493 207.249 44.9094C209.497 45.206 211.686 45.5988 212.114 45.7828C212.637 46.0067 212.349 46.0485 211.239 45.9089C210.329 45.7947 209.585 45.8594 209.585 46.0519C209.585 46.5279 210.58 46.8727 211.952 46.8727C212.577 46.8727 213.087 47.0697 213.087 47.3111C213.087 47.6027 213.64 47.6759 214.742 47.5299C216.08 47.3525 216.247 47.392 215.617 47.7364C215.189 47.9703 214.731 48.324 214.599 48.5218C214.456 48.7364 213.109 48.6275 211.258 48.2519C209.496 47.8945 207.835 47.7534 207.411 47.9253C206.842 48.1566 207.081 48.2793 208.417 48.4441L210.168 48.6593L209.001 49.1567C207.605 49.7505 199.177 49.4897 196.793 48.779C196.239 48.6137 195.785 48.5312 195.409 48.5311C195.076 48.5309 194.803 48.5952 194.573 48.7236C194.015 49.0343 194.441 49.1744 196.568 49.3802C198.054 49.5243 199.709 49.8008 200.244 49.9952C201.481 50.4442 194.777 50.0835 191.487 49.5241C189.463 49.1799 184.81 49.037 180.978 49.2011L179.811 49.2512L181.279 49.7879C182.545 50.25 186.579 50.9185 195.573 52.1565C196.751 52.3187 197.364 52.5092 196.936 52.5805C196.029 52.7312 188.3 51.8624 180.784 50.7644C174.813 49.8918 171.832 49.769 171.832 50.3948C171.832 50.6668 171.17 50.7555 169.983 50.6428C168.966 50.5463 168.441 50.5422 168.816 50.6335C169.191 50.7248 169.497 50.9491 169.497 51.1316C169.497 51.3143 169.191 51.5278 168.816 51.6065C168.441 51.685 170.957 51.9681 174.407 52.2363C177.857 52.5039 181.184 52.6126 181.802 52.478C182.573 52.3095 182.758 52.349 182.394 52.6041C181.946 52.9179 181.946 53.0136 182.394 53.2176C182.686 53.3506 181.379 53.3905 179.491 53.3056C176.419 53.1681 176.164 53.2072 177.072 53.6758C177.63 53.9641 179.438 54.2587 181.089 54.3311L184.092 54.4633L180.492 54.5411C178.249 54.5895 176.892 54.7746 176.892 55.0322C176.892 55.189 176.747 55.2731 176.521 55.2718C176.404 55.2713 176.265 55.2478 176.113 55.2C175.685 55.0647 175.335 55.1116 175.335 55.3042C175.335 55.5012 177.159 55.5784 179.519 55.4804C184.577 55.2713 184.641 55.9266 179.616 56.4795L176.308 56.8438L180.325 56.8572C182.536 56.8646 184.448 56.9743 184.575 57.1004C184.702 57.2267 184.295 57.3576 183.671 57.3909C182.952 57.4297 183.25 57.5494 184.481 57.7175L186.427 57.9832L183.972 58.0439C182.254 58.0867 181.598 58.2365 181.789 58.5436C181.989 58.8655 180.574 58.9349 176.468 58.8048C173.394 58.7072 171.136 58.7094 171.451 58.81C171.768 58.9108 172.167 59.2288 172.338 59.5174C172.568 59.9043 173.706 60.0414 176.693 60.0414C178.918 60.0414 180.819 60.1723 180.918 60.3319C181.018 60.4915 179.356 60.5825 177.226 60.5333C174.774 60.4771 173.439 60.5836 173.588 60.8238C173.718 61.0326 175.959 61.2296 178.569 61.2614C181.96 61.3032 182.814 61.397 181.562 61.5907L179.811 61.8619L181.347 61.9199C183.394 61.9973 189.199 62.7486 190.903 63.1566C191.834 63.3793 190.756 63.459 187.497 63.4083C184.874 63.3672 182.685 63.4618 182.632 63.6186C182.578 63.7756 181.361 63.956 179.927 64.0199C178.492 64.0838 177.193 64.2605 177.04 64.4127C176.774 64.6775 177.691 64.7817 180.886 64.8511C181.831 64.8717 182.287 65.0428 182.175 65.3345C182.056 65.645 183.053 65.8674 185.382 66.0482C187.241 66.1927 189.638 66.5416 190.708 66.824C191.779 67.1059 193.355 67.4743 194.211 67.6417L195.768 67.9469L191.876 68.3923L197.714 69.2867L195.184 69.1437C194.442 69.1017 192.985 69.0073 191.275 68.8916C189.783 68.7906 188.099 68.6733 186.528 68.5604C180.333 68.1149 177.576 68.1569 179.616 68.665C180.151 68.7982 181.465 69.0442 182.535 69.2114L184.481 69.5159L178.643 69.9179L182.73 70.2882C186.431 70.6239 186.632 70.6805 184.87 70.8874C183.145 71.0903 183.057 71.1427 184.092 71.3479C184.734 71.4753 183.771 71.499 181.951 71.4003C180.132 71.3017 177.715 71.0447 176.58 70.8285C175.096 70.5462 174.37 70.5585 173.988 70.8734C173.642 71.1593 171.553 71.2906 167.95 71.2522C164.921 71.22 162.336 71.2991 162.207 71.4273C162.134 71.4997 161.787 71.5654 161.302 71.6096C160.927 71.644 160.469 71.6654 159.993 71.6667C158.906 71.6701 157.806 71.8057 157.549 71.968C157.293 72.1302 159.657 72.2969 162.803 72.3375C169.612 72.4266 177.211 72.7774 180.978 73.1768C182.683 73.3576 180.353 73.4329 174.751 73.3779C169.061 73.3217 166.65 73.4011 168.135 73.5952C169.419 73.7631 172.834 73.9344 175.724 73.9759C179.552 74.0309 180.661 74.1463 179.811 74.4016C179.168 74.5935 178.094 74.6501 177.423 74.527C176.7 74.3942 176.092 74.4804 175.931 74.7391C175.733 75.0584 176.851 75.1212 180.071 74.9723C185.313 74.7299 192.144 75.1034 191.826 75.615C191.703 75.8124 191.314 75.8633 190.961 75.7273C189.804 75.2827 177.159 75.4918 176.867 75.9605C176.677 76.2668 176.525 76.2703 176.34 75.9724C176.19 75.7311 174.898 75.565 173.29 75.5798C168.72 75.6223 171.175 76.2958 176.572 76.4806C179.209 76.5708 181.674 76.6561 182.049 76.6704C182.234 76.6772 182.402 76.7289 182.525 76.8066C182.651 76.886 182.73 76.9927 182.73 77.1069C182.73 77.3745 182.119 77.4267 180.978 77.2567C179.794 77.0797 179.227 77.1347 179.227 77.4263C179.227 77.665 178.588 77.8579 177.799 77.8579C177.015 77.8579 176.455 77.9389 176.554 78.0383C176.753 78.2371 178.405 78.4652 182.535 78.8653C183.197 78.9296 183.824 79.0093 184.326 79.0894C184.959 79.1906 185.394 79.2926 185.454 79.365C186.006 80.0339 187.571 80.5729 189.049 80.6031C189.551 80.6134 190.267 80.6676 190.989 80.7444C191.579 80.8074 192.172 80.8857 192.654 80.9676C194.295 81.2465 194.08 81.276 191.292 81.1559C189.016 81.0574 188.348 81.1168 189.152 81.3453C189.878 81.5522 188.793 81.5943 186.274 81.4568C183.167 81.2872 182.295 81.3445 182.518 81.7034C182.678 81.9606 183.036 82.0843 183.315 81.9777C183.469 81.919 183.643 81.9024 183.792 81.9234C183.913 81.9406 184.019 81.983 184.084 82.0482C184.228 82.1935 185.165 82.5176 186.165 82.7691L187.984 83.226L186.233 83.0719C185.269 82.9872 181.813 82.7063 178.552 82.448C175.29 82.1893 172.704 81.8963 172.804 81.7969C172.904 81.6978 174.685 81.6458 176.763 81.6823C178.842 81.7182 180.442 81.6497 180.322 81.5293C180.201 81.4092 176.978 81.2229 173.159 81.1153C169.34 81.0075 166.137 80.8407 166.04 80.7442C165.943 80.6478 166.506 80.5691 167.291 80.5691C168.078 80.5691 168.719 80.3762 168.719 80.1389C168.719 79.5532 166.056 80.0651 165.327 80.7906C165.039 81.0773 164.89 81.2219 165.061 81.3103C165.239 81.4016 165.763 81.4324 166.835 81.4979C167.19 81.5196 167.613 81.6683 167.775 81.8279C167.937 81.9875 168.873 82.1312 169.854 82.1469C170.835 82.1628 172.426 82.3283 173.389 82.515L175.14 82.8542L173.097 82.737C171.974 82.6723 171.054 82.7419 171.054 82.8919C171.054 83.171 176.462 83.6413 180.357 83.7009C182.233 83.7297 182.377 83.7811 181.399 84.072C180.743 84.2671 178.689 84.2575 176.534 84.0487C171.987 83.6084 167.66 83.5653 167.415 83.9581C167.315 84.1177 168.794 84.1928 170.7 84.1242C172.983 84.0425 174.167 84.1418 174.167 84.4146C174.167 84.6429 174.474 84.8322 174.848 84.8354C175.431 84.8404 175.444 84.8961 174.946 85.2169C174.695 85.3782 174.661 85.4788 174.881 85.5359C175.044 85.5779 175.345 85.5965 175.799 85.5984C177.026 85.6035 178.057 86.1476 177.612 86.5551C177.537 86.6236 175.023 86.7631 172.027 86.8645C169.03 86.9661 167.628 86.928 168.913 86.7809L171.248 86.5124L168.404 86.4458C166.44 86.3993 165.641 86.2463 165.825 85.9509C166.009 85.6538 165.49 85.5651 164.128 85.6604C162.961 85.7421 162.193 85.6409 162.231 85.4106C162.322 84.8721 158.044 85.0909 155.043 85.778C153.411 86.1519 147.319 86.3153 147.117 85.9911C147.01 85.8179 148.631 85.5643 150.717 85.4268C155.216 85.1312 156.54 84.9546 154.805 84.8822C154.109 84.8532 153.54 84.6736 153.54 84.4829C153.54 84.2904 152.964 84.2656 152.244 84.4275C151.531 84.5875 150.261 84.6758 149.422 84.6242C148.583 84.5724 147.768 84.728 147.61 84.9701C147.427 85.2542 147.322 85.18 147.319 84.7609C147.316 84.4039 147.619 84.0177 147.994 83.9031C148.368 83.7885 147.361 83.7781 145.756 83.8798C144.15 83.9818 141.173 84.1673 139.139 84.2919C137.106 84.4167 135.383 84.5754 135.309 84.6448C135.237 84.7142 136.665 84.8277 138.484 84.8969C140.303 84.9663 141.71 84.8924 141.611 84.7327C141.51 84.5731 141.614 84.4423 141.841 84.4423C141.998 84.4423 142.136 84.5669 142.205 84.7488C142.235 84.8286 142.253 84.9196 142.253 85.0159C142.253 85.469 141.865 85.5488 140.404 85.3962C139.059 85.2557 138.768 85.3033 139.334 85.5713C139.879 85.8296 138.888 85.9354 136.026 85.9238C132.245 85.9087 127.853 86.4339 121.041 87.7159C118.594 88.1764 118.475 88.2383 119.874 88.3232L121.431 88.4174L120.068 88.6702C118.792 88.9072 118.769 88.9363 119.706 89.133C120.256 89.2485 121.044 89.2113 121.457 89.0501C122.398 88.6834 125.74 88.6097 125.384 88.9637C125.241 89.1074 124.73 89.2608 124.249 89.3055L120.847 89.6171C120.056 89.6894 119.064 89.7835 118.159 89.8719C117.471 89.939 116.833 90.0027 116.371 90.051C115.966 90.0931 115.425 90.145 114.835 90.1987C113.865 90.2868 112.76 90.3804 111.895 90.4464C108.247 90.7237 105.948 91.0747 105.279 91.4554C105.052 91.5847 105.088 91.6467 105.357 91.638C105.514 91.6329 105.749 91.6038 106.057 91.5499C107.125 91.3629 107.323 91.4143 106.972 91.788C106.719 92.0581 105.201 92.3291 103.47 92.4129C101.789 92.4942 99.1877 92.792 97.6894 93.0748C96.1911 93.3575 94.1767 93.5557 93.2136 93.5154C92.2505 93.4748 90.889 93.6104 90.1889 93.8165C89.7252 93.9527 89.07 94.0979 88.4793 94.201C88.1775 94.2537 87.8925 94.2955 87.6591 94.3196C84.7751 94.6152 77.6942 96.2181 77.7641 96.5599C77.8059 96.7628 77.1393 97.1635 76.2834 97.4506L74.7265 97.972L76.0888 97.8309C76.8383 97.7536 78.5882 97.403 79.9785 97.0521C81.368 96.7011 83.032 96.4668 83.6759 96.5315C84.5242 96.6168 84.0963 96.793 82.1214 97.173C80.6231 97.461 78.8884 97.9391 78.2666 98.2349C77.8523 98.4321 77.3012 98.6056 76.8276 98.6992C76.5905 98.7461 76.3731 98.7729 76.2013 98.7729C75.6866 98.7729 74.5312 98.9386 73.6342 99.141C70.9075 99.756 63.7081 101.097 63.1684 101.091C62.802 101.087 62.824 100.978 63.2451 100.699C64.1505 100.102 60.8347 100.503 57.2125 101.429C55.4999 101.867 51.8488 102.93 49.0978 103.792C44.6091 105.197 43.6825 105.49 43.199 105.153C43.0698 105.063 42.9725 104.929 42.8471 104.759C42.4548 104.225 42.21 104.247 40.5818 104.964C39.4324 105.47 38.3933 105.676 37.7753 105.522L36.7932 105.277L37.662 104.555C38.838 103.579 38.0657 103.621 36.4138 104.623C34.5484 105.755 33.317 105.94 33.4454 105.07C33.5002 104.697 33.7913 104.382 34.0923 104.369C35.2782 104.317 36.0368 103.737 35.6012 103.214C35.2835 102.833 35.3884 102.646 36.0315 102.443C36.6708 102.241 36.7536 102.095 36.3652 101.856C36.0809 101.681 35.5328 101.707 35.1467 101.912C33.8133 102.622 34.4519 102 36.7795 100.322C38.0641 99.3961 39.1147 98.5793 39.1147 98.5068C39.1147 98.4344 38.4579 98.6606 37.6552 99.0095C37.2379 99.1907 36.7415 99.3757 36.2854 99.5245C35.865 99.6618 35.4796 99.7683 35.2227 99.8129C34.6868 99.9061 34.4602 99.9385 34.5119 99.8598C34.5484 99.804 34.724 99.6924 35.0281 99.5073C35.456 99.2463 35.8939 98.9216 36.0011 98.7862C36.1083 98.6506 37.0714 98.2035 38.1417 97.7925C39.6582 97.2108 39.8946 97.0168 39.212 96.9143C38.2299 96.7666 38.1143 96.4373 38.803 95.7519C39.4271 95.1311 39.2226 95.1585 36.6328 96.0451C35.415 96.4623 34.5226 96.6365 34.6488 96.4324C34.7757 96.2287 34.6647 96.0617 34.4025 96.0617C33.9342 96.0617 34.2603 95.514 34.7681 95.4463C34.911 95.4272 35.9038 95.0066 36.9741 94.5121C39.1466 93.5073 38.8996 93.1336 36.4283 93.6864C35.6712 93.8555 35.2759 93.9254 35.136 93.8778C35.0167 93.8373 35.0828 93.7115 35.2683 93.4891C35.526 93.1805 35.9653 93.0154 36.2458 93.1224C36.5256 93.2293 36.8593 93.1472 36.9885 92.9399C37.117 92.7327 37.3868 92.6642 37.5875 92.7877C37.789 92.9112 38.258 92.7064 38.6312 92.3319C39.2758 91.6838 39.2713 91.6653 38.5309 91.9469C38.3446 92.0176 38.0786 92.1018 37.7867 92.1844C37.4074 92.292 36.9847 92.397 36.6381 92.4666C35.5853 92.6778 35.5488 92.6421 35.9866 91.8283C36.2542 91.33 36.6814 91.0548 36.9992 91.176C37.7281 91.4546 37.5305 90.5304 36.7795 90.1493C36.4176 89.9653 36.5651 89.9212 37.1687 90.0328C37.7038 90.1319 38.8425 89.8705 39.6985 89.4515C40.5544 89.0327 40.933 88.7806 40.5377 88.8917C37.5807 89.7232 37.9843 89.3595 41.4081 88.1081C41.7061 87.999 41.8649 87.825 41.7608 87.7212C41.6566 87.6174 40.8699 87.7789 40.0124 88.08C38.2154 88.7109 36.8783 88.2874 37.9813 87.4366C38.3211 87.1745 38.5278 86.7495 38.4412 86.4919C38.3538 86.2347 38.9512 85.7391 39.7692 85.3899C41.1732 84.7908 41.2074 84.7373 40.3811 84.4186C39.7654 84.1803 38.9801 84.3059 37.7221 84.8428C35.6909 85.7088 35.6119 85.7251 35.6119 85.2757C35.6119 85.0949 36.3188 84.6301 37.1824 84.2424C37.6825 84.0181 38.2732 83.6848 38.784 83.3505C39.155 83.1077 39.4834 82.8643 39.703 82.6613C40.2253 82.1791 42.0557 81.1191 43.7684 80.3053C46.8645 78.8358 47.9834 77.909 45.7113 78.6976C45.3145 78.8353 44.9314 78.9274 44.6684 78.9559C44.4989 78.9743 44.3795 78.9661 44.34 78.9268C44.2397 78.8262 45.1678 78.4349 46.4031 78.0574C49.0226 77.2571 49.9135 76.6472 48.1362 76.8711C46.6091 77.0634 42.9215 78.416 41.6323 79.2572C41.104 79.6016 40.6715 79.7996 40.6715 79.6969C40.6715 78.8103 49.674 74.7047 55.8503 72.774C58.0981 72.0714 59.9955 71.3583 60.0677 71.189C60.1391 71.0197 60.3504 70.9753 60.5367 71.0899C60.7229 71.2045 61.4823 71.0462 62.2227 70.738C62.9646 70.4295 63.6434 70.2498 63.7324 70.3382C63.8213 70.4265 63.8943 70.2375 63.8943 69.9179C63.8943 69.1166 63.3858 69.1881 60.9099 70.3408C58.3003 71.5555 50.796 74.1192 50.5543 73.8783C50.3331 73.6587 56.3011 71.2735 57.0719 71.2735C57.3858 71.2735 58.5093 70.8448 59.569 70.3208C62.8841 68.6792 64.8407 68.1122 65.4496 68.6153C65.5895 68.7305 65.7422 68.811 65.8791 68.8496C66.0319 68.8931 66.1656 68.8837 66.2386 68.8114C66.3762 68.6743 66.2402 68.5612 65.9376 68.5601C65.7514 68.5589 65.7734 68.4612 65.9589 68.3129C66.076 68.2187 66.2592 68.1041 66.4963 67.981C66.8171 67.8148 67.1577 67.6954 67.4412 67.6394C67.6989 67.5888 67.9095 67.5903 68.0166 67.6561C68.2546 67.8028 68.3093 67.7215 68.1474 67.4603C67.8334 66.9554 67.8395 66.9535 70.2918 66.8224C71.2777 66.7702 72.4157 66.5168 72.8216 66.2598C73.4776 65.8441 73.4814 65.8167 72.8573 66.0111C72.4484 66.1386 72.2553 66.0703 72.3944 65.8468C72.7456 65.2806 71.9018 65.3836 69.144 66.2439C67.7863 66.6676 66.5161 66.9162 66.3222 66.7969C66.1284 66.6776 65.9695 66.737 65.9695 66.9291C65.9695 67.1207 64.8749 67.5812 63.537 67.9519C60.9616 68.6658 57.6511 69.827 55.5668 70.7472C54.875 71.0525 53.6223 71.5434 52.7816 71.8386C51.9416 72.1338 49.9956 72.9247 48.4578 73.5967C46.9192 74.2686 45.5813 74.7399 45.4856 74.644C45.1937 74.3539 57.6496 69.0824 61.2991 67.9515C62.2622 67.6529 63.4443 67.407 63.9262 67.4045C64.4082 67.4023 64.8019 67.2122 64.8019 66.9824C64.8019 66.7171 64.3648 66.6598 63.6062 66.8257C62.453 67.0778 62.4333 67.0604 63.0574 66.3357C63.6974 65.5917 65.8175 65.5429 65.3584 66.2825C65.2018 66.5346 65.1736 66.642 65.4921 66.5779C65.7491 66.5261 66.231 66.3629 67.0528 66.0743C67.651 65.8644 68.228 65.7348 68.5723 65.7203C68.7251 65.7138 68.8323 65.7303 68.8749 65.7725C68.9402 65.8377 69.033 65.8445 69.1318 65.8027C69.2405 65.7566 69.356 65.6514 69.4495 65.5009C69.6274 65.2144 70.2743 64.9808 70.8877 64.9819C71.5004 64.9835 72.1139 64.8089 72.2507 64.5935C72.3868 64.3785 72.7121 64.334 72.9729 64.4944C73.3385 64.7191 73.3408 64.8514 72.9835 65.071C72.8094 65.1784 72.7691 65.2773 72.8642 65.3685C72.9379 65.4394 73.0937 65.5056 73.3324 65.5676C73.5278 65.6185 73.6927 65.6406 73.8083 65.6363C73.9557 65.6306 74.0211 65.5814 73.9664 65.4933C73.9177 65.4148 74.1542 65.2853 74.5745 65.1395C74.9979 64.9927 75.6076 64.8295 76.3008 64.6856C77.6828 64.3987 78.8132 64.0206 78.8132 63.8455C78.8132 63.4489 78.9713 63.4289 76.7083 64.1124C74.4848 64.7837 73.3643 64.8471 73.3643 64.3019C73.3643 64.0889 73.6943 63.9146 74.0979 63.9146C74.5015 63.9146 75.4213 63.66 76.1412 63.3487C78.7721 62.2119 74.6832 63.1104 69.1417 64.887C66.9562 65.5873 65.7635 65.8008 65.4998 65.5381C65.0832 65.1238 74.8611 61.8694 80.3684 60.5895C81.9731 60.2165 83.0472 59.8319 82.7553 59.735C82.4634 59.6382 81.2381 59.83 80.0324 60.1607C78.8261 60.4919 76.7896 60.962 75.505 61.206C74.2203 61.45 71.2184 62.2463 68.8338 62.9758C66.4492 63.705 64.3474 64.289 64.1634 64.2735C63.0908 64.1829 77.5452 59.7827 83.289 58.4519C85.0016 58.0549 87.1034 57.5216 87.9594 57.2667C88.4094 57.1328 88.8693 57.0208 89.2395 56.9508C89.574 56.8875 89.8347 56.8582 89.9472 56.8774C90.1851 56.9181 90.9726 56.6949 91.6986 56.3812C92.4253 56.0678 92.7529 55.8046 92.4283 55.7961C91.4675 55.7713 84.1685 57.4877 76.9439 59.4372C73.2404 60.4368 70.0174 61.1905 69.7825 61.1124C69.3773 60.9779 73.223 59.8536 82.8998 57.2774C86.1935 56.4007 98.765 53.8444 99.7829 53.8444C99.8566 53.8444 99.8665 53.7906 99.8171 53.7154C99.8011 53.6915 99.7798 53.6655 99.7525 53.6382C99.3929 53.28 87.1369 55.6086 78.6186 57.6536C74.6505 58.6064 71.8691 59.3946 66.6575 61.0437C62.1938 62.4563 61.5469 62.5937 62.4667 61.9354C62.9388 61.5977 62.9015 61.5666 62.2721 61.7735C61.8442 61.9141 60.355 62.3867 58.9639 62.8232C57.5728 63.2596 56.2388 63.8595 56.0001 64.1559C55.7614 64.4522 54.8857 64.7646 54.0541 64.8503C53.2224 64.9364 51.9294 65.2934 51.1799 65.6439C50.4228 65.9979 50.2061 66.2016 50.6934 66.1021C51.991 65.8375 51.7569 66.1501 50.1598 66.8143C48.3886 67.5502 48.1013 67.5549 49.0621 66.8317C50.3916 65.8309 48.98 66.1923 44.5483 67.9876C42.172 68.95 40.0702 69.6397 39.8771 69.521C39.684 69.402 39.1268 69.5499 38.6388 69.8493C37.8315 70.3455 36.2808 70.7998 33.0821 71.4768C32.6929 71.5591 32.3219 71.6217 32.0718 71.6505C31.9084 71.6692 31.7959 71.6733 31.7632 71.6593C31.6803 71.6236 31.469 71.8258 31.2934 72.1085C31.2037 72.2532 31.0403 72.3846 30.8502 72.4788C30.6693 72.5688 30.4641 72.6246 30.2771 72.6256C29.8932 72.6276 29.6173 72.8306 29.6644 73.0764C29.7108 73.3225 29.4835 73.6256 29.1574 73.7501C28.8206 73.8787 28.6678 73.8108 28.8039 73.5931C29.1597 73.0195 28.7408 73.1318 28.0833 73.7856C27.3535 74.5118 14.3807 80.7934 12.9409 81.1176C11.9869 81.332 11.8706 81.2496 11.8706 80.3573C11.8706 79.8068 12.0576 79.0087 12.2857 78.5841C12.6049 77.991 12.5821 77.828 12.1884 77.8808C10.96 78.0457 10.703 77.8048 10.703 76.4902C10.703 75.6339 10.9204 75.0395 11.2845 74.9003C11.6046 74.7779 11.7733 74.5285 11.6593 74.3458C11.546 74.1625 11.8273 73.6407 12.2834 73.1865C12.8201 72.6528 13.0519 72.0365 12.9394 71.4487C12.8429 70.9469 12.8695 70.5492 12.9987 70.564C13.7163 70.6457 14.1481 70.4323 14.3563 69.8928C14.538 69.4213 14.4096 69.3432 13.7809 69.5418C13.4183 69.6562 13.2275 69.6969 13.1773 69.6186C13.1279 69.5425 13.21 69.354 13.394 69.0117C13.9732 67.9348 13.9276 67.7699 13.1355 68.0693C12.744 68.2172 12.9333 67.883 13.5817 67.2826C14.2013 66.7082 14.5076 66.2384 14.2628 66.2384C13.5658 66.2384 13.7399 65.4668 14.4977 65.1977C15.7816 64.7421 16.2484 64.2147 15.6836 63.858C15.4061 63.6825 15.004 63.5392 14.7896 63.5392C14.5753 63.5392 14.6634 63.708 14.9842 63.9146C15.1499 64.0208 15.2488 64.118 15.2746 64.1876C15.2989 64.2531 15.2586 64.2943 15.1469 64.296C14.9143 64.2992 14.5958 64.1733 14.4377 64.0165C14.1321 63.712 13.939 63.6783 11.9694 63.5861C11.1454 63.5477 10.196 63.0771 9.24504 62.2363C8.44155 61.526 7.47767 60.8346 7.10291 60.699C6.16032 60.3586 6.25154 59.5607 7.35149 58.5328C7.94441 57.9781 8.20894 57.389 8.08124 56.9045C7.94213 56.3751 8.48564 55.4547 9.87673 53.8633C10.9729 52.6085 11.8706 51.3062 11.8706 50.9701C11.8706 50.6169 12.199 50.3585 12.649 50.3585C13.1857 50.3585 13.4274 50.1002 13.4274 49.5277C13.4274 49.071 13.7763 48.3302 14.2028 47.8816C17.0192 44.9217 18.427 43.6308 19.3757 43.1397C19.9709 42.8314 20.3737 42.4429 20.2704 42.2763C20.2164 42.1895 20.3852 42.0055 20.6983 41.7824C20.9849 41.5775 21.3931 41.3396 21.8614 41.1133C22.8405 40.6401 23.5421 40.155 23.422 40.0355C23.1126 39.727 19.8356 41.6254 19.9161 42.066C19.9785 42.4064 10.2021 47.0637 5.12346 49.1126C2.7168 50.0835 1.12123 50.0323 2.16873 49.0173C2.47431 48.7213 5.0885 47.44 7.97862 46.1705C15.9055 42.6869 17.7086 41.8368 17.7086 41.5842C17.7086 41.0374 15.2176 41.9473 10.2963 44.2912C4.50926 47.0478 4.23028 47.1407 3.14553 46.6735C2.65371 46.4621 1.98933 46.5748 1.19953 47.0039L0 47.6558L1.08475 46.7537C1.70731 46.2363 2.07979 45.615 1.95741 45.2971C1.80461 44.8977 3.18962 44.0177 6.90527 42.1547C9.74294 40.7318 13.2381 39.1046 14.6726 38.5388C16.1062 37.9733 17.5049 37.2405 17.7801 36.9101C18.1001 36.5267 17.5809 36.6623 16.3404 37.2866C15.2731 37.8237 13.2617 38.7355 11.8706 39.3127C10.4795 39.8898 8.81555 40.5881 8.17322 40.8646C6.11015 41.7527 5.70955 41.8024 5.23065 41.2286C4.87033 40.7965 4.6362 40.7698 4.2204 41.1133C4.00907 41.2876 3.78102 41.3958 3.62823 41.4062C3.56514 41.4104 3.51497 41.3981 3.4838 41.3671C3.37662 41.2604 4.47581 40.5249 5.92619 39.7333C8.59814 38.2734 8.53277 38.2604 5.06493 39.5606C3.84336 40.0188 3.14097 40.2492 2.95169 40.253C2.80802 40.256 2.95929 40.1285 3.40247 39.8715C4.01667 39.5152 4.0258 39.394 3.49521 38.5883C2.92889 37.7278 2.97526 37.6581 4.93342 36.4469C6.24698 35.6339 6.79201 35.0936 6.48795 34.9066C6.18236 34.7188 6.73348 34.1571 8.06907 33.2953C9.47461 32.3886 9.9117 31.9327 9.45864 31.8457C9.22604 31.8009 8.87332 31.8396 8.53505 31.9348C8.34425 31.9883 8.15725 32.0596 7.99914 32.1439C7.55977 32.3779 7.20021 32.4656 7.20021 32.3391C7.20021 32.1503 10.8953 30.3363 16.9302 27.5627L17.9032 27.1152L16.9302 27.3295C16.0827 27.5162 16.0485 27.4871 16.6619 27.1056C17.0496 26.8647 17.6281 26.7671 17.9473 26.8891C18.148 26.9657 18.2719 26.9779 18.316 26.9284C18.354 26.8855 18.3327 26.7962 18.2491 26.6621C18.0606 26.3597 18.1875 26.2966 18.6383 26.4685C19.0055 26.6088 19.2077 26.5653 19.0876 26.3716C18.8443 25.9794 21.2517 25.0603 22.7872 24.9595C23.3323 24.9235 25.2593 24.1741 27.0685 23.2941C30.5386 21.6062 29.84 21.5449 25.298 23.1392C24.5668 23.396 23.7747 23.6623 23.0814 23.8868C22.354 24.1223 21.7344 24.3118 21.406 24.3963C20.7637 24.5614 18.8588 25.329 17.1735 26.1018C15.4882 26.8749 13.8493 27.5069 13.5323 27.5069C13.2153 27.5069 12.0736 27.9485 10.9934 28.4884C8.63691 29.6661 7.50808 29.5373 9.73002 28.344C10.96 27.6835 11.0641 27.5568 10.2264 27.7405L9.16674 27.9733L9.78551 26.7385C10.4567 25.3988 12.1154 24.5175 18.8762 21.9067C21.7002 20.8165 27.2828 18.6106 27.6827 18.4275C27.7093 18.415 27.8484 18.0266 27.9905 17.5642C28.2414 16.7523 28.138 16.7674 25.0229 17.9933C23.2479 18.6915 20.6816 19.7339 19.3209 20.3091C17.9595 20.8842 16.763 21.2722 16.6611 21.1712C15.942 20.4554 35.9471 13.2561 45.1473 10.9189C55.7903 8.21585 57.8853 7.86144 69.6669 6.77439C73.3058 6.43851 79.0853 5.83163 82.5106 5.42521ZM103.248 6.48882C102.239 6.56825 100.488 6.569 99.3564 6.49033C98.2261 6.41222 99.0516 6.34717 101.192 6.34584C103.333 6.34509 104.259 6.40901 103.248 6.48882ZM80.2643 11.0863C80.1351 11.2149 79.7991 11.2289 79.5186 11.1169C79.2084 10.9932 79.3004 10.9015 79.7542 10.883C80.164 10.8664 80.3935 10.9577 80.2643 11.0863ZM68.5852 12.7541C67.0862 12.6932 69.73 12.0812 73.1697 11.6928C76.9371 11.2671 78.2172 11.1886 78.0028 11.3965C77.7702 11.6204 69.6183 12.7959 68.5852 12.7541ZM162.686 18.5987C160.964 19.0348 160.156 19.0348 160.156 18.5987C160.156 18.3857 160.988 18.2318 162.005 18.2571C163.655 18.2982 163.728 18.3348 162.686 18.5987ZM169.02 19.2676C168.224 19.3508 166.823 19.3519 165.907 19.2698C164.991 19.1881 165.644 19.1201 167.356 19.1187C169.069 19.1172 169.818 19.1842 169.02 19.2676ZM16.6429 38.6044C16.6763 38.5395 16.7729 38.4529 16.9302 38.3517C17.6782 37.8706 17.8128 37.8706 17.514 38.3517C17.3818 38.5647 17.0648 38.7364 16.8101 38.7332C16.6566 38.7311 16.6018 38.684 16.6429 38.6044ZM14.4232 39.8885C14.1967 39.8821 14.351 39.6205 14.7668 39.3075C14.9629 39.1602 15.1834 39.0267 15.3848 38.9274C15.6114 38.816 15.8143 38.7478 15.9344 38.7514C16.161 38.758 16.0066 39.0195 15.5908 39.3323C15.175 39.6449 14.6498 39.8955 14.4232 39.8885ZM13.4274 44.6046C13.4274 44.4276 14.6095 43.7342 16.0545 43.0638C19.0374 41.6795 19.267 41.6163 18.4734 42.4C17.7208 43.1421 13.4274 45.0178 13.4274 44.6046ZM200.049 44.3833C198.551 44.239 197.15 43.9345 196.936 43.7072C196.661 43.4146 197.329 43.3517 199.209 43.4918C200.674 43.6009 202.075 43.9054 202.323 44.1685C202.679 44.5458 202.201 44.591 200.049 44.3833ZM187.984 46.8727C188.264 47.3243 187.153 47.3313 184.676 46.8923L182.924 46.5822L185.334 46.5338C186.659 46.5071 187.852 46.6597 187.984 46.8727ZM190.07 47.6473C189.137 47.6473 188.618 47.4936 188.762 47.26C189.135 46.6597 191.398 46.8265 192.265 47.518C192.949 48.0637 192.957 48.1089 192.331 47.8932C191.938 47.7581 190.921 47.6473 190.07 47.6473ZM194.062 48.0346C193.849 48.0346 193.565 47.8603 193.433 47.6473C193.301 47.4344 193.367 47.26 193.582 47.26C193.795 47.26 194.079 47.4344 194.211 47.6473C194.343 47.8603 194.277 48.0346 194.062 48.0346ZM199.076 48.5594C198.327 48.4227 197.641 48.2483 197.551 48.1725C197.166 47.844 199.327 48.083 199.855 48.4274C200.265 48.6954 200.035 48.7346 199.076 48.5594ZM190.408 48.6559C190.279 48.7845 189.943 48.7985 189.662 48.6865C189.352 48.5628 189.444 48.4711 189.898 48.4526C190.066 48.4458 190.204 48.4571 190.299 48.4815C190.435 48.5169 190.484 48.5799 190.408 48.6559ZM207.935 49.0753C207.563 49.1722 206.862 49.1756 206.378 49.0831C206.115 49.0326 206.085 48.9859 206.251 48.9534C206.39 48.9261 206.666 48.9087 207.055 48.9068C207.911 48.9025 208.308 48.9785 207.935 49.0753ZM139.049 52.1847C138.464 52.273 137.413 52.2745 136.714 52.1886C136.014 52.1022 136.492 52.0298 137.777 52.0279C139.062 52.0254 139.634 52.096 139.049 52.1847ZM142.939 52.1739C142.567 52.2707 141.866 52.2741 141.382 52.1816C140.898 52.089 141.202 52.0097 142.058 52.0054C142.914 52.001 143.311 52.077 142.939 52.1739ZM171.292 54.1814C171.189 54.173 171.081 54.149 170.981 54.1089C170.671 53.9852 170.763 53.8935 171.216 53.875C171.626 53.8583 171.856 53.9497 171.726 54.0783C171.644 54.1608 171.476 54.1961 171.292 54.1814ZM175.229 54.4656C175.1 54.5942 174.764 54.6082 174.484 54.4963C174.173 54.3726 174.265 54.2808 174.719 54.2623C175.129 54.2457 175.359 54.337 175.229 54.4656ZM10.3556 55.8034C9.32257 56.6598 8.75854 56.5191 9.52782 55.5965C9.65172 55.4483 9.82428 55.3134 10.009 55.2115C10.2279 55.0903 10.4636 55.0154 10.6529 55.0192C11.1432 55.0292 11.0755 55.207 10.3556 55.8034ZM170.997 55.1896C171.125 55.2162 171.058 55.2499 170.762 55.2864C170.066 55.3722 168.928 55.3722 168.232 55.2864C167.708 55.2217 167.902 55.1657 168.627 55.1423C168.863 55.1345 169.155 55.1302 169.497 55.1302C170.296 55.1302 170.823 55.1534 170.997 55.1896ZM173.389 55.9273C172.574 56.1225 172.606 56.0695 173.584 55.6009C174.959 54.9416 175.236 54.8811 174.731 55.3503C174.528 55.5392 173.924 55.7987 173.389 55.9273ZM173.278 57.1827C172.981 57.4781 169.887 57.4595 169.586 57.1602C169.466 57.0408 170.301 56.9429 171.443 56.9429C172.585 56.9429 173.41 57.0505 173.278 57.1827ZM7.49212 60.4125C6.96 60.4423 7.18957 59.1455 7.84407 58.4259C9.00863 57.1454 9.57723 57.5959 8.64147 59.0568C8.17018 59.7931 7.65251 60.4032 7.49212 60.4125ZM167.162 57.8228C168.125 57.8228 168.519 57.8983 168.037 57.991C167.555 58.0831 166.768 58.0831 166.286 57.991C165.804 57.8983 166.199 57.8228 167.162 57.8228ZM177.476 58.4415C175.549 58.4626 173.75 58.3395 173.478 58.168C173.206 57.9959 174.519 57.9216 176.397 58.0025C181.159 58.2079 181.619 58.3953 177.476 58.4415ZM87.6591 58.7261C87.5299 58.8547 87.1939 58.8687 86.9134 58.7567C86.7431 58.6888 86.6937 58.6306 86.7591 58.5888C86.8131 58.5544 86.9446 58.5311 87.149 58.5228C87.5588 58.5061 87.7883 58.5975 87.6591 58.7261ZM101.776 59.328C102.311 59.328 102.53 59.4158 102.263 59.5232C101.995 59.6308 101.557 59.6308 101.29 59.5232C101.115 59.4532 101.147 59.3916 101.339 59.3572C101.442 59.3386 101.59 59.328 101.776 59.328ZM94.7704 60.816C93.2774 61.2917 92.9536 61.2544 92.9536 60.6057C92.9536 60.4535 92.9939 60.3377 93.0661 60.2648C93.1634 60.1672 93.317 60.1465 93.5047 60.2184C93.6476 60.2731 93.8635 60.327 94.0999 60.3707C94.3645 60.4196 94.6548 60.4561 94.8996 60.4675C95.6757 60.5027 95.6651 60.531 94.7704 60.816ZM172.894 60.6627C172.765 60.7913 172.429 60.8053 172.148 60.6933C171.838 60.5696 171.93 60.4779 172.384 60.4594C172.794 60.4427 173.023 60.5341 172.894 60.6627ZM86.3129 62.6193C86.0491 62.7256 85.5238 62.732 85.1453 62.6337C84.7667 62.5353 84.9818 62.4485 85.6242 62.4408C86.1046 62.4349 86.3995 62.4784 86.4071 62.545C86.4094 62.5675 86.379 62.5926 86.3129 62.6193ZM95.5374 62.7023C95.3648 62.7014 95.193 62.6745 95.0623 62.6217C94.8943 62.5542 94.9179 62.4946 95.0912 62.4595C95.1946 62.4387 95.3496 62.4266 95.5488 62.4266C96.0839 62.4266 96.3029 62.5143 96.0353 62.6217C95.8985 62.6766 95.7175 62.7034 95.5374 62.7023ZM74.6559 66.8779C74.5228 66.7458 78.5593 65.585 81.343 64.9553C81.5862 64.9002 81.9465 64.8499 82.3099 64.8165C82.5858 64.7909 82.8633 64.775 83.0944 64.7739C83.7131 64.7709 83.5003 64.9036 82.5106 65.1382C81.6546 65.3411 79.5726 65.8511 77.8842 66.2714C76.1959 66.692 74.7433 66.9647 74.6559 66.8779ZM73.6479 67.247C73.5187 67.3756 73.1827 67.3896 72.9022 67.2777C72.592 67.154 72.684 67.0622 73.1378 67.0437C73.5475 67.0271 73.7771 67.1184 73.6479 67.247ZM71.1036 68.1692C70.5366 68.1639 70.5259 68.1111 71.0291 67.7877C71.7908 67.2973 72.3062 67.2973 72.0021 67.7877C71.9109 67.9343 71.6912 68.0612 71.4457 68.1251C71.334 68.154 71.2169 68.1701 71.1036 68.1692ZM68.4476 69.1081C67.9277 69.2661 67.5461 69.1722 67.4245 68.8566C67.2861 68.4984 67.6829 68.3413 68.8004 68.3121C70.3313 68.2722 70.1968 68.5767 68.4476 69.1081ZM149.258 72.3523C146.187 72.3205 145.89 72.2689 147.507 72.0482C148.086 71.9693 149.043 71.8959 150.088 71.8437C150.976 71.7993 151.926 71.7704 152.761 71.7662C155.474 71.753 155.789 71.8076 154.513 72.0703C153.657 72.2464 151.292 72.3735 149.258 72.3523ZM144.093 72.2821C143.964 72.4107 143.628 72.4247 143.348 72.3128C143.037 72.1891 143.129 72.0973 143.583 72.0788C143.993 72.0622 144.222 72.1535 144.093 72.2821ZM156.264 72.9126C157.014 72.9126 157.32 72.9924 156.945 73.0897C156.57 73.1872 155.958 73.1872 155.583 73.0897C155.208 72.9924 155.515 72.9126 156.264 72.9126ZM170.574 74.6489C169.99 74.7373 168.938 74.7388 168.239 74.6529C167.54 74.5665 168.018 74.494 169.302 74.4922C170.078 74.4906 170.594 74.5158 170.752 74.5553C170.856 74.5814 170.806 74.6138 170.574 74.6489ZM162.173 80.4479C162.068 80.3783 161.971 80.2845 161.908 80.1818C161.775 79.9688 161.94 79.7945 162.274 79.7945C162.608 79.7945 162.881 79.9688 162.881 80.1818C162.881 80.3947 162.716 80.5691 162.514 80.5691C162.41 80.5691 162.286 80.5224 162.173 80.4479ZM171.726 80.0284C171.597 80.157 171.261 80.171 170.981 80.0591C170.671 79.9354 170.763 79.8437 171.216 79.8251C171.626 79.8085 171.856 79.8998 171.726 80.0284ZM178.449 79.9106C179.626 79.9106 180.107 79.983 179.519 80.0717C178.93 80.1604 177.967 80.1604 177.378 80.0717C176.79 79.983 177.271 79.9106 178.449 79.9106ZM185.649 80.4893C185.006 80.4959 183.605 80.3654 182.535 80.1996L180.589 79.8979L182.535 79.8921C183.605 79.889 185.006 80.0192 185.649 80.1818L186.816 80.4774L185.649 80.4893ZM163.637 80.7949C163.577 80.7312 163.517 80.6531 163.464 80.5691C163.332 80.3562 163.41 80.1818 163.636 80.1818C163.761 80.1818 163.873 80.2346 163.948 80.3174C164.01 80.3851 164.048 80.4732 164.048 80.5691C164.048 80.7821 163.971 80.9564 163.876 80.9564C163.819 80.9564 163.729 80.8925 163.637 80.7949ZM154.517 81.4871C155.101 81.4629 155.486 81.3884 155.486 81.2787C155.486 81.1017 155.661 80.9564 155.875 80.9564C156.089 80.9564 156.264 81.1535 156.264 81.3941C156.264 81.6823 156.849 81.7662 157.979 81.6393C158.922 81.5334 159.93 81.5962 160.217 81.7787C160.583 82.0111 160.448 82.1021 159.767 82.0815C159.232 82.0652 156.955 82.145 154.707 82.2585C152.46 82.372 151.059 82.365 151.594 82.2434C152.219 82.1012 152.424 82.0412 152.26 81.9162C152.183 81.8574 152.024 81.784 151.788 81.6808C151.258 81.4479 151.723 81.381 153.248 81.4705C153.718 81.4977 154.156 81.502 154.517 81.4871ZM161.713 81.405C162.248 81.405 162.467 81.4928 162.199 81.6002C161.932 81.7078 161.494 81.7078 161.226 81.6002C160.959 81.4928 161.178 81.405 161.713 81.405ZM149.258 82.1184C148.492 82.6114 147.59 82.6114 147.896 82.1184C148.029 81.9054 148.52 81.7337 148.989 81.7369C149.683 81.7418 149.733 81.8131 149.258 82.1184ZM45.1473 82.893C44.0777 83.3505 43.4628 83.3505 44.1743 82.893C44.4951 82.6865 45.0211 82.5271 45.3419 82.539C45.7265 82.553 45.6604 82.6734 45.1473 82.893ZM149.588 83.6205C149.459 83.6219 149.316 83.5971 149.186 83.5449C148.875 83.4212 148.967 83.3295 149.421 83.311C149.831 83.2943 150.06 83.3857 149.931 83.5143C149.862 83.5829 149.734 83.6188 149.588 83.6205ZM42.2283 85.9461C41.9075 85.9365 42.1698 85.6889 42.8121 85.3966C44.3491 84.6959 45.0241 84.7057 43.7851 85.4106C43.2499 85.715 42.5491 85.9564 42.2283 85.9461ZM170.948 85.8382C170.819 85.9668 170.483 85.9807 170.202 85.8688C169.892 85.7451 169.984 85.6534 170.438 85.6348C170.616 85.6277 170.76 85.6409 170.855 85.6685C170.979 85.7046 171.021 85.7653 170.948 85.8382ZM174.07 86.3331C172.807 86.3586 171.832 86.21 171.832 85.9915C171.832 85.5522 173.406 85.5522 175.14 85.9915C176.101 86.2347 175.912 86.2952 174.07 86.3331ZM118.045 86.8815C118.278 86.7887 118.619 86.7058 118.998 86.6589C119.694 86.5733 120.307 86.4749 120.36 86.4409C120.414 86.4066 120.458 86.5451 120.458 86.748C120.458 87.2219 117.929 87.923 116.208 87.9258C114.568 87.9285 114.855 87.5043 116.525 87.4572C117.19 87.4381 117.733 87.2862 117.733 87.119C117.733 87.0432 117.851 86.9589 118.045 86.8815ZM105.891 88.7996C105.728 88.6399 106.443 88.308 107.48 88.062C108.517 87.8161 109.419 87.5985 109.486 87.5779C109.552 87.5574 109.494 87.7212 109.357 87.9421C109.19 88.2108 109.986 88.2802 111.767 88.1528L114.425 87.9618L112.284 88.3213C111.521 88.4495 110.646 88.5223 109.964 88.5257C109.593 88.5276 109.28 88.5089 109.074 88.4677C108.434 88.3398 108.003 88.4223 108.003 88.6721C108.003 89.1447 106.345 89.2446 105.891 88.7996ZM117.636 88.5823C117.261 88.6798 116.648 88.6798 116.274 88.5823C115.899 88.4851 116.205 88.4053 116.955 88.4053C117.704 88.4053 118.011 88.4851 117.636 88.5823ZM101.21 89.5506C100.986 89.4064 101.416 89.1799 102.165 89.0467C104.26 88.6744 104.89 88.6729 104.89 89.039C104.89 89.4653 101.754 89.901 101.21 89.5506ZM113.452 88.7926C114.202 88.7926 114.508 88.8724 114.133 88.9696C113.758 89.0672 113.146 89.0672 112.771 88.9696C112.396 88.8724 112.703 88.7926 113.452 88.7926ZM109.365 89.8526C109.151 89.8526 109.239 89.6837 109.56 89.4774C109.748 89.3565 109.975 89.2487 110.175 89.1799C110.316 89.1311 110.444 89.102 110.533 89.102C110.747 89.102 110.659 89.2708 110.338 89.4774C110.018 89.6837 109.58 89.8526 109.365 89.8526ZM97.6149 90.0755C97.7038 90.0262 97.8589 89.9587 98.0786 89.8647C99.1497 89.4064 99.5305 89.4064 99.2462 89.8647C99.1139 90.0776 98.6221 90.2395 98.1531 90.225C97.5716 90.2062 97.3998 90.1945 97.6149 90.0755ZM96.6563 92.9161C96.5279 92.9174 96.385 92.8927 96.2542 92.8405C95.9441 92.7168 96.036 92.6251 96.4899 92.6065C96.8996 92.5899 97.1292 92.6812 96.9999 92.8098C96.9308 92.8785 96.8031 92.9146 96.6563 92.9161ZM37.3633 94.9331L38.5309 94.3668C39.9121 93.6975 40.6038 93.5763 40.0679 94.0975C39.865 94.2955 39.1732 94.5647 38.5309 94.6953L37.3633 94.9331ZM77.1507 96.683C77.0215 96.8116 76.6855 96.8256 76.405 96.7136C76.0948 96.5899 76.1868 96.4982 76.6406 96.4797C77.0504 96.463 77.2799 96.5544 77.1507 96.683ZM66.9425 98.9407C67.1569 98.6757 68.8201 98.107 70.6399 97.6772C74.4848 96.769 76.3487 96.6323 73.6562 97.4561C72.6392 97.767 71.8075 98.1668 71.8075 98.3438C71.8075 98.5208 71.3636 98.5812 70.8209 98.4777C70.2424 98.3678 69.5582 98.5367 69.1668 98.886C68.7996 99.2138 67.7985 99.5842 66.9425 99.7091C66.0866 99.8337 65.6487 99.8203 65.9695 99.6788C66.2903 99.5375 66.7282 99.2053 66.9425 98.9407ZM40.9406 101.866C40.6616 101.862 40.7103 101.71 41.0607 101.484C41.8087 101.003 41.9432 101.003 41.6445 101.484C41.5122 101.697 41.1952 101.869 40.9406 101.866ZM37.9471 103.033C37.1854 103.523 36.3903 103.523 36.3903 103.033C36.3903 102.82 36.8715 102.649 37.4606 102.652C38.2945 102.656 38.4024 102.741 37.9471 103.033Z" fill="#FFA100"/>
<path d="M68.4096 3.74735C68.1459 3.85364 67.6206 3.86007 67.242 3.76172C66.8635 3.66338 67.0786 3.57658 67.7209 3.56882C68.0813 3.56447 68.3367 3.58773 68.4454 3.62783C68.5305 3.65922 68.5252 3.70083 68.4096 3.74735Z" fill="#FFA100"/>
<path d="M100.608 7.81511C101.144 7.81511 101.362 7.90286 101.095 8.01028C100.827 8.11789 100.389 8.11789 100.122 8.01028C99.8543 7.90286 100.073 7.81511 100.608 7.81511Z" fill="#FFA100"/>
<path d="M125.801 13.7975C125.672 13.9261 125.336 13.9401 125.055 13.8281C124.745 13.7045 124.837 13.6127 125.291 13.5942C125.7 13.5776 125.93 13.6689 125.801 13.7975Z" fill="#FFA100"/>
<path d="M121.765 14.2818C121.544 14.2712 121.333 14.2546 121.146 14.2317C120.446 14.1453 120.924 14.0729 122.209 14.071C123.494 14.0687 124.066 14.139 123.481 14.2277C123.052 14.2924 122.372 14.3106 121.765 14.2818Z" fill="#FFA100"/>
<path d="M161.231 15.3789C160.859 15.4757 160.158 15.4791 159.674 15.3867C159.19 15.294 159.495 15.2148 160.351 15.2104C161.207 15.2061 161.603 15.2821 161.231 15.3789Z" fill="#FFA100"/>
<path d="M125.165 15.84C124.906 15.8426 124.644 15.8182 124.447 15.767C124.072 15.6698 124.379 15.59 125.128 15.59C125.878 15.59 126.184 15.6698 125.809 15.767C125.631 15.8133 125.399 15.8377 125.165 15.84Z" fill="#FFA100"/>
<path d="M149.258 15.6055C150.222 15.6055 150.616 15.6809 150.134 15.7736C149.652 15.8657 148.865 15.8657 148.383 15.7736C147.901 15.6809 148.295 15.6055 149.258 15.6055Z" fill="#FFA100"/>
<path d="M168.628 15.777C168.044 15.8653 166.992 15.8668 166.293 15.781C165.891 15.7312 165.878 15.6862 166.183 15.6565C166.409 15.6346 166.81 15.621 167.356 15.6202C168.641 15.618 169.213 15.6883 168.628 15.777Z" fill="#FFA100"/>
<path d="M154.615 16.1535C154.243 16.2504 153.542 16.2538 153.058 16.1613C152.574 16.0686 152.878 15.9894 153.734 15.985C154.59 15.9807 154.987 16.0567 154.615 16.1535Z" fill="#FFA100"/>
<path d="M174.27 16.1602C173.791 16.2519 172.915 16.2542 172.324 16.1655C171.733 16.0764 172.124 16.0013 173.194 15.9983C174.265 15.9954 174.749 16.0683 174.27 16.1602Z" fill="#FFA100"/>
<path d="M166.877 16.5288C166.614 16.635 166.088 16.6415 165.71 16.5431C165.543 16.4998 165.492 16.4588 165.541 16.4257C165.603 16.3837 165.829 16.3546 166.189 16.3502C166.831 16.3425 167.14 16.4227 166.877 16.5288Z" fill="#FFA100"/>
<path d="M179.33 16.5475C178.851 16.6392 177.975 16.6415 177.384 16.5528C176.792 16.4637 177.184 16.3886 178.254 16.3856C179.324 16.3828 179.808 16.4556 179.33 16.5475Z" fill="#FFA100"/>
<path d="M122.854 17.4844C121.259 17.3787 120.867 17.2527 121.431 17.0273C121.859 16.8565 123.26 16.7302 124.544 16.7472C125.829 16.7644 126.395 16.851 125.802 16.9401C125.39 17.0021 125.066 17.1139 124.938 17.2251C124.882 17.2737 124.864 17.3221 124.891 17.3662C124.981 17.5114 124.065 17.5646 122.854 17.4844Z" fill="#FFA100"/>
<path d="M130.86 16.896C130.731 17.0246 130.395 17.0386 130.115 16.9267C129.936 16.8556 129.891 16.795 129.971 16.7529C130.03 16.7217 130.157 16.7007 130.35 16.6927C130.629 16.6814 130.824 16.72 130.879 16.7861C130.906 16.8174 130.901 16.8548 130.86 16.896Z" fill="#FFA100"/>
<path d="M183.119 16.7519C183.868 16.7519 184.175 16.8317 183.8 16.9289C183.425 17.0265 182.813 17.0265 182.438 16.9289C182.063 16.8317 182.369 16.7519 183.119 16.7519Z" fill="#FFA100"/>
<path d="M129.462 17.7682C129.31 17.7909 129.118 17.7696 128.947 17.7013C128.637 17.5776 128.729 17.4859 129.183 17.4674C129.592 17.4507 129.822 17.5421 129.693 17.6707C129.643 17.721 129.561 17.7537 129.462 17.7682Z" fill="#FFA100"/>
<path d="M196.067 18.078C195.804 18.1843 195.278 18.1907 194.9 18.0924C194.521 17.994 194.736 17.9072 195.379 17.8995C196.021 17.8917 196.331 17.9719 196.067 18.078Z" fill="#FFA100"/>
<path d="M184.57 19.9945C184.441 20.1231 184.105 20.1371 183.824 20.0252C183.514 19.9015 183.606 19.8098 184.06 19.7912C184.47 19.7746 184.699 19.8659 184.57 19.9945Z" fill="#FFA100"/>
<path d="M193.044 23.0602C189.733 22.5176 187.4 22.0225 187.4 21.8634C187.4 21.6111 187.732 21.6495 191.072 22.2855C194.239 22.8883 195.844 23.5195 193.044 23.0602Z" fill="#FFA100"/>
<path d="M177.969 23.9106C177.384 23.9989 176.333 24.0005 175.634 23.9146C174.934 23.8282 175.412 23.7557 176.697 23.7538C177.152 23.7531 177.518 23.7614 177.775 23.7764C178.243 23.8038 178.347 23.8533 177.969 23.9106Z" fill="#FFA100"/>
<path d="M186.369 24.3535C186.223 24.3441 186.077 24.3229 185.948 24.2894C185.669 24.2166 185.713 24.1502 186.015 24.1175C186.122 24.106 186.26 24.0986 186.427 24.0965C187.07 24.0888 187.379 24.169 187.116 24.2751C186.942 24.3452 186.654 24.3719 186.369 24.3535Z" fill="#FFA100"/>
<path d="M191.978 24.3611C191.859 24.3583 191.729 24.3335 191.608 24.2857C191.298 24.162 191.39 24.0702 191.844 24.0517C192.254 24.0351 192.483 24.1264 192.354 24.255C192.28 24.3286 192.138 24.3647 191.978 24.3611Z" fill="#FFA100"/>
<path d="M181.059 25.0733C180.688 25.0304 180.462 24.9918 180.433 24.9623C180.207 24.738 188.051 24.8437 193.822 25.1431L198.492 25.3852L195.306 25.7097C193.554 25.8879 191.452 25.9351 190.635 25.8147C189.82 25.6942 187.228 25.4905 184.876 25.3623C183.279 25.2753 181.844 25.1643 181.059 25.0733Z" fill="#FFA100"/>
<path d="M194.697 26.7866C190.562 26.9382 189.381 26.4681 193.335 26.2442C194.673 26.1687 196.031 26.0855 196.352 26.0596C196.522 26.0458 196.774 26.0736 197.038 26.1286C197.272 26.1774 197.513 26.2478 197.714 26.3298C198.22 26.5364 197.164 26.6958 194.697 26.7866Z" fill="#FFA100"/>
<path d="M216.613 42.2249C216.412 42.2249 216.139 42.0505 216.006 41.8376C215.874 41.6246 216.039 41.4503 216.373 41.4503C216.605 41.4503 216.808 41.5348 216.91 41.6579C216.954 41.7116 216.979 41.7729 216.979 41.8376C216.979 42.0505 216.814 42.2249 216.613 42.2249Z" fill="#FFA100"/>
<path d="M225.153 43.4271C225.153 43.8872 225.137 43.885 220.871 42.8155C218.838 42.3058 217.437 41.8767 217.758 41.8624C219.027 41.805 225.153 43.1009 225.153 43.4271Z" fill="#FFA100"/>
<path d="M211.814 44.7827C211.685 44.9113 211.349 44.9253 211.068 44.8134C210.758 44.6897 210.85 44.598 211.304 44.5794C211.714 44.5628 211.943 44.6541 211.814 44.7827Z" fill="#FFA100"/>
<path d="M216.874 44.7827C216.745 44.9113 216.409 44.9253 216.128 44.8134C215.818 44.6897 215.91 44.598 216.364 44.5794C216.773 44.5628 217.003 44.6541 216.874 44.7827Z" fill="#FFA100"/>
<path d="M221.455 45.4477C220.385 45.3249 219.436 45.1593 219.347 45.0802C219.041 44.8079 221.456 45.0135 222.428 45.3423C223.084 45.5644 222.767 45.5988 221.455 45.4477Z" fill="#FFA100"/>
<path d="M225.047 45.9447C224.918 46.0733 224.582 46.0873 224.301 45.9753C223.991 45.8516 224.083 45.7599 224.537 45.7414C224.947 45.7247 225.176 45.8161 225.047 45.9447Z" fill="#FFA100"/>
<path d="M5.44881 49.9591C5.23445 49.9591 5.32262 49.7902 5.64341 49.5839C5.9642 49.3774 6.40205 49.2085 6.61641 49.2085C6.75628 49.2085 6.76692 49.2803 6.66886 49.3878C6.61641 49.4451 6.53356 49.5122 6.42181 49.5839C6.24622 49.6968 6.03565 49.7983 5.84637 49.8674C5.68902 49.9245 5.54611 49.9591 5.44881 49.9591Z" fill="#FFA100"/>
<path d="M214.223 49.8311C214.588 50.1467 211.682 49.9321 211.162 49.6043C210.797 49.3751 211.209 49.3274 212.33 49.47C212.666 49.513 212.991 49.561 213.274 49.6087C213.789 49.6957 214.165 49.7809 214.223 49.8311Z" fill="#FFA100"/>
<path d="M3.00338 50.6324C3.02087 50.579 3.18506 50.4945 3.50281 50.3585C4.54422 49.9131 4.55791 49.9131 4.28121 50.3585C4.14894 50.5715 3.74454 50.7334 3.3827 50.7188C3.11513 50.7076 2.9859 50.6855 3.00338 50.6324Z" fill="#FFA100"/>
<path d="M217.174 50.68C216.746 50.6738 215.958 50.5289 215.423 50.3585L214.45 50.0482L215.423 50.037C215.958 50.0308 216.746 50.1753 217.174 50.3585L217.952 50.6912L217.174 50.68Z" fill="#FFA100"/>
<path d="M175.043 51.1273C174.461 51.1224 174.447 51.0666 174.946 50.7458C175.68 50.2732 175.724 50.2732 175.724 50.7458C175.724 50.8427 175.661 50.931 175.557 50.9981C175.431 51.0787 175.248 51.129 175.043 51.1273Z" fill="#FFA100"/>
<path d="M194.3 50.5925C194.171 50.7211 193.835 50.7351 193.554 50.6231C193.244 50.4994 193.336 50.4077 193.79 50.3892C194.2 50.3725 194.429 50.4639 194.3 50.5925Z" fill="#FFA100"/>
<path d="M202.579 50.4483C203.329 50.4483 203.635 50.5282 203.26 50.6254C202.885 50.7229 202.273 50.7229 201.898 50.6254C201.523 50.5282 201.829 50.4483 202.579 50.4483Z" fill="#FFA100"/>
<path d="M172.341 51.5146C171.241 51.5101 171.01 51.4119 171.443 51.1331C172.204 50.6435 173.279 50.6435 173.584 51.1331C173.728 51.366 173.232 51.5182 172.341 51.5146Z" fill="#FFA100"/>
<path d="M205.693 51.5817C206.228 51.5817 206.447 51.6695 206.179 51.7769C205.912 51.8845 205.474 51.8845 205.206 51.7769C204.939 51.6695 205.157 51.5817 205.693 51.5817Z" fill="#FFA100"/>
<path d="M185.272 53.0179C185.089 53.0088 184.914 52.9859 184.773 52.9493C184.398 52.8521 184.705 52.7722 185.454 52.7722C186.204 52.7722 186.51 52.8521 186.135 52.9493C185.902 53.0102 185.576 53.033 185.272 53.0179Z" fill="#FFA100"/>
<path d="M202.295 52.9364C202.031 53.0427 201.506 53.0491 201.127 52.9508C200.749 52.8524 200.964 52.7656 201.606 52.7579C202.248 52.7501 202.558 52.8303 202.295 52.9364Z" fill="#FFA100"/>
<path d="M194.961 53.8343C194.727 54.0675 194.14 54.0802 193.424 53.8676C192.279 53.5276 192.283 53.5232 193.802 53.4903C194.8 53.4686 195.207 53.5894 194.961 53.8343Z" fill="#FFA100"/>
<path d="M197.526 53.993C197.624 54.0244 197.597 54.0658 197.422 54.1112C197.047 54.2088 196.435 54.2088 196.06 54.1112C195.685 54.014 195.991 53.9342 196.741 53.9342C197.142 53.9342 197.415 53.9569 197.526 53.993Z" fill="#FFA100"/>
<path d="M5.83801 59.0731L6.57917 58.2017C6.98737 57.722 7.38113 57.3302 7.45487 57.3302C7.67531 57.3302 7.62514 57.4856 7.28687 57.8211C7.14624 57.9607 6.95544 58.1315 6.71371 58.3352L5.83801 59.0731Z" fill="#FFA100"/>
<path d="M188.255 64.2589C187.654 64.2625 187.025 64.2423 186.534 64.1984C185.619 64.1167 186.271 64.0486 187.984 64.0473C189.697 64.0458 190.445 64.1128 189.648 64.1962C189.278 64.2347 188.778 64.2557 188.255 64.2589Z" fill="#FFA100"/>
<path d="M52.0868 67.1281C52.4418 67.2637 54.2654 66.7814 56.1399 66.0559C59.5416 64.7399 60.1315 64.5594 60.1315 64.8356C60.1315 64.9161 59.0369 65.3802 57.699 65.867C56.3611 66.3538 55.0917 66.8748 54.8773 67.0246C54.7709 67.0989 54.4379 67.2542 53.9856 67.4448C53.525 67.6391 52.9412 67.8702 52.3475 68.0901C51.17 68.5262 49.9294 68.9926 49.5912 69.1267C49.1944 69.2831 48.9739 69.1643 48.9739 68.7927C48.9739 68.0926 50.9458 67.2109 51.6056 67.6166C51.9287 67.8151 51.9781 67.7448 51.7599 67.3945C51.5288 67.0223 51.6185 66.9492 52.0868 67.1281Z" fill="#FFA100"/>
<path d="M189.152 65.3662C188.081 65.3693 186.68 65.2391 186.038 65.0765L184.87 64.7809L186.038 64.769C186.68 64.7624 188.081 64.8929 189.152 65.0587L191.098 65.3604L189.152 65.3662Z" fill="#FFA100"/>
<path d="M60.5207 66.9798C60.1361 66.9658 60.2022 66.8453 60.7153 66.6258C61.7849 66.1683 62.3998 66.1683 61.6883 66.6258C61.3675 66.8321 60.8415 66.9917 60.5207 66.9798Z" fill="#FFA100"/>
<path d="M70.5662 66.5787C70.4415 66.5783 70.3039 66.5533 70.1778 66.503C69.8676 66.3793 69.9596 66.2876 70.4134 66.2691C70.6301 66.2602 70.7965 66.2818 70.8862 66.323C70.966 66.3597 70.9843 66.4119 70.9235 66.4724C70.852 66.5431 70.7182 66.5792 70.5662 66.5787Z" fill="#FFA100"/>
<path d="M60.336 67.713C60.2167 67.8322 59.9027 67.7134 59.6382 67.4484C59.2573 67.0657 59.3014 67.0216 59.8563 67.2315C60.2402 67.3771 60.4561 67.5937 60.336 67.713Z" fill="#FFA100"/>
<path d="M57.7735 68.5623C57.5721 68.5623 57.4071 68.4171 57.4071 68.2397C57.4071 68.0619 57.6618 67.9167 57.9734 67.9167C58.2859 67.9167 58.4501 68.0619 58.3398 68.2397C58.2691 68.3534 58.1391 68.4538 58.0016 68.5113C57.9248 68.5436 57.8457 68.5623 57.7735 68.5623Z" fill="#FFA100"/>
<path d="M47.0621 69.1966C47.0591 69.1151 47.1579 69.0247 47.3525 68.9016C47.6383 68.7216 48.0465 68.5852 48.2609 68.5986C48.4753 68.6123 48.4304 68.7117 48.1613 68.8195C47.8922 68.9275 47.7698 69.1732 47.8899 69.3655C48.0093 69.558 47.82 69.6061 47.4703 69.4722C47.1997 69.3691 47.0659 69.2886 47.0621 69.1966Z" fill="#FFA100"/>
<path d="M55.6299 69.3551C54.6994 69.6914 54.3125 69.4168 55.0643 68.9542C55.3691 68.7668 55.7903 68.7191 56.0008 68.8481C56.2106 68.9775 56.0434 69.2057 55.6299 69.3551Z" fill="#FFA100"/>
<path d="M186.622 71.7507C187.371 71.7507 187.678 71.8305 187.303 71.9277C186.928 72.0253 186.315 72.0253 185.941 71.9277C185.566 71.8305 185.872 71.7507 186.622 71.7507Z" fill="#FFA100"/>
<path d="M194.017 74.384C195.902 74.7361 192.911 74.558 186.816 73.9556C184.166 73.6935 184.341 73.6784 187.984 73.8524C190.339 73.9649 193.053 74.2043 194.017 74.384Z" fill="#FFA100"/>
<path d="M198.403 75.0134C198.139 75.1197 197.614 75.1261 197.235 75.0277C196.857 74.9294 197.072 74.8426 197.714 74.8348C198.356 74.8271 198.666 74.9073 198.403 75.0134Z" fill="#FFA100"/>
<path d="M201.022 75.5007C200.131 75.4812 200.115 75.4516 200.828 75.1467C201.256 74.9634 201.956 74.8042 202.384 74.7927C203.027 74.7749 203.061 74.8369 202.579 75.1467C202.258 75.353 201.557 75.5126 201.022 75.5007Z" fill="#FFA100"/>
<path d="M204.525 75.646C204.098 75.7576 203.649 75.6904 203.529 75.4975C203.41 75.3048 203.76 75.1467 204.308 75.1467C205.5 75.1467 205.597 75.3674 204.525 75.646Z" fill="#FFA100"/>
<path d="M193.627 75.6238C194.377 75.6238 194.683 75.7037 194.308 75.8009C193.934 75.8984 193.321 75.8984 192.946 75.8009C192.572 75.7037 192.878 75.6238 193.627 75.6238Z" fill="#FFA100"/>
<path d="M196.182 76.2574C195.995 76.2487 195.815 76.2256 195.671 76.1882C195.296 76.091 195.602 76.0112 196.352 76.0112C197.101 76.0112 197.408 76.091 197.033 76.1882C196.803 76.2483 196.482 76.2714 196.182 76.2574Z" fill="#FFA100"/>
<path d="M181.854 77.9086C182.696 77.8749 183.119 77.6639 183.119 77.2769C183.119 76.9573 183.288 76.696 183.496 76.696C183.704 76.696 183.778 76.9426 183.662 77.244C183.493 77.6809 183.791 77.7529 185.133 77.6003C186.149 77.485 186.627 77.543 186.338 77.7478C186.046 77.9547 189.153 78.4353 194.317 78.9818C203.028 79.904 206.006 80.485 199.465 79.9866C197.432 79.8317 195.418 79.6392 194.99 79.5586C194.562 79.4785 192.723 79.3122 190.903 79.1899C189.083 79.0675 187.367 78.8939 187.088 78.8041C186.81 78.7146 186.689 78.8137 186.819 79.024C186.95 79.2349 186.886 79.4072 186.677 79.4072C186.468 79.4072 186.236 79.2224 186.16 78.9966C186.084 78.7704 184.8 78.4451 183.306 78.2726C181.811 78.1007 181.159 77.937 181.854 77.9086Z" fill="#FFA100"/>
<path d="M202.968 76.7572C203.503 76.7572 203.722 76.845 203.455 76.9524C203.187 77.06 202.749 77.06 202.482 76.9524C202.214 76.845 202.433 76.7572 202.968 76.7572Z" fill="#FFA100"/>
<path d="M205.693 77.1445C206.228 77.1445 206.447 77.2323 206.179 77.3397C205.912 77.4473 205.474 77.4473 205.206 77.3397C205.063 77.2824 205.059 77.2306 205.168 77.1949C205.262 77.1637 205.443 77.1445 205.693 77.1445Z" fill="#FFA100"/>
<path d="M188.957 77.5604C189.706 77.5604 190.013 77.6402 189.638 77.7374C189.263 77.835 188.651 77.835 188.276 77.7374C187.901 77.6402 188.207 77.5604 188.957 77.5604Z" fill="#FFA100"/>
<path d="M205.298 80.5198C205.157 80.53 204.991 80.5061 204.841 80.4464C204.531 80.3227 204.623 80.231 205.077 80.2124C205.487 80.1958 205.716 80.2871 205.587 80.4157C205.527 80.4757 205.421 80.5109 205.298 80.5198Z" fill="#FFA100"/>
<path d="M194.3 82.7396C194.171 82.8682 193.835 82.8822 193.554 82.7703C193.244 82.6466 193.336 82.5549 193.79 82.5363C194.2 82.5197 194.429 82.611 194.3 82.7396Z" fill="#FFA100"/>
<path d="M198.298 82.9543C198.833 82.9543 199.052 83.042 198.784 83.1495C198.517 83.2571 198.079 83.2571 197.811 83.1495C197.544 83.042 197.763 82.9543 198.298 82.9543Z" fill="#FFA100"/>
<path d="M201.411 83.3701C202.161 83.3701 202.467 83.45 202.092 83.5472C201.718 83.6448 201.105 83.6448 200.73 83.5472C200.356 83.45 200.662 83.3701 201.411 83.3701Z" fill="#FFA100"/>
<path d="M205.408 83.9216C205.145 84.0279 204.619 84.0343 204.241 83.936C204.064 83.8902 204.017 83.8469 204.081 83.8129C204.155 83.7739 204.376 83.7473 204.72 83.7431C205.362 83.7353 205.671 83.8155 205.408 83.9216Z" fill="#FFA100"/>
<path d="M183.901 84.3865C183.729 84.3761 183.562 84.3568 183.415 84.3288C182.931 84.2361 183.236 84.1569 184.092 84.1525C184.948 84.1482 185.345 84.2242 184.972 84.321C184.713 84.3886 184.295 84.4107 183.901 84.3865Z" fill="#FFA100"/>
<path d="M156.727 86.1805C157.302 86.2913 157.882 86.2069 158.015 85.993C158.148 85.7793 158.344 85.6042 158.45 85.6042C158.558 85.6042 158.521 85.8041 158.37 86.0481C158.175 86.3603 158.399 86.4155 159.125 86.2344C159.394 86.1672 159.626 86.1405 159.801 86.1517C160.025 86.1657 160.156 86.2408 160.156 86.3715C160.156 86.8611 157.515 86.8424 156.459 86.3456C155.806 86.0388 155.849 86.0119 156.727 86.1805Z" fill="#FFA100"/>
<path d="M190.222 86.428C190.81 86.401 191.292 86.1859 191.292 85.9501C191.292 85.7143 191.57 85.6271 191.908 85.7565C192.246 85.8858 193.166 86.0119 193.951 86.0373L195.379 86.0833L194.211 86.3788C193.496 86.56 193.332 86.6922 193.79 86.7204C194.2 86.7455 194.455 86.8467 194.356 86.9451C194.257 87.0434 193.046 86.9783 191.664 86.8006C190.282 86.6224 189.634 86.4551 190.222 86.428Z" fill="#FFA100"/>
<path d="M160.74 86.6744L161.908 86.3788C162.55 86.2162 163.129 86.0624 163.195 86.0373C163.261 86.0119 163.207 86.1659 163.075 86.3788C162.943 86.5918 162.364 86.7455 161.787 86.7204L160.74 86.6744Z" fill="#FFA100"/>
<path d="M188.462 86.2255C188.333 86.3541 187.997 86.3681 187.716 86.2561C187.406 86.1324 187.498 86.0407 187.952 86.0222C188.362 86.0055 188.591 86.0969 188.462 86.2255Z" fill="#FFA100"/>
<path d="M142.058 87.0926C139.866 87.0466 139.818 87.0264 141.28 86.7662C142.136 86.6135 142.924 86.4668 143.031 86.4395C143.081 86.4273 143.18 86.4515 143.305 86.501C143.453 86.5596 143.636 86.6542 143.81 86.7662C144.219 87.029 143.693 87.1268 142.058 87.0926Z" fill="#FFA100"/>
<path d="M196.98 86.8664C195.818 86.9912 195.288 86.9381 195.618 86.7306C196.123 86.4121 199.396 86.2122 199.044 86.5211C198.955 86.5992 198.026 86.7544 196.98 86.8664Z" fill="#FFA100"/>
<path d="M136.195 87.4455C135.345 87.506 134.904 87.3937 135.051 87.155C135.33 86.7073 137.583 86.6198 137.582 87.0566C137.581 87.2163 136.958 87.3912 136.195 87.4455Z" fill="#FFA100"/>
<path d="M139.423 87.0001C139.294 87.1287 138.958 87.1427 138.677 87.0307C138.367 86.9071 138.459 86.8153 138.913 86.7968C139.142 86.7875 139.313 86.8117 139.399 86.8573C139.467 86.8936 139.48 86.9432 139.423 87.0001Z" fill="#FFA100"/>
<path d="M149.328 87.3061C147.05 87.1949 145.111 87.0279 145.018 86.935C144.763 86.6826 149.859 86.7367 152.859 87.0186C154.304 87.1542 155.486 87.4336 155.486 87.6387C155.486 87.8472 155.04 87.9007 154.477 87.7604C153.923 87.6217 151.605 87.4173 149.328 87.3061Z" fill="#FFA100"/>
<path d="M201.411 86.8715C202.375 86.8715 202.768 86.947 202.287 87.0396C201.806 87.1317 201.017 87.1317 200.536 87.0396C200.229 86.9806 200.277 86.9286 200.6 86.8987C200.786 86.8815 201.061 86.8715 201.411 86.8715Z" fill="#FFA100"/>
<path d="M128.095 87.8071C127.977 87.7655 127.956 87.6872 128.028 87.5714C128.171 87.3413 128.919 87.1535 129.692 87.1535C131.43 87.1535 131.215 87.444 129.247 87.7552C128.648 87.85 128.268 87.8678 128.095 87.8071Z" fill="#FFA100"/>
<path d="M156.144 87.9669C155.971 87.9455 155.937 87.7537 156.07 87.5408C156.414 86.9857 156.536 87.054 156.766 87.9281C156.939 88.587 156.786 88.6969 155.741 88.664C154.563 88.6273 154.552 88.6129 155.486 88.3154C156.021 88.145 156.317 87.9881 156.144 87.9669Z" fill="#FFA100"/>
<path d="M123.182 88.2496C122.297 88.26 122.28 88.2305 122.987 87.9281C123.415 87.7449 124.291 87.6004 124.933 87.6066C126.072 87.6178 126.077 87.6255 125.128 87.9281C124.593 88.0985 123.717 88.2434 123.182 88.2496Z" fill="#FFA100"/>
<path d="M159.378 87.6306C160.127 87.6306 160.434 87.7104 160.059 87.8076C159.684 87.9052 159.071 87.9052 158.697 87.8076C158.322 87.7104 158.628 87.6306 159.378 87.6306Z" fill="#FFA100"/>
<path d="M177.954 87.7747C177.824 87.9033 177.488 87.9173 177.208 87.8054C176.898 87.6817 176.99 87.59 177.444 87.5714C177.853 87.5548 178.083 87.6461 177.954 87.7747Z" fill="#FFA100"/>
<path d="M182.15 87.6845C182.183 87.7163 182.153 87.7552 182.049 87.7972C181.781 87.9048 181.343 87.9048 181.076 87.7972C180.808 87.6898 181.027 87.6021 181.562 87.6021C181.888 87.6021 182.097 87.6348 182.15 87.6845Z" fill="#FFA100"/>
<path d="M191.965 87.7747C191.836 87.9033 191.5 87.9173 191.219 87.8054C190.909 87.6817 191.001 87.59 191.455 87.5714C191.73 87.5603 191.924 87.5977 191.982 87.6624C192.011 87.6942 192.007 87.7324 191.965 87.7747Z" fill="#FFA100"/>
<path d="M151.712 88.5637C151.815 88.4943 151.846 88.4087 151.788 88.3154C151.651 88.0958 151.979 87.9281 152.544 87.9281C152.83 87.9281 153.088 87.9735 153.271 88.0459C153.437 88.1121 153.54 88.2008 153.54 88.298C153.54 88.7383 151.074 89.255 150.35 88.9662C150.071 88.855 150.334 88.75 150.935 88.7334C151.296 88.7234 151.572 88.659 151.712 88.5637Z" fill="#FFA100"/>
<path d="M195.62 88.2678C195.357 88.2712 195.091 88.2468 194.892 88.1949C194.518 88.0977 194.824 88.0179 195.573 88.0179C196.083 88.0179 196.388 88.0548 196.413 88.1091C196.425 88.1346 196.375 88.1639 196.254 88.1949C196.079 88.2407 195.851 88.2649 195.62 88.2678Z" fill="#FFA100"/>
<path d="M130.987 88.7825C130.356 88.8743 129.928 88.8073 130.036 88.6326C130.229 88.322 132.134 88.1702 132.134 88.4652C132.134 88.5475 131.618 88.6903 130.987 88.7825Z" fill="#FFA100"/>
<path d="M173.105 88.5694C172.841 88.6757 172.316 88.6821 171.937 88.5838C171.558 88.4854 171.774 88.3986 172.416 88.3909C172.79 88.3863 173.051 88.4117 173.152 88.4546C173.224 88.4854 173.214 88.5252 173.105 88.5694Z" fill="#FFA100"/>
<path d="M198.621 88.6549C198.397 88.6509 198.176 88.6267 198.006 88.5823C197.631 88.4851 197.937 88.4053 198.687 88.4053C199.437 88.4053 199.743 88.4851 199.368 88.5823C199.164 88.6354 198.889 88.6596 198.621 88.6549Z" fill="#FFA100"/>
<path d="M34.1843 90.252C33.7404 90.252 34.613 89.3875 35.3595 89.0874C37.0904 88.3924 37.7015 88.7426 36.0558 89.4859C35.1223 89.9072 34.2801 90.252 34.1843 90.252Z" fill="#FFA100"/>
<path d="M127.957 88.9567C127.694 89.063 127.168 89.0694 126.79 88.9711C126.411 88.8727 126.626 88.7859 127.269 88.7782C127.911 88.7704 128.22 88.8506 127.957 88.9567Z" fill="#FFA100"/>
<path d="M147.709 89.3924C147.078 89.3747 146.653 89.2124 146.765 89.0316C146.878 88.8506 147.495 88.7027 148.137 88.7027C148.779 88.7027 149.204 88.8654 149.081 89.0641C148.957 89.2627 148.339 89.4108 147.709 89.3924Z" fill="#FFA100"/>
<path d="M167.94 89.1513C168.475 89.1513 168.694 89.2391 168.427 89.3465C168.159 89.4541 167.721 89.4541 167.454 89.3465C167.186 89.2391 167.405 89.1513 167.94 89.1513Z" fill="#FFA100"/>
<path d="M155.38 89.7601C154.572 89.8437 153.347 89.8426 152.656 89.7571C151.964 89.6714 152.625 89.6028 154.124 89.6045C155.622 89.6063 156.187 89.6761 155.38 89.7601Z" fill="#FFA100"/>
<path d="M124.35 90.3895C123.391 90.5646 123.161 90.5255 123.571 90.2575C123.892 90.0479 124.578 89.8739 125.096 89.8705C125.843 89.8658 126.03 89.9428 125.7 90.071C125.478 90.1572 125.024 90.2664 124.35 90.3895Z" fill="#FFA100"/>
<path d="M193.343 90.1187C193.079 90.225 192.554 90.2314 192.175 90.133C191.797 90.0347 192.012 89.9479 192.654 89.9401C193.02 89.9358 193.278 89.9598 193.383 90.0008C193.463 90.0321 193.456 90.0729 193.343 90.1187Z" fill="#FFA100"/>
<path d="M199.855 90.5166C200.818 90.6435 201.679 90.8101 201.769 90.8869C202.106 91.1781 199.625 90.9568 198.882 90.6293C198.362 90.4003 198.685 90.3628 199.855 90.5166Z" fill="#FFA100"/>
<path d="M104.89 92.7839C106.067 92.6587 107.818 92.4252 108.782 92.2652C111.586 91.799 112.2 91.7814 111.484 92.1874C110.757 92.5991 101.378 93.8587 101.1 93.5818C100.859 93.342 102.1 93.0808 104.89 92.7839Z" fill="#FFA100"/>
<path d="M91.5367 95.3591C90.8921 95.184 91.206 95.0159 92.8244 94.67C94.0019 94.4179 95.4028 94.212 95.938 94.212C96.4731 94.212 96.0041 94.4101 94.8943 94.6526C94.2542 94.7925 93.6446 94.955 93.2174 95.0938C92.905 95.1954 92.6906 95.2841 92.6343 95.3418C92.4998 95.4785 92.0065 95.4862 91.5367 95.3591Z" fill="#FFA100"/>
<path d="M88.7378 95.8075C87.653 95.9719 87.4166 95.9369 87.9594 95.6926C88.7066 95.3556 90.791 95.136 90.4573 95.4293C90.3676 95.5074 89.5937 95.6778 88.7378 95.8075Z" fill="#FFA100"/>
<path d="M86.1023 96.2957C85.9731 96.4243 85.6371 96.4383 85.3566 96.3263C85.0464 96.2026 85.1384 96.1109 85.5922 96.0924C86.002 96.0757 86.2315 96.1671 86.1023 96.2957Z" fill="#FFA100"/>
<path d="M48.0731 105.769C48.3977 105.577 51.5501 104.447 55.0788 103.259C61.8571 100.976 62.2645 100.87 61.8829 101.484C61.816 101.592 61.6936 101.69 61.55 101.76C61.4101 101.829 61.2505 101.871 61.1038 101.871C60.3755 101.871 52.6888 104.391 51.3099 105.082C50.0564 105.709 47.1199 106.333 48.0731 105.769Z" fill="#FFA100"/>
<path d="M35.8376 107.373C35.4287 107.026 35.6187 106.574 36.293 106.399C37.3899 106.114 37.4005 106.127 36.5849 106.777L35.8376 107.373Z" fill="#FFA100"/>
<path d="M35.8483 107.383L35.8065 107.398L35.8376 107.373C35.8414 107.376 35.8445 107.38 35.8483 107.383Z" fill="#FFA100"/>
<path d="M35.8483 107.383L36.5849 107.111C37.9015 106.626 44.5217 105.915 44.134 106.301C43.8132 106.62 36.3325 107.692 35.9722 107.47C35.9266 107.442 35.8848 107.413 35.8483 107.383Z" fill="#FFA100"/>
</g>
</svg>
