<svg width="198" height="99" viewBox="0 0 198 99" fill="none" xmlns="http://www.w3.org/2000/svg">
<g id="Union" style="mix-blend-mode:multiply">
<path fill-rule="evenodd" clip-rule="evenodd" d="M48.4679 4.29577C47.5797 3.93251 47.7976 3.90171 49.6662 4.2919C51.6275 4.6701 58.3321 6.4193 65.2653 8.30066C65.3816 8.33088 65.5029 8.36384 65.6295 8.39954C74.462 10.7994 83.5371 13.3782 83.5478 13.582C83.57 13.829 85.6681 14.5832 90.0219 15.9538C105.49 20.7839 109.302 21.9463 110.945 22.3953C111.892 22.654 112.641 22.9792 112.603 23.1194C112.572 23.2315 112.759 23.3128 113.005 23.2896C113.128 23.278 113.299 23.2568 113.469 23.2356C113.639 23.2144 113.81 23.1932 113.933 23.1816C114.178 23.1584 114.358 23.2677 114.32 23.4078C114.274 23.576 113.997 23.7113 113.731 23.6989C113.402 23.6992 113.498 23.7857 113.964 23.9431C114.374 24.0853 114.746 24.0365 114.808 23.8123C114.861 23.6161 114.952 23.6109 115.046 23.8171C115.119 23.9877 115.657 24.3157 116.262 24.5111C117.325 24.892 117.353 24.8996 116.772 24.289C116.493 24.0131 116.347 23.8679 116.369 23.8346C116.393 23.7975 116.627 23.8988 117.12 24.1129C117.633 24.3135 120.749 25.2856 124.012 26.2677C130.406 28.1659 142.734 31.8965 143.311 32.0844C143.478 32.13 143.615 32.2878 143.584 32.3999C143.546 32.5401 144.593 32.977 145.95 33.3779C147.271 33.7993 130.257 29.1492 108.134 23.0428C103.031 21.6362 98.3464 20.3486 94.1041 19.1867C102.422 22.6838 110.824 26.3303 110.808 26.5308C110.804 26.6268 111.099 26.8395 111.702 27.1765C115.629 28.3465 119.528 29.4893 122.869 30.4436C125.459 31.1514 126.813 31.6721 126.683 31.8174C126.432 32.08 124.376 31.6085 124.007 31.2065C123.734 30.891 122.772 30.6883 122.214 30.8672C122.017 30.9336 121.71 30.8499 121.594 30.7278C121.451 30.5738 118.456 29.7158 114.807 28.741C115.433 29.0412 116.135 29.3726 116.912 29.7361C117.802 30.1498 118.652 30.5444 119.463 30.921C119.904 31.0631 120.159 31.156 120.182 31.1853C120.189 31.2041 120.154 31.2114 120.081 31.2079C122.074 32.1334 123.825 32.9459 125.367 33.6601C126.499 34.0308 127.362 34.3297 127.609 34.4501C128.067 34.6355 132.79 36.077 138.106 37.6504C146.087 39.9824 147.811 40.5739 147.914 40.9635C148.004 41.2894 148.614 41.5766 150.145 41.9952C154.239 43.1139 151.879 42.7701 146.327 41.4034C143.261 40.6859 140.347 40.0702 139.835 40.0809C139.83 40.081 139.823 40.0806 139.815 40.0798C139.97 40.1255 140.057 40.2276 140.014 40.3308C139.946 40.4914 139.654 40.5891 139.392 40.5417C139.066 40.4986 139.15 40.597 139.59 40.8145C139.978 41.0096 140.354 41.0103 140.444 40.7961C140.523 40.6087 140.614 40.6156 140.679 40.8323C140.729 41.0111 141.22 41.4073 141.794 41.6808C142.798 42.1987 142.824 42.2099 142.329 41.5278C142.089 41.2176 141.962 41.0542 141.988 41.0241C142.018 40.9905 142.236 41.1218 142.696 41.399C143.179 41.6657 146.139 43.0404 149.244 44.4445C155.332 47.1697 167.059 52.4942 167.606 52.7565C167.766 52.8238 167.88 52.9982 167.835 53.1053C167.779 53.2392 168.76 53.8106 170.052 54.387C171.306 54.979 155.054 48.1249 133.931 39.1531C132.983 38.7508 132.05 38.3551 131.132 37.966C126.831 36.8789 121.473 35.5058 116.335 34.1761C118.213 35.2021 127.536 39.5073 136.756 43.6469C137.086 43.7809 137.335 43.8918 137.472 43.9682C137.99 44.2004 138.507 44.4317 139.022 44.6616C141.102 45.446 145.616 47.0134 153.793 49.7699C161.981 52.55 178.463 59.2535 176.931 59.1661C176.665 59.1536 175.2 58.6025 173.682 57.9165C172.163 57.2305 168.676 55.9761 165.97 55.1461C161.58 53.7959 160.988 53.6641 160.65 54.0236C160.442 54.2378 160.181 54.3171 160.085 54.2306C159.996 54.116 158.321 53.5677 156.407 53.0146C153.463 52.1798 152.845 51.9207 152.75 51.5031C152.643 51.0218 152.559 50.999 151.978 51.262C151.567 51.4509 150.694 51.3627 149.127 50.9645C147.901 50.6297 147.324 50.4418 147.848 50.4947C148.365 50.5757 148.745 50.4989 148.7 50.3359C148.659 50.1888 145.617 49.2459 141.537 48.1327C143.406 49.0257 145.555 50.0445 147.057 50.7441C149.231 51.7555 151.34 52.7713 151.732 53.0311C152.161 53.2754 156.653 55.3275 161.715 57.5884C169.319 60.953 170.949 61.7669 171 62.1667C171.047 62.5017 171.613 62.8669 173.076 63.4838C176.986 65.1329 174.692 64.4808 169.369 62.3935C166.425 61.2778 163.617 60.283 163.109 60.2262C162.365 60.1332 127.44 46.0026 123.575 44.2464C122.895 43.928 122.211 43.7659 122.075 43.8661C121.901 43.9818 122.707 44.4479 124.265 45.1365C124.864 45.4033 125.467 45.6903 125.98 45.9501C126.285 46.0577 126.402 46.1201 126.347 46.1393C126.808 46.3812 127.157 46.5842 127.302 46.7012C127.584 46.95 126.601 46.6225 124.784 45.9004C124.032 45.7489 123.028 45.5291 121.809 45.2459C121.769 45.2364 121.728 45.2267 121.686 45.2168C122.433 45.5909 123.301 46.0112 124.216 46.4406C126.91 47.7031 129.7 49.0373 130.396 49.3937C131.118 49.7614 135.184 51.634 139.448 53.5584C142.962 55.1182 146.977 56.9959 149.312 58.1317C150.146 58.39 150.753 58.5843 151.052 58.6903C152.171 59.0864 153.408 59.4849 153.798 59.5914C154.327 59.736 154.368 59.8073 153.967 59.8485C153.771 59.879 152.816 59.6434 151.602 59.2885C153.377 60.1999 155.611 61.3117 157.029 62.0141C157.174 62.0859 157.317 62.1575 157.458 62.2286C164.99 64.877 169.501 66.7347 169.376 67.1926C169.31 67.4353 166.694 66.7572 163.957 65.8367C166.366 67.0688 170.127 68.9453 175.669 71.6732C183.418 75.5093 198.872 84.3292 197.365 84.0404C197.103 83.993 195.723 83.2533 194.309 82.3729C192.894 81.4925 189.603 79.7889 187.03 78.6092C182.857 76.6917 182.287 76.4829 181.905 76.7948C181.67 76.9797 181.401 77.0238 181.317 76.9254C181.245 76.8002 179.656 76.0356 177.832 75.2348C175.024 74.0189 174.446 73.6806 174.407 73.254C174.364 72.7626 174.284 72.7289 173.673 72.9131C173.241 73.0462 172.387 72.8436 170.886 72.2421C169.716 71.7485 169.169 71.4862 169.681 71.6078C170.183 71.7561 170.569 71.7301 170.546 71.5626C170.523 71.3951 166.977 69.7736 162.444 67.8933C158.029 66.0311 154.792 64.7921 155.252 65.1123C155.712 65.4325 151.731 63.8794 146.373 61.6514C144.596 60.9078 143.038 60.2666 141.704 59.7292C140.155 59.3123 138.542 58.8772 136.884 58.4288C136.903 58.4396 136.922 58.4507 136.941 58.4618C138.526 59.3827 145.501 62.8287 147.511 63.7081C150.361 64.9731 148.808 64.5703 144.564 62.9698C142.269 62.0966 136.904 59.9601 132.615 58.2456C129.539 56.9941 126.426 55.7928 124.564 55.1014C123.557 54.8327 122.558 54.5674 121.573 54.3065L122.104 54.7903C122.694 55.323 124.99 56.4173 130.032 58.5754C134.634 60.5161 137.195 61.7226 137.302 61.9885C137.409 62.2545 137.121 62.1958 136.357 61.779C135.767 61.4674 135.16 61.2742 135.035 61.3476C134.936 61.4323 130.901 59.8567 126.102 57.8643C118.469 54.6447 117.356 54.2383 116.905 54.4898C116.644 54.6635 115.76 54.6059 114.916 54.3764C112.467 53.7218 114.01 54.5935 120.474 57.5405C124.446 59.3415 126.357 60.0844 126.436 59.897C126.492 59.7631 126.682 59.6854 126.841 59.7527C126.974 59.8088 126.982 59.9383 126.835 60.0653C126.649 60.2078 128.424 61.051 131.962 62.543C134.843 63.758 140.03 66.0345 143.716 67.652L144.087 67.8146C147.225 69.2184 152.989 71.7529 157.862 73.8952C158.719 74.2722 159.549 74.637 160.332 74.9814C165.565 77.2828 170.721 79.6154 171.778 80.1557C172.835 80.6959 174.009 81.2543 174.381 81.4113C174.887 81.6245 174.917 81.7005 174.515 81.6885C174.231 81.6947 172.475 80.9543 170.647 80.0887C168.83 79.1963 163.168 76.6506 158.069 74.4052C147.816 69.8921 148.927 70.6758 160.469 76.1428C177.384 84.097 189.126 90.279 188.821 91.0019C188.697 91.2964 184.692 89.5757 181.556 87.8746C180.16 87.097 178.922 86.543 178.785 86.6432C178.634 86.7054 168.493 82.523 156.193 77.3671C150.866 75.1205 145.395 72.8456 140.411 70.7994C140.217 70.7611 140.016 70.721 139.808 70.679C137.172 70.1394 135.651 69.9042 136.387 70.1657C136.72 70.2696 137.032 70.3679 137.286 70.448C137.621 70.5536 137.856 70.6273 137.903 70.6403C137.987 70.6632 138.017 70.8822 137.975 71.142C137.881 71.598 136.648 71.2912 121.671 67.2884C120.303 66.9195 119.023 66.5752 117.827 66.2544C119.109 66.8591 122.552 68.3508 126.546 70.0354C128.856 71.0242 130.956 71.9379 132.531 72.6376C138.696 74.4654 143.386 75.9753 145.345 76.8012C146.226 77.1924 146.752 77.4567 146.522 77.4239C146.152 77.353 146.144 77.381 146.437 77.7322C146.69 78.0121 146.555 78.0657 145.859 77.8755C145.302 77.7232 145.027 77.5274 145.184 77.3897C145.342 77.252 144.955 77.0257 144.231 76.8279C143.562 76.6452 142.193 76.1806 141.165 75.7793C139.672 75.2206 139.303 75.1497 139.413 75.5112C139.503 75.8371 139.189 75.7815 137.808 75.2532C134.989 74.1759 126.495 71.7902 116.168 69.104C118.123 70.0037 119.699 70.7345 120.194 70.9831C120.969 71.3732 125.962 73.5737 131.297 75.8553C136.632 78.1368 141.694 80.3978 142.58 80.8975C143.556 81.4041 144.339 81.7026 144.604 81.5937C144.896 81.4961 144.911 81.5341 144.639 81.7345C144.355 81.9617 144.412 82.0489 144.883 82.1213C145.247 82.1488 145.491 82.3145 145.446 82.4216C145.333 82.6894 150.549 84.7318 151.061 84.6323C151.255 84.6193 151.946 84.911 152.608 85.3477L153.779 86.0624L152.647 85.7743C151.948 85.5742 152.876 86.1231 155.16 87.2442C157.163 88.215 159.022 89.1566 159.292 89.3335C159.55 89.5373 160.778 90.1181 161.975 90.6229C163.613 91.3451 164.137 91.661 163.956 91.8684C163.775 92.0757 162.312 91.6798 159.057 90.559C156.515 89.6764 155.038 89.2425 155.734 89.599C156.05 89.7459 156.346 89.8845 156.587 89.9974C156.906 90.1463 157.128 90.2503 157.174 90.2695C157.254 90.3031 157.254 90.5242 157.179 90.7764C157.025 91.216 155.844 90.7492 141.527 84.8055C125.944 78.2966 122.388 76.923 122.196 77.3781C122.14 77.512 122.759 77.8995 123.61 78.2585C126.377 79.4252 124.748 79.0535 120.539 77.5937C118.248 76.7853 116.254 76.165 116.064 76.2428C115.913 76.305 122.848 79.3244 131.541 82.9279C146.337 89.0735 160.124 95.235 163.739 97.3591C164.561 97.8631 165.047 98.1946 164.823 98.1316C164.466 98.0126 164.455 98.0393 164.699 98.4262C164.913 98.737 164.772 98.7724 164.107 98.492C163.575 98.2676 163.328 98.0371 163.502 97.9213C163.676 97.8056 163.323 97.5302 162.631 97.2385C161.993 96.9693 160.697 96.3281 159.731 95.7947C158.325 95.0439 157.967 94.9248 158.029 95.2978C158.076 95.6329 157.772 95.5363 156.472 94.8303C151.527 92.1453 127.62 82.3463 108.578 75.1986C102.785 73.0389 95.7636 70.2984 92.9595 69.1473C90.1554 67.9962 88.1266 67.2352 88.4425 67.5261C88.8229 67.8127 87.8089 67.5428 85.6359 66.7524C82.1636 65.4772 78.1141 64.0847 76.8874 63.725C76.4924 63.6215 75.8315 63.4058 75.4212 63.2643C74.7449 63.0106 74.6692 63.0417 74.8681 63.5356C75.0784 64.0028 76.3704 64.5792 83.768 67.5415C88.5363 69.4579 92.3286 71.0889 92.1504 71.1399C91.9876 71.2289 90.0958 70.5887 87.9035 69.6956C81.6344 67.1778 78.1781 66.1616 79.4869 67.2182C80.3049 67.8785 77.3573 66.9192 70.1692 64.203C66.3246 62.7707 64.2506 62.1168 63.9588 62.2145C63.6065 62.3812 64.5793 62.8231 68.2951 64.2641C72.4742 65.869 73.0634 66.1805 72.7949 66.4457C72.6135 66.653 72.6255 66.8473 72.8383 66.9371C73.5299 67.2287 74.1595 67.1474 74.1733 66.7432C74.1838 66.4954 74.7343 66.6014 75.9804 67.0639C77.2644 67.5108 77.6827 67.7818 77.4594 67.9399C77.2474 68.0713 76.7992 67.9453 76.1794 67.5578C75.5177 67.121 75.176 67.04 75.0856 67.2541C74.984 67.4951 76.1583 68.0535 79.9917 69.5125C82.7765 70.5609 84.9689 71.454 84.8552 71.5006C84.6544 71.6052 82.9336 71.0056 76.5322 68.6527C74.9024 68.0599 72.9841 67.4086 72.274 67.2352C71.5751 67.0351 67.9771 65.6122 64.28 64.0529C60.5715 62.5204 57.6118 61.3668 57.6884 61.5567C57.6972 61.5787 57.7541 61.6223 57.8535 61.6846C58.3049 61.7303 59.0125 62.0728 59.6804 62.6064C59.7211 62.6373 59.764 62.6689 59.8086 62.7008C60.6837 63.1253 61.7649 63.6285 62.9257 64.144C65.7491 65.3979 70.3893 67.5441 73.2433 68.874C73.5458 69.014 73.8329 69.1464 74.1052 69.2713C74.8533 69.2466 75.9896 69.7088 76.0032 70.1099C76.0032 70.1157 76.0031 70.1213 76.0028 70.1269C77.7618 70.8999 78.4644 71.1282 78.5283 70.9768C78.7203 70.5216 79.7882 71.0351 80.7021 71.9882C81.1437 72.4267 81.8779 72.9887 82.3567 73.1906C82.9305 73.4642 82.6573 73.4436 81.5522 73.1667C80.6446 72.9416 79.6273 72.8279 79.2976 72.9412C78.93 73.07 77.7491 72.8242 75.9751 72.2022C74.4936 71.7035 73.0049 71.2964 72.7203 71.3025C72.4245 71.3354 72.1359 71.2768 72.09 71.1628C72.0441 71.0488 71.7289 70.979 71.3952 71.0275C70.9703 71.0691 72.0117 71.5713 75.0891 72.7431C77.4257 73.6655 79.5036 74.3842 79.6439 74.3487C79.8107 74.3245 79.8832 74.4497 79.8155 74.6103C79.7252 74.8245 79.9001 74.9298 80.2378 74.9461C81.1447 74.9501 91.3882 79.1127 91.2527 79.434C91.1963 79.5679 91.3792 79.8027 91.6718 79.9261C91.9643 80.0495 92.2602 80.0166 92.3166 79.8827C92.4747 79.5079 93.1969 79.8755 93.1718 80.3065C93.1387 80.6079 93.2451 80.6527 93.7038 80.5308C94.3632 80.3043 95.9405 81.0957 95.8928 81.5802C95.867 81.7901 95.5978 81.8342 95.252 81.6884C90.7948 79.777 85.928 77.9452 85.849 78.1326C85.7925 78.2665 85.6144 78.3175 85.4548 78.2502C85.3218 78.1941 85.3138 78.0646 85.4613 77.9376C85.8701 77.6369 84.3201 77.0778 83.7365 77.2732C83.3197 77.4443 83.3044 77.4063 83.5882 77.1791C83.872 76.9519 83.4577 76.7456 81.2355 75.9976C79.7274 75.4877 78.3717 75.1367 78.1669 75.1765C77.9887 75.2275 77.3358 75.1414 76.7434 74.9861C75.8358 74.761 75.7141 74.6781 76.1043 74.4958C76.4679 74.3022 76.3688 74.1658 75.5442 73.8181C74.997 73.5557 74.0361 73.3082 73.3945 73.1953C72.7682 73.1203 71.4084 72.7045 70.4243 72.2895C69.4136 71.8632 68.5326 71.6493 68.4761 71.7832C68.4196 71.9171 69.3965 72.4237 70.8022 72.9534C72.1547 73.4608 73.196 73.9631 73.1622 74.0434C73.0266 74.3647 64.8239 71.1574 57.7101 67.9679C56.1643 67.28 54.3297 66.4702 52.4637 65.6525C52.0986 65.9041 43.7042 63.8399 36.3561 61.654C32.0907 60.3978 25.7369 58.571 22.2004 57.6044C13.0033 55.1209 5.28473 52.0475 3.17469 50.0249C2.96243 49.8163 2.50439 49.6308 2.17506 49.6312C1.51639 49.6319 1.23396 49.133 1.37579 48.1777C1.46105 47.5383 2.6582 46.9919 2.8139 47.5164C3.0071 48.2319 3.42083 47.9233 3.63369 46.9271C3.92613 45.531 3.58318 44.9252 2.00446 44.1322C0.792576 43.5299 0.684034 43.3798 0.560756 42.0809C0.422128 40.8381 0.47584 40.6419 0.95294 40.3204C1.46556 39.9786 1.5491 40.0014 2.04663 40.5892C2.39527 40.9556 3.50345 41.4995 4.87276 41.9641C6.78365 42.6369 7.53068 42.7507 9.26373 42.652C10.414 42.6049 11.496 42.4789 11.6381 42.3973C12.4752 41.9633 6.72348 40.4516 5.35727 40.7409C4.98475 40.7897 4.81767 40.7441 4.86371 40.5759C4.90975 40.4078 5.24192 40.2877 5.61928 40.3306C5.97645 40.3378 6.53623 40.3703 6.85789 40.398C7.18722 40.3976 6.72917 40.2122 5.81791 39.933C4.40541 39.5168 4.25367 39.4151 4.65973 39.1345C4.91604 38.9636 5.19736 38.92 5.31357 39.0421C5.42978 39.1642 5.97421 39.2528 6.52149 39.2216C7.03325 39.2108 8.05676 39.1893 8.77112 39.2038C10.291 39.2276 10.482 38.8581 9.24227 38.2482C8.18212 37.7476 7.83236 36.8386 8.38421 36.0255C8.70475 35.5107 8.64905 35.4954 7.34225 35.3491C6.59522 35.2353 5.76947 35.1904 5.55153 35.2212C5.30574 35.2444 5.16167 35.1147 5.20004 34.9745C5.24608 34.8064 6.01897 34.7164 6.90808 34.7485C8.1467 34.8159 8.56241 34.7187 8.67751 34.2983C8.7926 33.8779 8.59285 33.7329 7.3676 33.398C6.06648 33.0123 5.96277 32.9539 6.50039 32.7393C6.84024 32.5912 7.80039 32.5825 8.66648 32.6987C9.72749 32.8682 10.2824 32.809 10.3515 32.5568C10.4129 32.3326 10.3706 32.0499 10.2265 31.9201C9.94605 31.6326 11.6152 29.7995 12.5791 29.3399C12.9621 29.1434 13.5756 28.9797 13.9606 28.9945C14.409 28.9966 14.6807 28.7696 14.8034 28.3212C14.9032 27.9568 14.8484 27.6105 14.6534 27.5572C14.4028 27.4887 14.4258 27.4047 14.7455 27.2209C15.2073 26.9555 14.6952 26.0926 13.9232 25.8515C13.1992 25.6536 12.665 24.5437 12.9808 23.9371C13.1208 23.6441 13.7784 23.1008 14.4177 22.7333C15.4757 22.1489 16.094 22.0769 19.2222 22.239C23.0091 22.4004 24.1525 22.0502 22.0313 21.3801L20.8416 21.0248L21.9305 21.2019C22.5028 21.2981 23.0222 21.2593 23.0605 21.1192C23.1526 20.7828 19.9031 19.5333 18.1863 19.2448C17.4114 19.1234 16.8698 18.9151 16.9917 18.7978C17.1059 18.7085 16.8303 18.5127 16.4126 18.3986C15.9671 18.2768 15.4792 17.8723 15.2851 17.4879C15.1189 17.1112 14.7981 16.7524 14.5754 16.6915C14.3804 16.6382 14.0721 16.3431 13.9463 16.0376C13.8204 15.7321 13.4871 15.3096 13.1836 15.1062C12.7438 14.745 12.7515 14.717 13.197 14.8387C13.5388 14.902 13.7241 14.7719 13.7605 14.4204C13.8045 14.0408 13.4809 13.8018 12.4938 13.4717C11.7851 13.2178 11.2387 12.9178 11.2694 12.8057C11.3461 12.5255 12.4051 12.4836 13.3241 12.7347C13.7418 12.8489 14.216 12.6471 14.79 12.081C15.6434 11.2599 15.8613 11.2291 17.9584 11.4408C18.86 11.5366 19.1009 11.4217 19.7949 10.5269C20.7153 9.24217 20.5942 9.02835 18.5969 8.45236L17.2123 8.04381L18.1551 7.87976C19.4071 7.67971 18.7109 7.48945 16.2058 7.34702C15.0584 7.27442 13.9466 7.1814 13.7238 7.12052C12.8125 6.84134 14.3074 6.73781 15.8649 6.9526C17.6806 7.20785 19.2647 6.88772 19.1954 6.26631C19.1733 6.01927 19.2097 5.66774 19.271 5.44353C19.3248 5.24734 18.979 4.76123 18.5113 4.39242C17.9754 3.94473 17.7458 3.58075 17.9262 3.35895C18.122 3.08111 17.9069 2.9922 16.5367 2.85871C15.4249 2.76569 14.8401 2.60587 14.6989 2.35641C14.5576 2.10695 15.1251 2.11142 16.5001 2.3366C17.7282 2.55175 18.6605 2.53544 18.8333 2.34167C19.199 1.98977 22.0536 2.16747 23.9471 2.68499C24.8104 2.92092 25.5247 2.93542 26.0345 2.71326L26.7929 2.34819L25.8998 1.89325C25.3813 1.60091 25.1969 1.39989 25.4705 1.38431C25.5896 1.38672 25.7561 1.37953 25.9227 1.37235C26.0893 1.36516 26.2559 1.35797 26.375 1.36039C26.7753 1.31919 26.783 1.29117 26.4824 0.96802C26.2096 0.652481 26.3085 0.619259 26.8376 0.763862C28.1742 1.12917 33.6271 1.6555 34.423 1.48143C35.5002 1.26374 38.9387 1.93238 44.7183 3.45172C47.3637 4.17472 49.0575 4.54728 48.4679 4.29577ZM51.7259 65.3294C50.7849 64.9178 49.8446 64.5079 48.9378 64.1144C48.155 63.9429 47.5629 63.9026 47.532 64.0155C47.4936 64.1557 48.5288 64.5289 49.9921 64.8686C50.673 65.0256 51.2816 65.191 51.7259 65.3294ZM61.8609 61.3224C61.873 61.3399 61.8858 61.3582 61.8995 61.3775C62.2846 61.9499 62.6304 62.0957 62.5644 61.6579C62.5601 61.5878 62.525 61.5129 62.4708 61.4411C62.2909 61.4075 62.0883 61.368 61.8609 61.3224ZM52.5387 57.2651C53.3544 57.6686 54.4922 58.1903 55.6715 58.6877C58.6086 59.8949 59.0833 60.032 57.8897 59.3709C57.0553 58.8783 55.7039 58.2299 54.4417 57.6751C53.8764 57.5571 53.2425 57.4205 52.5387 57.2651ZM110.247 66.4029C110.668 66.5158 111.094 66.6297 111.524 66.7443C117.565 68.3601 123.454 69.9985 128.619 71.4926C126.591 70.6546 123.94 69.5508 120.468 68.103L112.855 64.9291C111.774 64.6432 110.79 64.3852 109.895 64.153L110.534 64.5439C112.188 65.5253 113.636 66.3253 113.792 66.3279C113.921 66.3192 113.956 66.46 113.877 66.6474C113.752 66.9419 113.08 66.753 110.85 65.8755C108.977 65.117 108.186 64.6889 108.6 64.6741C109.169 64.6618 109.153 64.6238 108.515 64.3546C108.101 64.1483 107.736 64.1208 107.669 64.2815C107.601 64.4421 106.784 64.2239 105.774 63.7976C104.816 63.3938 104.038 63.16 104.11 63.2852C104.23 63.5835 105.446 64.2238 110.247 66.4029ZM107.443 58.9506C108.387 59.2171 109.364 59.4913 110.351 59.7666C113.262 60.5778 116.099 61.3932 118.282 62.0419C114.875 60.7307 111.923 59.5792 110.713 59.0688C108.228 58.0523 107.199 57.7443 106.938 57.918C106.665 58.1184 106.019 57.9407 104.712 57.3263C103.697 56.8352 102.744 56.4962 102.592 56.5584C102.338 56.6405 104.93 57.923 107.415 58.9394C107.424 58.9431 107.434 58.9469 107.443 58.9506ZM120.327 44.1409C120.064 44.0527 119.798 43.9632 119.532 43.8732C119.72 43.9278 119.99 44.0193 120.327 44.1409ZM100.36 25.024C100.304 25.0358 100.296 25.0802 100.341 25.1603C100.442 25.3385 100.817 25.5011 101.194 25.544C101.468 25.5762 101.609 25.579 101.604 25.5388C101.173 25.3601 100.758 25.1884 100.36 25.024ZM138.336 39.7543C138.352 39.7798 138.357 39.8014 138.35 39.8184C138.305 39.9255 138.48 40.0308 138.726 40.0402C138.85 40.0449 139.022 40.0463 139.193 40.0478C139.365 40.0493 139.537 40.0507 139.66 40.0554C139.663 40.0555 139.666 40.0557 139.669 40.0558C139.436 40.011 138.979 39.9073 138.336 39.7543ZM149.403 50.8292C149.654 50.8977 149.915 50.8185 149.953 50.6784C150.045 50.3421 150.017 50.3344 149.396 50.5262C148.973 50.6514 148.985 50.7151 149.403 50.8292ZM46.1223 63.4797C46.2741 63.5814 46.6082 63.6727 46.8185 63.6699C47.0086 63.6315 46.8847 63.5374 46.4949 63.4308C46.105 63.3243 45.9504 63.3423 46.1223 63.4797ZM43.9571 63.1891C44.1924 63.3137 44.5822 63.4202 44.7925 63.4174C44.9826 63.379 44.803 63.2697 44.3296 63.1403C43.8841 63.0185 43.7017 63.0289 43.9571 63.1891ZM171.178 72.1444C171.417 72.2454 171.687 72.2013 171.743 72.0674C171.879 71.7461 171.852 71.7349 171.211 71.843C170.775 71.9114 170.779 71.9762 171.178 72.1444ZM147.509 69.9517C147.646 70.0726 147.965 70.2072 148.174 70.2322C148.368 70.2192 148.257 70.1095 147.885 69.9525C147.512 69.7954 147.357 69.7929 147.509 69.9517ZM113.796 75.3808C114.405 76.0162 114.911 76.2293 114.86 75.8295C114.848 75.6352 114.494 75.3598 114.084 75.2183C113.446 74.9491 113.408 74.9647 113.796 75.3808ZM55.351 60.4132C55.5033 60.5721 55.754 60.6463 55.8677 60.5996C56.0079 60.5642 55.8822 60.4165 55.5783 60.3199C55.2858 60.1965 55.1721 60.2432 55.351 60.4132ZM79.0836 71.3687C79.3004 71.5232 79.6728 71.6802 79.8815 71.7052C80.075 71.6922 79.9114 71.5601 79.4592 71.3694C79.0337 71.1899 78.8515 71.1762 79.0836 71.3687ZM69.8419 70.6247C69.9942 70.7835 70.2449 70.8577 70.3586 70.811C70.4989 70.7756 70.3731 70.628 70.0693 70.5313C69.7767 70.4079 69.663 70.4546 69.8419 70.6247ZM67.1495 71.066C67.2865 71.1868 67.6056 71.3215 67.8144 71.3464C68.0079 71.3334 67.8975 71.2238 67.5251 71.0667C67.1527 70.9097 66.9972 70.9071 67.1495 71.066ZM65.0417 70.4924C65.2585 70.6469 65.6308 70.8039 65.8396 70.8289C66.0331 70.8159 65.8695 70.6838 65.4173 70.4931C64.9917 70.3136 64.8096 70.2999 65.0417 70.4924Z" fill="#6EB600"/>
</g>
</svg>
