<svg width="209" height="84" viewBox="0 0 209 84" fill="none" xmlns="http://www.w3.org/2000/svg">
<g id="Union" style="mix-blend-mode:multiply">
<path d="M160.872 0.692057C160.991 0.812044 161.302 0.825102 161.561 0.720643C161.724 0.655355 161.767 0.599773 161.698 0.560601C161.646 0.530428 161.526 0.509959 161.343 0.502372C160.964 0.486844 160.752 0.57207 160.872 0.692057Z" fill="#FFA100"/>
<path fill-rule="evenodd" clip-rule="evenodd" d="M160.823 2.30412C159.068 1.93004 157.42 1.59073 156.274 1.37034C153.898 0.913857 151.563 0.525487 151.084 0.50696C149.359 0.440967 150.646 0.848923 154.324 1.53408C160.388 2.66338 164.039 3.46023 163.88 3.61921C163.798 3.70126 161.182 3.26578 158.065 2.65138C156.362 2.31612 154.803 2.03962 153.723 1.87446C152.824 1.73736 152.255 1.67719 152.208 1.72448C152.105 1.82894 152.572 2.02762 153.247 2.16613C153.945 2.30941 154.23 2.37576 154.159 2.4511C154.113 2.50086 153.912 2.55433 153.576 2.6362C153.256 2.71402 153.416 2.78813 153.933 2.83894C154.239 2.86877 154.667 2.89047 155.195 2.9C156.581 2.92488 158.605 3.19855 159.694 3.50752C160.831 3.8306 161.138 3.99241 160.414 3.88795C156.753 3.36159 156.453 3.40659 158.974 4.10551C161.773 4.88173 162.614 4.98689 163.834 4.71374C164.229 4.62516 164.351 4.62234 164.104 4.70792C163.856 4.79332 163.654 5.01406 163.654 5.19793C163.654 5.38232 163.37 5.53548 163.024 5.53848C162.485 5.54307 162.472 5.59512 162.934 5.89438C163.775 6.43962 162.576 6.35439 158.254 5.56053C146.715 3.44064 141.639 2.57691 141.506 2.71031C141.425 2.79271 144.178 3.41612 147.626 4.09616C151.073 4.77585 153.836 5.38991 153.767 5.45996C153.697 5.53054 151.964 5.32921 149.917 5.01301C143.469 4.01747 118.528 1.62302 114.066 1.57132C113.423 1.56408 112.896 1.72059 112.896 1.91928C112.896 2.05232 113.045 2.16931 113.265 2.23213C113.374 2.26301 113.5 2.28065 113.635 2.28065C114.04 2.28065 114.814 2.51004 115.354 2.7906C115.894 3.07098 118.513 3.48582 121.174 3.71238C122.155 3.79602 123.075 3.87842 123.847 3.95112C125.169 4.07552 126.06 4.17151 126.084 4.19656C126.123 4.23609 122.943 4.2682 119.017 4.2682C115.091 4.2682 111.756 4.38995 111.608 4.53923C111.044 5.10264 111.985 5.36026 115.535 5.61471C117.549 5.75887 120.087 6.03131 121.176 6.22064C122.78 6.49926 122.406 6.5282 119.196 6.37292C115.124 6.17582 114.236 6.61713 117.876 7.02844C119.91 7.25782 119.908 7.25853 117.495 7.16748C116.164 7.11719 115.16 7.21706 115.266 7.38857C115.373 7.56061 116.478 7.70125 117.723 7.70125C118.968 7.70125 121.267 7.81947 122.832 7.96398C125.414 8.20202 125.543 8.24913 124.236 8.47463C123.695 8.56762 123.806 8.62144 124.455 8.62832C124.819 8.63221 125.353 8.62127 126.036 8.59427C127.865 8.52157 128.636 8.49369 128.52 8.54539C128.437 8.58209 127.906 8.65885 126.989 8.78819C123.665 9.25737 123.463 9.5374 126.576 9.36095C128.061 9.27678 128.87 9.32884 128.375 9.47635C127.704 9.6768 128.181 9.81426 130.252 10.0177C131.779 10.1672 133.197 10.1857 133.402 10.0585C133.607 9.93089 133.775 9.97783 133.775 10.1629C133.775 10.4599 135.226 10.684 140.435 11.1929C143.416 11.4837 146.798 12.1367 146.448 12.3543C146.249 12.4781 147.326 12.6119 148.84 12.6509C153.749 12.7778 167.443 15.7132 177.153 18.7194C182.548 20.3901 186.332 21.4214 186.332 21.221C186.332 21.129 185.927 20.8997 185.432 20.7107C184.938 20.5217 184.533 20.1972 184.533 19.9893C184.533 19.782 185.171 19.9387 185.951 20.3384C186.732 20.7386 187.623 20.9683 187.931 20.8494C188.24 20.7306 188.492 20.8134 188.492 21.0334C188.492 21.2534 188.047 21.4504 187.502 21.4707C186.65 21.5028 186.708 21.5599 187.921 21.882C189.134 22.2038 189.396 22.1641 189.811 21.5949C190.267 20.969 190.292 20.9762 190.292 21.7258C190.292 22.5272 190.8 22.7933 191.173 22.1869C191.285 22.0051 191.173 21.7741 190.924 21.6734C190.784 21.6169 190.767 21.5621 190.853 21.5222C190.92 21.4909 191.05 21.4689 191.234 21.462C191.652 21.4465 192.42 21.7692 192.94 22.1796C193.46 22.5902 194.047 22.8251 194.246 22.7021C194.444 22.5789 194.891 22.6578 195.239 22.8768C195.788 23.2214 195.764 23.2451 195.062 23.0524C194.616 22.9303 194.252 22.9848 194.252 23.1738C194.252 23.3627 194.652 23.5941 195.141 23.6879C195.419 23.7414 195.643 23.7488 195.768 23.7171C195.862 23.6931 195.899 23.6465 195.859 23.5803C195.764 23.4271 195.891 23.2279 196.14 23.1376C196.389 23.0469 195.911 22.6931 195.079 22.3517C193.755 21.8075 193.617 21.648 193.976 21.0713C194.372 20.4352 194.445 20.4359 196.119 21.0983C197.072 21.4758 197.852 21.6365 197.852 21.4562C197.852 21.2759 197.244 20.9318 196.502 20.6914C195.759 20.4516 194.99 20.1286 194.792 19.9735C194.672 19.8799 194.13 19.6442 193.397 19.3591C192.913 19.171 192.347 18.9613 191.764 18.757C190.296 18.2432 189.025 17.7518 188.938 17.6649C188.852 17.5787 189.891 17.5483 191.247 17.5977C192.838 17.6563 194.334 17.9679 195.468 18.4766C198.11 19.6631 197.988 19.3921 195.242 17.9776C193.905 17.2887 192.812 16.5653 192.812 16.3691C192.812 15.8842 192.77 15.8733 195.634 17.0969C197.031 17.6932 198.345 18.1811 198.558 18.1811C198.678 18.1811 199.285 18.4189 200.137 18.7905C200.798 19.0787 201.606 19.4473 202.447 19.8477C206.019 21.5465 207.571 22.0102 207.571 21.3773C207.571 21.1827 207.244 21.1276 206.842 21.2556C206.1 21.492 205.95 20.7927 206.635 20.2948C206.927 20.0827 202.585 17.868 200.701 17.2679C200.166 17.0973 200.052 16.9115 200.32 16.6428C200.588 16.3738 200.849 16.3836 201.2 16.6756C201.62 17.0253 204.58 18.3501 207.841 19.6479C209.012 20.1137 208.836 19.7335 207.481 18.8706C206.467 18.2245 206.431 18.1555 207.211 18.3508C207.988 18.546 208.023 18.5211 207.46 18.168C207.101 17.9432 206.539 17.8627 206.211 17.9891C205.882 18.1156 205.733 18.0983 205.881 17.9508C206.028 17.8031 205.051 17.1594 203.71 16.5205C201.624 15.5267 201.45 15.3776 202.509 15.4874C203.19 15.5583 204.162 15.9197 204.669 16.2907C206.081 17.3235 206.795 17.51 206.695 16.8204C206.64 16.4497 205.357 15.7136 203.22 14.828C201.357 14.0553 199.67 13.2542 199.472 13.0477C199.257 12.8233 199.428 12.8353 199.898 13.0777C200.984 13.6378 201.826 13.566 200.81 13.0001C200.359 12.7481 200.116 12.4084 200.27 12.2452C200.425 12.0818 200.147 12.0561 199.652 12.1884L198.752 12.4291L199.594 11.9326C200.401 11.4563 200.328 11.402 197.794 10.6122C196.341 10.1592 193.451 9.24908 191.372 8.5895C183.653 6.14053 181.231 5.47954 180.71 5.68017C180.38 5.80721 180.269 5.73434 180.419 5.49031C180.587 5.21645 180.287 5.16881 179.448 5.33574C178.658 5.4926 178.402 5.4596 178.717 5.24133C179.381 4.78132 177.68 4.35925 176.343 4.65199C175.688 4.79544 175.512 4.75609 175.823 4.53482C176.553 4.01552 171.794 2.92999 170.759 3.37995C170.106 3.66333 170.192 3.69103 171.213 3.52517C172.178 3.36865 172.347 3.41312 171.933 3.7145C171.494 4.03511 171.561 4.09581 172.293 4.04164C174.102 3.90789 175.372 4.08646 174.872 4.40442C174.208 4.82755 175.643 5.18575 177.116 4.96413C177.852 4.85367 178.015 4.89408 177.592 5.08306C177.135 5.28756 177.959 5.61965 180.472 6.24376C183.847 7.0819 186.59 8.01886 185.756 8.0485C185.539 8.05609 184.89 7.9144 184.316 7.73371C183.742 7.55267 180.762 6.82887 177.693 6.12536L166.353 3.5234C164.713 3.14685 162.707 2.70555 160.823 2.30412ZM116.94 2.90035C117.48 2.98275 118.453 2.98416 119.1 2.90406C119.746 2.82342 119.304 2.75584 118.116 2.75407C116.928 2.75195 116.398 2.81759 116.94 2.90035ZM164.471 3.94441C164.591 4.0644 164.902 4.07746 165.161 3.973C165.448 3.8576 165.363 3.77202 164.943 3.75473C164.564 3.7392 164.352 3.82443 164.471 3.94441ZM162.574 4.14469C162.079 4.14469 161.876 4.22656 162.124 4.32679C162.371 4.42719 162.776 4.42719 163.024 4.32679C163.271 4.22656 163.069 4.14469 162.574 4.14469ZM165.094 5.58242C165.094 5.38408 165.458 5.15134 165.904 5.06541C166.349 4.97895 166.47 4.88861 166.173 4.86443C165.368 4.79826 164.014 5.21645 164.014 5.53124C164.014 5.90338 168.644 7.05155 169.073 6.78546C169.26 6.66953 169.413 6.74135 169.413 6.94603C169.413 7.15019 169.638 7.23065 169.912 7.12513C170.186 7.01961 171.975 7.36122 173.888 7.88405C174.772 8.12579 175.618 8.33471 176.294 8.4824C177.081 8.65444 177.637 8.74355 177.752 8.70508C177.966 8.63397 175.786 7.97192 172.909 7.234C170.032 6.49608 167.421 5.99125 167.106 6.11265C166.783 6.23687 166.533 6.14812 166.533 5.90885C166.533 5.64858 166.254 5.57306 165.814 5.7137C165.418 5.83986 165.094 5.78092 165.094 5.58242ZM164.831 6.8354C164.951 6.95539 165.262 6.96844 165.521 6.86398C165.808 6.74858 165.723 6.66301 165.303 6.64571C164.924 6.63019 164.712 6.71541 164.831 6.8354ZM137.195 8.17361C140.914 8.41535 139.564 8.18331 132.467 7.36052C129.326 6.99615 125.946 6.70059 124.956 6.70341C122.946 6.70959 132.701 7.88123 137.195 8.17361ZM122.354 7.55814C122.473 7.67813 122.784 7.69119 123.043 7.58673C123.33 7.47133 123.245 7.38575 122.825 7.36846C122.446 7.35293 122.234 7.43816 122.354 7.55814ZM191.418 9.32672C190.674 9.28437 189.59 9.01775 189.008 8.73402C188.428 8.45028 187.547 8.19531 187.052 8.16708C186.236 8.1212 186.253 8.15155 187.232 8.4951C187.826 8.70367 190.404 9.66815 192.96 10.6381C195.517 11.6084 197.691 12.3202 197.79 12.2198C197.89 12.1198 197.742 12.0353 197.462 12.0323C197.04 12.0277 197.045 11.9608 197.492 11.6471C197.908 11.3543 197.836 11.3233 197.177 11.5108C196.626 11.6674 196.403 11.6208 196.552 11.3796C196.836 10.9185 195.496 10.4477 194.919 10.8054C194.676 10.9568 194.597 10.9084 194.732 10.6902C195.032 10.2019 193.143 9.4243 191.418 9.32672ZM141.209 8.73896C141.478 8.74884 141.759 8.72678 141.965 8.67297C142.311 8.58227 142.028 8.50781 141.335 8.50781C141.088 8.50781 140.893 8.51716 140.76 8.53339C140.52 8.56286 140.481 8.61456 140.705 8.67297C140.846 8.7102 141.024 8.73225 141.209 8.73896ZM129.901 9.03363C130.245 9.12398 130.893 9.12715 131.341 9.04087C131.789 8.95441 131.507 8.88047 130.715 8.87642C130.325 8.87447 130.038 8.89071 129.889 8.91841C129.735 8.947 129.726 8.98776 129.901 9.03363ZM159.587 12.9884C159.947 12.6271 147.915 10.7053 138.095 9.55611C135.526 9.25543 131.357 9.10668 132.875 9.37013C133.271 9.43877 136.592 9.82943 140.255 10.2388C143.918 10.6478 149.735 11.4653 153.181 12.0554C156.628 12.6452 159.51 13.065 159.587 12.9884ZM185.35 11.5332C185.47 11.6532 185.781 11.6663 186.04 11.5618C186.327 11.4464 186.242 11.3609 185.822 11.3436C185.443 11.328 185.231 11.4133 185.35 11.5332ZM199.067 16.0855C199.301 15.7056 198.957 15.5604 192.092 13.1402C189.816 12.3377 187.628 11.6936 187.232 11.7092C186.67 11.7316 192.866 14.0043 197.672 15.5387C198.068 15.6652 198.493 15.9225 198.617 16.1101C198.686 16.215 198.764 16.2652 198.842 16.2607C198.92 16.2565 198.998 16.1979 199.067 16.0855ZM160.152 13.3401C160.271 13.4601 160.582 13.4732 160.841 13.3687C161.128 13.2533 161.043 13.1677 160.623 13.1504C160.244 13.1349 160.032 13.2201 160.152 13.3401ZM167.682 15.646C168.017 15.649 168.391 15.4888 168.513 15.2901C168.795 14.8325 168.318 14.8325 167.613 15.2901C167.148 15.5918 167.158 15.641 167.682 15.646ZM165.911 15.147C166.031 15.267 166.342 15.28 166.601 15.1756C166.888 15.0602 166.803 14.9746 166.383 14.9573C166.004 14.9418 165.792 15.027 165.911 15.147ZM169.004 15.9362C169.264 16.0229 169.647 15.9225 169.857 15.7122C170.124 15.4439 169.983 15.397 169.384 15.5542C168.898 15.6822 168.734 15.8459 169.004 15.9362ZM170.562 16.3687C170.897 16.3717 171.271 16.2115 171.393 16.0128C171.674 15.5553 171.198 15.5553 170.493 16.0128C170.028 16.3146 170.038 16.3638 170.562 16.3687ZM201.452 18.3145C202.202 18.4983 202.172 18.4484 201.272 18.0131C200.678 17.7256 200.03 17.4887 199.832 17.4858C199.568 17.4818 199.698 17.6161 200.018 17.7842C200.361 17.9649 200.923 18.1849 201.452 18.3145ZM179.784 18.1558C179.525 18.1417 179.637 17.9907 180.033 17.8197C180.496 17.6194 180.561 17.506 180.213 17.4998C179.916 17.4952 179.187 17.7207 178.593 18.0018L177.513 18.5128L178.556 18.2942C179.291 18.1401 179.525 18.1984 179.345 18.4897C179.205 18.7173 179.252 18.9038 179.451 18.9038C180 18.9038 180.322 18.1846 179.784 18.1558ZM176.793 18.1698C176.991 18.1698 177.396 18.0124 177.693 17.8197C177.99 17.627 178.071 17.4694 177.873 17.4694C177.675 17.4694 177.27 17.627 176.973 17.8197C176.676 18.0124 176.595 18.1698 176.793 18.1698ZM191.372 20.7717C190.691 20.3241 185.598 18.6963 183.453 18.2411C181.319 17.7883 180.417 17.7973 182.013 18.2555C188.937 20.2448 190.789 20.7797 191.307 20.9397C191.817 21.0969 191.827 21.0706 191.372 20.7717ZM203.711 19.397C203.367 19.3462 203.027 19.1321 202.958 18.9211C202.887 18.7104 202.665 18.64 202.464 18.7651C202.263 18.89 202.95 19.4603 203.992 20.032C205.431 20.8217 205.854 21.081 205.973 20.9799C206.039 20.9244 206.012 20.7597 206.012 20.5145C206.012 20.2076 205.815 20.0324 205.575 20.1249C205.335 20.2173 204.959 20.1118 204.739 19.8911C204.519 19.6703 204.057 19.4476 203.711 19.397ZM190.03 19.1221C190.149 19.2421 190.46 19.2551 190.72 19.1507C191.007 19.0353 190.921 18.9497 190.502 18.9324C190.123 18.9169 189.91 19.0021 190.03 19.1221ZM188.994 21.7948C189.072 21.7948 189.228 21.5509 189.342 21.2527C189.415 21.0638 189.415 20.8967 189.358 20.7994C189.324 20.7433 189.271 20.7107 189.201 20.7107C189.009 20.7107 188.852 20.9545 188.852 21.2527C188.852 21.5509 188.916 21.7948 188.994 21.7948Z" fill="#FFA100"/>
<path d="M145.752 1.4148C145.872 1.53479 146.183 1.54785 146.442 1.44339C146.729 1.32799 146.644 1.24241 146.224 1.22512C145.845 1.20959 145.633 1.29482 145.752 1.4148Z" fill="#FFA100"/>
<path d="M149.614 1.97645C149.119 1.97645 148.917 2.05832 149.164 2.15855C149.412 2.25895 149.817 2.25895 150.064 2.15855C150.213 2.09838 150.199 2.04491 150.058 2.01174C149.964 1.98951 149.813 1.97645 149.614 1.97645Z" fill="#FFA100"/>
<path d="M149.974 3.00269C149.479 2.97128 148.345 2.73554 147.454 2.47934C146.564 2.22313 145.785 1.99233 145.723 1.96657C145.683 1.94945 145.688 2.00009 145.728 2.0892C145.749 2.13578 145.78 2.19296 145.819 2.25648C146.081 2.68031 149.838 3.48141 150.433 3.24002C150.675 3.14103 150.469 3.03445 149.974 3.00269Z" fill="#FFA100"/>
<path d="M165.911 2.49892C166.031 2.61891 166.342 2.63197 166.601 2.52751C166.888 2.41211 166.803 2.32653 166.383 2.30924C166.004 2.29371 165.792 2.37894 165.911 2.49892Z" fill="#FFA100"/>
<path d="M150.957 2.51763C151.201 2.61679 151.687 2.62279 152.037 2.53104C152.387 2.43928 152.188 2.35829 151.594 2.35106C151 2.34382 150.714 2.41864 150.957 2.51763Z" fill="#FFA100"/>
<path d="M155.112 3.22167C155.231 3.34166 155.542 3.35471 155.802 3.25025C156.088 3.13485 156.003 3.04928 155.584 3.03198C155.205 3.01646 154.992 3.10168 155.112 3.22167Z" fill="#FFA100"/>
<path d="M154.654 3.78331C154.159 3.78331 153.957 3.86519 154.204 3.96541C154.452 4.06581 154.857 4.06581 155.104 3.96541C155.352 3.86519 155.149 3.78331 154.654 3.78331Z" fill="#FFA100"/>
<path d="M109.656 6.17988C109.656 6.52026 114.596 6.47614 114.939 6.13294C115.069 6.00166 113.934 5.89438 112.417 5.89438C110.898 5.89438 109.656 6.02266 109.656 6.17988Z" fill="#FFA100"/>
<path d="M121.143 9.10033C121.386 9.09151 121.617 9.07281 121.806 9.04404C122.35 8.96129 121.905 8.89371 120.816 8.89371C119.727 8.89371 119.282 8.96129 119.826 9.04404C120.181 9.09804 120.684 9.11674 121.143 9.10033Z" fill="#FFA100"/>
<path d="M112.274 10.4491C112.394 10.5691 112.704 10.5822 112.964 10.4777C113.127 10.4123 113.17 10.3563 113.099 10.317C113.046 10.2871 112.927 10.2669 112.746 10.2594C112.558 10.2517 112.412 10.2688 112.326 10.3025C112.238 10.3369 112.214 10.3886 112.274 10.4491Z" fill="#FFA100"/>
<path fill-rule="evenodd" clip-rule="evenodd" d="M132.875 11.8147C130.104 11.5126 125.567 11.1382 122.796 10.9825C120.024 10.8267 117.653 10.6753 117.528 10.6457C117.402 10.6164 116.803 10.8011 116.199 11.0567C115.43 11.3811 115.187 11.6651 115.392 11.9987C115.597 12.3312 115.761 12.3553 115.931 12.0785C116.353 11.3923 125.496 11.7866 125.496 12.4905C125.496 12.7344 124.067 12.7705 121.266 12.5978C116.608 12.3102 115.944 12.5916 120.13 13.0791L122.796 13.3897L120.816 13.4723C119.331 13.5346 119.061 13.6198 119.736 13.8139C120.391 14.0018 119.905 14.1359 117.955 14.3046C116.48 14.4325 115.103 14.4015 114.895 14.2356C114.687 14.0697 113.706 14.0357 112.716 14.1604C111.726 14.2847 110.187 14.3711 109.296 14.3522C99.9841 14.155 88.7677 14.1694 88.4295 14.3791C88.1968 14.5236 87.3292 14.5481 86.5024 14.4339C84.9725 14.2225 79.8413 14.1112 74.4683 14.1724L71.4985 14.206H67.7187C64.6584 14.206 64.3942 14.0038 60.2315 14.0773C53.7314 14.1922 49.9868 14.499 50.9303 14.8391C51.298 14.9718 51.3135 15.0829 50.9901 15.2836C46.9275 13.943 45.1986 17.234 43.2526 19.1925C43.1661 19.2793 43.0157 19.3562 42.8589 19.4019C42.7647 19.4296 42.6676 19.4459 42.5805 19.4459C42.3492 19.4459 42.1495 19.9742 42.1368 20.6203C42.1185 21.5718 42.2549 21.7959 42.8568 21.8003C43.2653 21.8034 43.4382 21.9252 43.24 22.0713C42.527 22.5975 42.6487 23.3054 43.4108 23.0624C43.8123 22.9345 44.1399 22.9179 44.1399 23.0248C44.1399 23.1319 43.6133 23.3754 42.97 23.5655C42.0257 23.8448 42.1987 23.872 43.8699 23.7068C46.0641 23.4899 46.5151 23.8311 44.1399 23.963C42.4258 24.0581 43.9205 25.1078 44.0119 24.9607C44.1026 24.8141 43.9269 24.7906 43.621 24.9085C43.3145 25.0265 43.1422 25.2502 43.2379 25.4057C43.3342 25.561 43.2118 25.681 42.9658 25.6723C41.6214 25.6236 40.4522 25.802 40.6716 26.022C40.8094 26.1609 40.5528 26.4937 40.1014 26.7623C39.6317 27.0411 39.444 27.1591 39.6029 27.1819C39.7126 27.1977 39.9875 27.1681 40.4494 27.1146C41.5617 26.9858 41.5891 27.0116 41.0238 27.6392C40.6962 28.0024 40.1393 28.2995 39.7857 28.2995C39.567 28.2995 39.3287 28.372 39.1445 28.4823C39.0306 28.5506 38.9371 28.6334 38.8822 28.7223C38.7086 29.005 38.8168 29.0699 39.2099 28.9189C39.5326 28.7943 39.8926 28.8481 40.01 29.0381C40.1267 29.2282 40.0416 29.3836 39.8201 29.3836C39.5987 29.3836 39.5178 29.5463 39.6402 29.745C39.7625 29.9437 39.5698 30.1088 39.2113 30.1118C38.6699 30.1164 38.6495 30.174 39.0896 30.4536C39.7266 30.8581 39.3674 31.2974 38.2769 31.4485C37.8381 31.5092 36.9944 31.7123 36.4003 31.8998C35.5981 32.1536 35.9145 32.185 37.6342 32.023L39.9481 31.8052L39.2352 32.5739C38.7634 33.0822 38.1025 33.3353 37.2813 33.3215C36.5986 33.3099 35.4743 33.4766 34.7832 33.6912C34.4268 33.8016 33.9859 33.9018 33.5676 33.9731C33.1731 34.0402 32.7984 34.0815 32.5333 34.0815C31.4407 34.0815 31.1686 34.6777 32.1705 34.8753C32.5172 34.9436 30.6976 35.2101 28.1278 35.4673C25.558 35.7242 23.3707 36.056 23.268 36.2042C23.1654 36.3528 22.3519 36.4932 21.4611 36.517C18.6059 36.5934 15.5249 36.9898 15.4188 37.2945C15.3625 37.457 14.909 37.5121 14.4098 37.4162C13.3503 37.2128 5.69295 38.3645 4.90196 38.8466C4.48856 39.098 4.53073 39.1324 5.08195 38.9925C5.87434 38.7917 10.6068 38.1983 14.2615 37.8415C15.5481 37.7162 18.6263 37.5724 21.1011 37.5221C23.576 37.4722 27.6258 37.3298 30.1006 37.2063C35.4364 36.9393 34.5378 37.4776 28.9701 37.8835C26.7111 38.0483 25.5242 38.2586 25.9609 38.4176C26.8046 38.7244 25.1622 38.9914 18.0413 39.7038L13.3615 40.1717L23.081 39.8786L20.7411 40.5034C19.4545 40.8472 18.2332 41.2382 18.0286 41.3725C17.824 41.5069 16.6091 41.7354 15.3288 41.8806C14.0484 42.0255 12.5157 42.3565 11.9216 42.6157L10.8417 43.0876L12.2816 43.14C13.4199 43.182 12.9685 43.359 10.1217 43.9875C8.1418 44.4247 5.95518 45.0629 5.26195 45.4058L4.00201 46.0292L5.17195 45.8085C6.1162 45.6306 6.34189 45.7054 6.34189 46.1975C6.34189 46.5774 6.53523 46.732 6.85655 46.6088C7.13919 46.4996 7.98923 46.3179 8.74644 46.2048C9.73711 46.0567 9.92061 46.0913 9.40173 46.3295C8.68459 46.6591 9.91568 46.6413 17.6813 46.2124C21.3824 46.0078 21.1616 46.1247 16.6913 46.7354C14.9589 46.972 13.5415 47.3116 13.5415 47.4899C13.5415 47.6681 12.6099 47.8161 11.4716 47.8191C10.1688 47.8226 9.58383 47.9405 9.89249 48.1367C10.2623 48.3719 10.1287 48.5498 9.35251 48.8577L8.32179 49.2664L9.40173 49.112L11.9216 48.7547C13.0325 48.5974 12.7857 48.7518 10.8417 49.4289C9.45587 49.9118 8.6459 50.3298 9.04175 50.3581C9.8278 50.4137 6.46494 51.5722 3.73555 52.1863C1.76619 52.629 0.915451 53.426 2.69075 53.1649C4.24176 52.936 4.12717 53.4576 2.56209 53.7525C1.86885 53.8829 1.30215 54.1449 1.30215 54.3346C1.30215 54.768 1.26559 54.7701 4.72197 54.1431C5.59239 53.9852 6.46844 53.8414 7.142 53.7428C7.69322 53.662 8.10875 53.6115 8.27538 53.6083C9.48891 53.5856 8.29578 54.5098 6.17877 55.2322C3.61391 56.1076 3.88319 56.3687 6.5486 55.5908C7.68198 55.2601 8.97144 55.0812 9.41508 55.1929C9.85873 55.3046 11.8998 55.1563 13.9514 54.8636C19.6809 54.0463 20.0816 54.2801 14.5554 55.2153C11.8457 55.6739 9.41579 56.1429 9.15565 56.257C8.53975 56.5274 15.0616 56.1256 17.0429 55.7711C17.6356 55.665 18.1031 55.6425 18.2923 55.6984C18.3731 55.722 18.4034 55.76 18.3717 55.8119C18.2656 55.9842 17.7024 56.1252 17.1202 56.1252C16.5374 56.1252 16.0614 56.2987 16.0614 56.5108C16.0614 56.7229 16.3447 56.8118 16.6913 56.7084C17.038 56.6052 18.7795 56.4222 20.5611 56.3027C22.3428 56.1831 24.7326 56.0146 25.8709 55.9287C28.0483 55.7642 28.7817 56.3197 26.7708 56.6094C26.1275 56.7024 27.7875 56.7273 30.4606 56.6652C36.3567 56.5281 35.0574 56.9441 27.552 57.597C24.5983 57.8541 22.1811 58.1851 22.1811 58.3328C22.1811 58.481 21.8977 58.6762 21.5511 58.7672C21.2045 58.8579 21.4477 58.9511 22.0911 58.9742C22.7344 58.9973 23.261 59.138 23.261 59.2872C23.261 59.5528 25.8681 59.5766 32.5368 59.3718C34.3712 59.3155 35.9778 59.3751 36.1064 59.5041C36.2351 59.6334 34.9773 59.7508 33.311 59.7656C30.2377 59.7931 28.6783 59.9627 28.3352 60.3066C28.2311 60.4111 30.3277 60.3818 32.9931 60.2413C36.8869 60.0366 37.7988 59.9839 38.71 59.9989C39.0692 60.0049 39.4285 60.0213 39.9706 60.0432C42.2795 60.1369 41.3086 60.3966 36.9297 60.8566C34.6588 61.0952 32.5572 61.4244 32.2605 61.5878C31.4984 62.0076 33.4818 61.982 35.3534 61.5479C36.1641 61.36 38.7001 61.161 40.9894 61.1049C44.5315 61.0189 45.0898 60.9272 44.7361 60.491C44.3867 60.0603 44.514 60.0169 45.5348 60.22C46.2028 60.3528 49.6859 60.4845 53.2744 60.5127L59.7991 60.5635L55.8393 60.8855C53.6611 61.0627 51.2066 61.1617 50.384 61.1056C49.5614 61.0496 48.9638 61.1255 49.0552 61.2748C49.1466 61.4241 47.957 61.5458 46.4109 61.5462C44.8648 61.5462 41.8992 61.6972 39.8201 61.882C34.0794 62.3914 28.6488 62.6188 30.1006 62.2889L31.3606 62.0023L29.9868 61.9548C29.2316 61.9285 28.3015 62.0748 27.9204 62.2797C27.5393 62.4847 25.8891 62.7503 24.2538 62.8703C19.4179 63.2248 19.6415 63.7823 24.5209 63.5348C26.8967 63.4141 29.1241 63.2316 29.4707 63.1289C29.6999 63.0612 29.9017 63.0776 30.0121 63.1577C30.0683 63.1988 30.1006 63.2567 30.1006 63.3285C30.1006 63.5537 29.2401 63.7259 28.0308 63.7426C25.4961 63.7776 25.9117 63.9754 28.9096 64.161C30.1358 64.2369 31.0569 64.1675 30.9584 64.0068C30.8593 63.8455 31.5574 63.7119 32.5094 63.7089C33.1141 63.7074 33.8066 63.6636 34.3536 63.5992C34.6672 63.5621 34.933 63.5182 35.1066 63.4716C35.712 63.3089 35.8955 63.3642 35.7162 63.6555C35.5257 63.9652 37.1245 64.0493 41.9568 63.9833C45.5299 63.9345 48.4548 63.77 48.4562 63.6179C48.4583 63.4658 48.9054 63.3617 49.4496 63.3866C49.9938 63.412 52.2831 63.3137 54.5372 63.1683C57.5288 62.9758 58.568 63.0137 58.3859 63.3093C58.2291 63.5637 58.4449 63.7119 58.968 63.7086C59.6332 63.704 59.6915 63.6341 59.2591 63.3582C58.8816 63.1168 59.1516 63.0578 60.1591 63.1619C60.9507 63.2438 62.2472 63.3317 63.0389 63.3575C64.1828 63.3938 64.3312 63.4672 63.7589 63.7144C63.363 63.8854 60.448 63.9427 57.282 63.842C54.1153 63.7416 51.6222 63.7571 51.7424 63.8775C51.9871 64.1231 55.9019 64.3281 65.9188 64.6189C69.6803 64.7281 73.3251 64.8979 74.0183 64.9962C78.3473 65.6106 80.3187 65.813 80.5535 65.6672C80.7005 65.5758 81.9196 65.6775 83.2625 65.8927C84.9732 66.1671 85.7423 66.1699 85.8309 65.9026C85.9005 65.6926 86.3899 65.543 86.9172 65.57C87.7658 65.6138 87.7834 65.6376 87.0677 65.7761C85.909 66.0002 86.0636 66.6705 87.2476 66.5541C88.4485 66.4362 92.0624 66.8226 97.2371 67.6223C98.4253 67.8058 99.584 67.8847 99.8125 67.7972C100.041 67.7098 101.256 67.8898 102.512 68.1968C103.769 68.5044 105.586 68.8441 106.552 68.9519C107.517 69.0595 108.417 69.2164 108.551 69.2998C108.686 69.3833 109.479 69.5343 110.312 69.6351C111.146 69.736 114.377 70.303 117.492 70.8946C120.607 71.4864 123.845 72.0788 124.687 72.2106C125.529 72.3429 126.128 72.5974 126.018 72.7763C125.908 72.955 126.055 73.0104 126.344 72.8987C126.633 72.7874 128.144 73.1004 129.702 73.594C132.618 74.5187 136.038 75.2118 134.675 74.6022C134.39 74.4746 134.278 74.3956 134.369 74.3513C134.462 74.3063 134.764 74.2969 135.305 74.3084C136.048 74.3243 136.655 74.4787 136.655 74.6514C136.655 74.7554 136.779 74.8081 136.97 74.8046C137.097 74.8021 137.252 74.7749 137.42 74.7215C137.968 74.5473 138.108 74.6018 137.916 74.9145C137.753 75.1794 137.241 75.269 136.611 75.1428C136.041 75.0283 135.575 74.9997 135.575 75.0793C135.575 75.296 139.306 76.3512 139.474 76.1821C139.555 76.1015 139.197 75.9291 138.68 75.7991C137.625 75.5335 137.749 74.9166 138.857 74.9166C139.254 74.9166 139.486 75.064 139.376 75.2443C139.264 75.4243 139.524 75.4804 139.95 75.368C140.516 75.2194 140.651 75.2884 140.446 75.6214C140.241 75.9552 140.363 76.0149 140.903 75.8428C141.121 75.7733 141.485 75.7807 141.885 75.8483C142.23 75.9067 142.601 76.0098 142.929 76.147C143.636 76.4438 144.215 76.5373 144.215 76.3549C144.215 76.1728 144.498 76.1253 144.845 76.2504C145.018 76.3127 145.146 76.3374 145.214 76.3272C145.282 76.3168 145.289 76.2713 145.219 76.1929C145.078 76.0369 144.349 75.7876 143.599 75.639C142.849 75.4905 138.771 74.3594 134.537 73.1253C124.158 70.1006 108.72 66.9468 91.8374 64.402C90.4516 64.1933 87.3735 63.8116 84.9978 63.5547L80.678 63.0871L85.3577 63.1065C88.3142 63.1189 89.6395 63.2299 88.9576 63.4079C88.2446 63.5937 88.7333 63.6454 90.3975 63.5597C91.8374 63.4861 92.5321 63.5445 92.0174 63.6971C91.3354 63.8992 91.7277 64.0227 93.6373 64.2065C98.1068 64.6374 110.717 66.7069 114.876 67.692C115.668 67.8796 118.203 68.4444 120.509 68.9475C126.342 70.2195 132.581 71.8601 136.541 73.1625C138.031 73.6525 138.962 73.7859 139.356 73.5647C139.789 73.3212 138.593 72.8394 134.789 71.7274C129.398 70.1512 117.851 67.334 116.766 67.3299C116.419 67.3289 116.136 67.1464 116.136 66.9241C116.136 66.6712 116.438 66.6158 116.946 66.7755C117.392 66.9158 118.89 67.2609 120.276 67.5427C121.662 67.8247 124.497 68.4841 126.576 69.0085C128.655 69.5329 131.327 69.998 132.515 70.042L134.675 70.1226L133.055 69.6019C132.164 69.3154 130.838 69.0554 130.109 69.024C129.271 68.9882 128.939 68.8536 129.209 68.6584C129.469 68.4702 129.292 68.426 128.757 68.5457C127.893 68.7382 121.293 67.4684 117.756 66.429L115.956 65.9L117.576 66.1023C118.467 66.2137 120.151 66.5454 121.318 66.8396C122.485 67.1337 124.062 67.383 124.823 67.3936C125.639 67.4051 126.116 67.5595 125.986 67.7705C125.85 67.9906 126.067 68.0317 126.55 67.8778C127.23 67.6613 132.774 68.7108 137.057 69.8671C137.494 69.9852 138.011 70.09 138.443 70.1539C138.72 70.1946 138.962 70.2188 139.126 70.2188C139.549 70.2188 139.895 70.3912 139.895 70.6015C139.895 70.8118 140.054 70.8858 140.247 70.7654C140.635 70.5249 143.473 71.2471 144.016 71.7253C144.205 71.8905 144.699 72.0257 145.115 72.0257C145.427 72.0257 145.795 72.1229 146.047 72.2603C146.129 72.3053 146.199 72.3547 146.25 72.4064C146.458 72.6157 147.317 72.8502 148.157 72.9277C150.826 73.1726 151.933 73.5059 151.372 73.8953C151.018 74.1408 151.111 74.1743 151.691 74.0104C152.141 73.8832 153.275 74.0222 154.211 74.3188C155.148 74.616 156.724 74.9488 157.714 75.059C159.128 75.2162 151.625 72.9056 142.595 70.4023C141.888 70.2064 141.719 70.054 142.105 69.9615C142.605 69.8415 149.466 71.5743 153.034 72.7216C153.279 72.8003 153.729 72.9296 154.287 73.0831C155.085 73.3028 156.104 73.5719 157.056 73.8126C157.855 74.0146 158.654 74.2241 159.302 74.3998C159.967 74.58 160.472 74.7245 160.656 74.7894C161.127 74.957 161.21 74.9087 160.946 74.6188C160.744 74.3966 158.071 73.5453 155.006 72.7267L145.547 70.1946C143.409 69.6206 141.384 68.9767 141.047 68.7643C140.723 68.5594 140.597 68.4686 140.684 68.4626C140.743 68.4585 140.899 68.4927 141.155 68.5561C141.551 68.6547 144.548 69.3822 147.814 70.1733C155.602 72.0588 170.533 77.0566 174.525 79.1135C175.714 79.7258 175.769 79.7279 175.79 79.1628C175.799 78.9145 175.925 78.4263 176.069 78.0787C176.226 77.6991 176.171 77.4463 175.932 77.4463C175.712 77.4463 175.533 77.2511 175.533 77.0125C175.533 76.6753 175.629 76.6753 175.965 77.0125C176.572 77.6218 177.09 77.5525 176.839 76.8959C176.668 76.4466 176.76 76.4159 177.341 76.7277C177.732 76.9381 178.053 76.976 178.053 76.8124C178.053 76.7284 178.165 76.6542 178.345 76.6025C178.518 76.5532 178.751 76.5248 179.008 76.5287C179.533 76.5363 180.04 76.317 180.134 76.0408C180.229 75.7648 180.149 75.6366 179.957 75.7557C179.765 75.8746 179.252 75.4908 178.819 74.9025C177.966 73.7436 178.428 73.4567 179.652 74.386C180.465 75.004 180.933 75.0656 180.933 74.5553C180.933 74.3564 180.701 74.1939 180.417 74.1939C180.133 74.1939 179.803 73.8839 179.683 73.5043C179.563 73.1253 179.218 72.7198 178.916 72.6035C178.699 72.5199 178.564 72.3583 178.554 72.1965C178.551 72.1336 178.565 72.0706 178.601 72.0122C178.73 71.8033 178.639 71.3957 178.4 71.1063C178.212 70.88 178.175 70.7157 178.238 70.6349C178.328 70.5209 178.62 70.5731 178.978 70.8512C179.171 71.0005 179.029 70.8422 178.663 70.4999C178.298 70.1577 178.083 69.7395 178.187 69.5705C178.291 69.4016 178.156 68.8391 177.888 68.3202C177.459 67.4882 177.467 67.4023 177.966 67.5944C178.241 67.6999 178.369 67.6901 178.349 67.5665C178.342 67.5221 178.316 67.463 178.271 67.3892C178.127 67.1565 178.182 66.9664 178.392 66.9664C179.007 66.9664 178.828 65.951 178.143 65.5499C177.931 65.4257 177.815 65.3136 177.81 65.2439C177.808 65.1998 177.85 65.1728 177.942 65.1703C178.177 65.1647 178.471 65.3221 178.593 65.5209C178.715 65.7196 179 65.8823 179.226 65.8823C179.522 65.8823 179.516 65.7609 179.205 65.4486C178.594 64.8354 178.669 64.3193 179.332 64.5748C179.697 64.7154 179.801 64.6445 179.633 64.3713C179.455 64.083 179.583 64.0327 180.043 64.2102C180.412 64.3525 180.567 64.4036 180.517 64.2942C180.481 64.2164 180.342 64.0569 180.102 63.7906C179.766 63.4182 179.613 62.9786 179.762 62.8138C179.911 62.6486 179.819 62.6379 179.558 62.7893C179.297 62.9407 179.171 63.292 179.277 63.5699C179.383 63.8482 179.307 64.0754 179.108 64.0754C178.909 64.0754 178.777 63.7093 178.815 63.2623C178.968 61.4834 178.74 60.8278 177.783 60.2793C176.825 59.7307 176.822 59.7201 177.693 59.9479C178.188 60.0776 178.984 60.5307 179.46 60.9549C180.418 61.8059 180.208 61.3041 178.799 59.3776C178.267 58.6497 178.141 58.3235 178.504 58.6086C179.175 59.138 179.33 58.8038 178.8 57.9649C178.249 57.0897 178.732 56.4453 179.619 56.8743C180.377 57.2418 180.379 57.2383 179.673 56.6994C179.277 56.3973 178.757 55.9818 178.518 55.7762C178.413 55.6855 178.275 55.6012 178.132 55.5346C177.952 55.4503 177.762 55.3945 177.618 55.3908C177.334 55.384 177.418 55.178 177.836 54.8604C178.212 54.5749 178.682 54.4426 178.882 54.5666C179.012 54.6474 179.078 54.6441 179.072 54.5702C179.068 54.5266 179.039 54.4583 178.984 54.3683C178.84 54.1356 178.532 54.0412 178.298 54.1587C178.064 54.276 178.156 54.1387 178.503 53.8536C179.303 53.1952 179.303 52.8743 178.503 52.8674C177.999 52.8628 177.973 52.7981 178.376 52.5426C178.651 52.367 178.778 51.9626 178.657 51.6446C178.535 51.3263 178.568 51.066 178.73 51.066C178.991 51.066 182.243 52.0185 191.863 54.9125C195.309 55.9493 195.692 55.9618 195.692 55.0411C195.692 54.6436 195.882 54.3184 196.114 54.3184C196.347 54.3184 196.185 53.9418 195.755 53.4822C194.861 52.527 194.736 51.9821 195.477 52.2673C195.755 52.3742 196.065 52.3781 196.167 52.2759C196.395 52.046 195.235 50.7765 194.936 50.9301C194.818 50.9912 191.717 49.9992 188.046 48.7257C184.374 47.4523 181.276 46.5051 181.161 46.6215C181.045 46.7375 180.744 46.6685 180.491 46.4682C180.375 46.3761 179.96 46.1996 179.373 45.9842C178.683 45.7313 177.755 45.4247 176.793 45.1376C175.011 44.6061 173.304 44.0351 173 43.8689C172.851 43.7881 172.546 43.6882 172.169 43.5912C171.771 43.4886 171.293 43.3895 170.84 43.3196C169.956 43.1837 167.775 42.6872 165.994 42.2159C164.212 41.7451 161.654 41.0783 160.31 40.7348C158.965 40.391 157.786 39.9801 157.689 39.8218C157.591 39.6632 157.273 39.6252 156.983 39.7373C156.692 39.849 156.454 39.7607 156.454 39.5407C156.454 39.3207 156.184 39.1407 155.854 39.1407C155.525 39.1407 155.342 39.0521 155.451 38.9438C155.558 38.8353 157.975 39.3069 160.82 39.9917C163.666 40.6769 166.642 41.3303 167.433 41.4441C169.453 41.7345 180.836 45.3433 184.641 46.8993C186.384 47.612 187.945 48.1103 188.113 48.0067C188.279 47.9033 189.119 48.0681 189.981 48.3727C190.841 48.6777 191.385 48.7774 191.189 48.5946C190.992 48.4116 190.213 48.0637 189.458 47.8212C188.703 47.5788 188.167 47.2961 188.27 47.194C188.372 47.0913 188.974 47.1888 189.607 47.4103C191.298 48.0019 193.532 47.9347 193.532 47.2929C193.532 47.0064 193.345 46.6561 193.117 46.5144C192.859 46.3544 192.799 46.4151 192.958 46.6734C193.099 46.903 193.043 47.0909 192.833 47.0909C192.624 47.0909 192.452 46.9106 192.452 46.6905C192.452 46.44 192.103 46.3775 191.522 46.5243C190.979 46.6609 190.678 46.6178 190.799 46.4213C191.072 45.9789 189.448 45.5775 188.641 45.8879C188.255 46.0368 188.101 45.9876 188.243 45.7589C188.385 45.5279 188.101 45.4474 187.492 45.5454C186.698 45.6721 186.614 45.6237 187.052 45.2888C187.5 44.9465 187.463 44.9114 186.843 45.085C186.43 45.2002 185.397 45.0481 184.547 44.7471C182.776 44.1196 182.245 44.0619 182.532 44.5278C182.643 44.7076 182.381 44.7626 181.949 44.6495L181.165 44.4438L181.949 44.1526C183.07 43.7362 182.937 43.6568 181.134 43.6665C180.255 43.6713 179.614 43.5965 179.71 43.4996C180.036 43.1733 166.175 39.278 158.614 37.5708C156.535 37.1014 154.915 36.5714 155.014 36.3932C155.262 35.9462 156.238 36.1066 161.973 37.5373C164.712 38.2203 167.061 38.7689 167.193 38.7566C168.12 38.668 159.015 36.3101 153.295 35.1569C152.053 34.9066 151.104 34.6339 151.186 34.5515C151.337 34.4001 159.725 35.9383 162.394 36.6067C168.819 38.2163 182.449 42.1556 187.412 43.8375C189.096 44.4078 191.101 44.9779 191.871 45.1044C193.085 45.3047 193.238 45.2547 193.035 44.724C192.847 44.2313 192.96 44.153 193.616 44.3192C194.357 44.5064 194.374 44.4821 193.802 44.0517C193.455 43.7913 193.172 43.3217 193.172 43.0082C193.172 42.6944 192.889 42.4444 192.542 42.4527C191.839 42.4689 182.345 39.0482 182.542 38.8497C182.611 38.7807 184.262 39.0684 186.21 39.4897C188.158 39.9107 190.197 40.3503 190.742 40.4659C191.286 40.5818 191.732 40.8283 191.732 41.0141C191.732 41.1997 191.892 41.2521 192.088 41.1307C192.284 41.0093 193.75 41.2638 195.346 41.6959C198.174 42.462 198.26 42.4649 198.755 41.8051C198.916 41.5902 199.041 41.3167 199.103 41.0665C199.149 40.8832 199.162 40.7124 199.131 40.5862C198.636 38.5521 198.595 38.0566 198.925 38.0566C199.759 38.0566 199.197 37.4007 197.834 36.7838C197.033 36.421 196.288 35.9801 196.18 35.8042C196.072 35.6281 197.291 36.1442 198.89 36.9511C201.807 38.4238 203.53 39.0107 201.002 37.6707C200.021 37.1509 199.583 36.8429 199.709 36.7747C199.775 36.739 199.995 36.7687 200.372 36.8676C200.592 36.9257 200.788 36.9234 200.919 36.8724C201.027 36.8304 201.092 36.7552 201.092 36.6534C201.092 36.2776 200.591 36.0943 199.895 36.2157C199.732 36.2442 199.701 36.1008 199.826 35.8973C199.951 35.6935 199.856 35.527 199.613 35.527C199.37 35.527 199.263 35.4356 199.374 35.3239C199.485 35.2118 201.048 35.8622 202.847 36.7694C205.852 38.2838 207.444 38.9083 206.131 38.0566C205.683 37.7653 205.713 37.7014 206.311 37.6779C206.955 37.6525 206.942 37.6132 206.188 37.3104C205.724 37.1235 205.198 37.0621 205.018 37.1734C204.839 37.2846 204.357 37.1394 203.945 36.8504C203 36.1853 203.659 35.695 204.727 36.2691C205.264 36.5573 205.423 36.5622 205.254 36.2859C205.044 35.9441 205.098 35.8347 205.486 35.9663C205.711 36.0426 206.048 36.1998 206.51 36.4398C206.766 36.5732 207.003 36.6797 207.187 36.7485C207.422 36.8361 207.571 36.8625 207.571 36.8055C207.571 36.7035 206.437 36.047 205.051 35.3463C202.577 34.0956 201.575 33.865 203.522 34.9943C204.474 35.5469 204.478 35.5617 203.631 35.3821C203.145 35.2798 202.498 35.3922 202.191 35.6325C201.689 36.0242 201.687 35.997 202.172 35.369C202.664 34.7301 202.655 34.6904 202.063 34.9129C201.706 35.0474 201.503 35.0135 201.611 34.8377C201.719 34.6622 201.525 34.4107 201.18 34.2784C199.915 33.7953 196.003 31.4811 196.168 31.3144C196.262 31.2201 197.322 31.6419 198.525 32.2511C200.941 33.475 201.092 33.5191 201.092 32.9974C201.092 32.3773 199.812 31.3181 199.269 31.4883C198.984 31.5778 198.88 31.5132 199.037 31.3454C199.193 31.1774 198.627 30.6744 197.777 30.2281C196.927 29.7815 196.4 29.4089 196.605 29.3999C196.811 29.3909 199.686 30.7557 202.995 32.4325C206.304 34.1094 209.006 35.3698 209 35.2332C208.974 34.6774 207.863 33.5498 206.587 32.7849C203.526 30.9502 199.324 28.7472 197.007 27.7629C194.898 26.8671 194.653 26.6737 195.316 26.4275C195.863 26.2248 196.616 26.4058 197.86 27.0389C198.833 27.5334 199.754 27.9305 199.91 27.9212C200.065 27.912 199.398 27.4896 198.427 26.983C197.264 26.3758 196.814 25.9672 197.107 25.7851C197.438 25.5799 197.401 25.4512 196.963 25.2824C196.582 25.1354 196.463 25.1978 196.624 25.4595C196.765 25.6893 196.684 25.8006 196.435 25.7175C196.195 25.6369 195.987 25.4124 195.973 25.2188C195.943 24.7948 192.901 23.5207 191.975 23.5441C191.438 23.5579 191.397 23.4644 191.757 23.03C192.141 22.5659 192.28 22.5758 192.866 23.1083C193.235 23.4434 193.625 23.6288 193.733 23.5203C193.841 23.4116 193.491 22.9758 192.954 22.5518L191.978 21.7814L191.301 22.5107C190.929 22.9121 190.59 23.2378 190.548 23.2348C190.338 23.22 179.567 19.9348 176.433 18.9294C172.552 17.6845 159.738 14.5507 158.705 14.5933C158.357 14.6077 159.532 15.0101 161.314 15.4877C164.927 16.4559 164.144 16.38 157.534 15.1202C152.021 14.0697 143.825 12.8475 140.435 12.5701C139.049 12.457 135.647 12.1168 132.875 11.8147ZM127.656 13.026C128.447 12.9943 129.095 12.8404 129.095 12.6839C129.095 12.6059 128.935 12.535 128.676 12.4834C128.415 12.4314 128.053 12.3991 127.656 12.3991C126.864 12.3991 126.216 12.553 126.216 12.7412C126.216 12.8259 126.347 12.8985 126.564 12.9496C126.828 13.0123 127.22 13.0433 127.656 13.026ZM133.763 13.185C133.012 13.257 132.473 13.1908 132.567 13.038C132.661 12.8856 132.048 12.7605 131.205 12.7605C130.13 12.7605 129.784 12.8743 130.051 13.1413C130.56 13.6523 135.667 13.9256 135.359 13.425C135.234 13.2212 134.516 13.1128 133.763 13.185ZM136.381 13.7315C136.725 13.8218 137.373 13.825 137.821 13.7387C137.959 13.7121 138.027 13.6867 138.034 13.6641C138.047 13.6134 137.743 13.5771 137.195 13.5743C136.403 13.5704 136.036 13.6411 136.381 13.7315ZM124.333 13.7867C124.48 13.8165 124.672 13.7987 124.843 13.7301C125.13 13.6147 125.045 13.5291 124.625 13.5118C124.246 13.4963 124.034 13.5815 124.153 13.7015C124.194 13.7426 124.257 13.7712 124.333 13.7867ZM139.126 14.0037C139.096 14.0297 139.139 14.0606 139.265 14.0936C139.612 14.1846 140.178 14.1846 140.525 14.0936C140.871 14.0029 140.588 13.9284 139.895 13.9284C139.454 13.9284 139.179 13.9584 139.126 14.0037ZM123.422 14.4542C123.765 14.5446 124.414 14.5477 124.861 14.4615C125.309 14.375 125.027 14.3011 124.236 14.297C123.444 14.2931 123.077 14.3639 123.422 14.4542ZM142.872 15.8697C142.992 15.9897 143.303 16.0028 143.562 15.8983C143.849 15.7829 143.764 15.6973 143.344 15.68C142.965 15.6645 142.753 15.7497 142.872 15.8697ZM171.729 17.9725C171.165 17.7994 170.422 17.5908 169.587 17.3745C168.529 17.1005 167.481 16.8529 166.675 16.6818C165.975 16.5332 165.458 16.4423 165.274 16.4418C164.878 16.4407 166.335 16.9083 168.513 17.4814C170.692 18.0542 172.632 18.4738 172.827 18.4142C172.939 18.3797 172.501 18.2091 171.729 17.9725ZM175.387 19.1655C175.406 19.1143 175.273 19.0245 174.993 18.9038C174.597 18.7328 174.03 18.5934 173.733 18.5934C173.393 18.5934 173.459 18.7079 173.913 18.9038C174.309 19.0748 174.876 19.2142 175.173 19.2142C175.304 19.2142 175.375 19.1973 175.387 19.1655ZM126.673 20.9289C126.793 21.0489 127.104 21.062 127.363 20.9575C127.65 20.8421 127.565 20.7566 127.145 20.7393C126.872 20.728 126.685 20.7694 126.647 20.8384C126.633 20.8649 126.64 20.8956 126.673 20.9289ZM121.896 26.2151C121.203 26.2151 120.919 26.2895 121.266 26.3802C121.612 26.4713 122.179 26.4713 122.526 26.3802C122.872 26.2895 122.589 26.2151 121.896 26.2151ZM126.936 26.5498C126.441 26.5498 126.238 26.6317 126.486 26.7319C126.733 26.8323 127.138 26.8323 127.386 26.7319C127.633 26.6317 127.431 26.5498 126.936 26.5498ZM129.124 27.1706C129.249 27.1762 129.392 27.1535 129.523 27.1009C129.81 26.9855 129.725 26.8999 129.305 26.8826C129.209 26.8787 129.124 26.8812 129.053 26.889C128.84 26.9122 128.744 26.9825 128.833 27.0723C128.893 27.1319 129 27.1651 129.124 27.1706ZM149.076 30.0488C149.174 30.037 149.267 30.0155 149.344 29.9843C149.476 29.9312 149.48 29.8832 149.382 29.8498C149.295 29.8202 149.127 29.8022 148.894 29.8022C148.399 29.8022 148.197 29.884 148.444 29.9843C148.615 30.0534 148.859 30.075 149.076 30.0488ZM150.694 30.1635C150.199 30.1635 149.997 30.2454 150.244 30.3456C150.492 30.446 150.897 30.446 151.144 30.3456C151.392 30.2454 151.189 30.1635 150.694 30.1635ZM154.474 31.1118C155.038 31.1171 154.999 31.0557 154.294 30.8291C153.799 30.6701 152.989 30.5429 152.494 30.5464C151.686 30.5526 151.704 30.5812 152.674 30.8291C153.268 30.9809 154.078 31.1081 154.474 31.1118ZM157.714 31.8412C158.284 31.8412 158.247 31.7809 157.534 31.5519C157.039 31.3929 156.31 31.2625 155.914 31.2625C155.344 31.2625 155.381 31.3228 156.094 31.5519C156.589 31.7108 157.318 31.8412 157.714 31.8412ZM167.315 35.9077C164.477 35.0749 160.346 34.0081 158.135 33.5377C155.923 33.0671 153.885 32.6715 153.604 32.6591C152.395 32.6046 153.697 33.0176 157.955 34.0388C164.596 35.6321 173.168 38.118 182.373 41.1203C191.561 44.1172 192.812 44.4233 192.812 43.673C192.812 43.17 191.74 42.6337 191.132 42.8321C190.959 42.8889 190.173 42.6669 189.385 42.3389C188.597 42.011 186.494 41.2976 184.713 40.7535C182.931 40.2096 180.545 39.4611 179.411 39.0901C178.276 38.719 176.818 38.3373 176.171 38.2415C174.594 38.0089 173.382 37.6897 167.315 35.9077ZM198.482 35.1601C199.02 35.1555 199.033 35.1035 198.572 34.8042C197.893 34.3633 197.852 34.3633 197.852 34.8042C197.852 35.0029 198.135 35.1631 198.482 35.1601ZM36.8433 34.6798C37.0872 34.779 37.5731 34.785 37.9232 34.6932C38.2733 34.6015 38.0744 34.5205 37.4803 34.5133C36.8862 34.506 36.6 34.5808 36.8433 34.6798ZM33.7005 34.8614C33.2055 34.8614 33.003 34.9433 33.2505 35.0435C33.498 35.1439 33.903 35.1439 34.1504 35.0435C34.3979 34.9433 34.1954 34.8614 33.7005 34.8614ZM152.314 35.8883C153.303 36.3152 153.872 36.3152 153.214 35.8883C152.917 35.6957 152.431 35.5469 152.134 35.558C151.778 35.5711 151.84 35.6835 152.314 35.8883ZM198.771 36.3877C199.091 36.511 199.236 36.4503 199.109 36.2457C199.039 36.1322 198.926 36.0307 198.807 35.9651C198.72 35.9171 198.629 35.8883 198.551 35.8883C198.033 35.8883 198.147 36.1474 198.771 36.3877ZM27.9408 38.5018C27.2475 38.5018 26.9642 38.5762 27.3108 38.6669C27.6574 38.758 28.2241 38.758 28.5707 38.6669C28.9174 38.5762 28.634 38.5018 27.9408 38.5018ZM22.444 45.8824C22.688 45.9816 23.1738 45.9876 23.524 45.8958C23.8741 45.804 23.6751 45.723 23.081 45.7158C22.7182 45.7114 22.47 45.7375 22.3871 45.7811C22.3343 45.809 22.3491 45.8439 22.444 45.8824ZM10.0394 50.2002C10.159 50.3201 10.4697 50.3332 10.7292 50.2287C10.9183 50.1527 10.9457 50.0897 10.8227 50.0505C10.7587 50.0302 10.6546 50.0163 10.5112 50.0105C10.1322 49.9949 9.91991 50.0802 10.0394 50.2002ZM163.545 54.186C163.747 53.9842 156.566 51.1646 154.772 50.7412C152.855 50.2887 152.05 50.3346 153.574 50.8098C154.267 51.0256 154.924 51.333 155.034 51.4932C155.144 51.6532 155.954 51.9354 156.834 52.1205C157.714 52.3056 159.549 52.8808 160.912 53.3991C162.276 53.9176 163.46 54.2718 163.545 54.186ZM165.373 54.937C165.346 54.873 165.25 54.7812 165.094 54.6797C164.797 54.4871 164.392 54.3295 164.194 54.3295C163.995 54.3295 164.077 54.4871 164.374 54.6797C164.67 54.8724 165.075 55.0298 165.274 55.0298C165.368 55.0298 165.399 54.9945 165.373 54.937ZM28.8569 56.0995C28.6664 56.4086 32.5861 56.2124 32.951 55.8946C33.0332 55.8228 32.1923 55.7639 31.0822 55.7639C29.9713 55.7639 28.9701 55.9149 28.8569 56.0995ZM39.5579 56.3435C39.6774 56.4635 39.9882 56.4765 40.2476 56.3721C40.5345 56.2567 40.4494 56.1711 40.0297 56.1538C39.6507 56.1383 39.4384 56.2235 39.5579 56.3435ZM47.6448 56.741C48.0878 56.8266 48.8977 56.8287 49.4447 56.746C49.9917 56.6629 49.6296 56.5928 48.6397 56.59C48.009 56.5882 47.5984 56.6152 47.4979 56.6572C47.4402 56.6811 47.4838 56.7098 47.6448 56.741ZM45.9398 56.5438C45.4448 56.5438 45.2424 56.6256 45.4898 56.7259C45.7373 56.8263 46.1423 56.8263 46.3898 56.7259C46.6373 56.6256 46.4348 56.5438 45.9398 56.5438ZM41.8296 57.2039C42.2092 57.2007 42.7633 57.0334 43.06 56.8314C43.4544 56.5635 43.3089 56.53 42.52 56.707C41.1961 57.0045 40.9092 57.2111 41.8296 57.2039ZM35.9581 56.7049C36.0038 56.7509 36.0776 56.7811 36.1662 56.795C36.3082 56.8176 36.4875 56.7979 36.6478 56.7335C36.9347 56.6181 36.8496 56.5325 36.4299 56.5152C36.0509 56.4997 35.8385 56.5849 35.9581 56.7049ZM39.4602 56.9318C38.7669 56.9318 38.4836 57.0063 38.8302 57.0969C39.1768 57.188 39.7435 57.188 40.0901 57.0969C40.4368 57.0063 40.1534 56.9318 39.4602 56.9318ZM24.0667 58.9031C24.4106 58.9935 25.0588 58.9966 25.5067 58.9103C25.9545 58.8239 25.6726 58.7499 24.8809 58.7459C24.0892 58.742 23.7222 58.8128 24.0667 58.9031ZM72.2184 59.0734C71.7235 59.0734 71.521 59.1553 71.7685 59.2555C72.0159 59.3559 72.4209 59.3559 72.6684 59.2555C72.9159 59.1553 72.7134 59.0734 72.2184 59.0734ZM70.1563 59.2345C70.2758 59.3545 70.5866 59.3675 70.846 59.2631C71.1329 59.1477 71.0478 59.0621 70.6281 59.0448C70.2491 59.0293 70.0368 59.1145 70.1563 59.2345ZM54.5794 59.1246C53.4903 59.1246 53.0452 59.1921 53.5894 59.2749C54.1336 59.3576 55.0251 59.3576 55.5693 59.2749C56.1135 59.1921 55.6684 59.1246 54.5794 59.1246ZM44.7326 59.6984C45.2564 59.695 45.7781 59.6768 46.1993 59.6435C46.8342 59.5936 46.735 59.5493 46.0643 59.5251C45.7345 59.5133 45.267 59.5062 44.6799 59.5059C42.8983 59.5048 42.1235 59.5659 42.9594 59.6417C43.4235 59.6837 44.0795 59.7026 44.7326 59.6984ZM73.0164 60.5662C74.8768 60.2872 74.8438 60.2766 71.4985 60.079C66.6443 59.7924 60.5451 59.7053 60.7644 59.9255C60.8671 60.0276 63.1127 60.2007 65.7563 60.31C68.3993 60.4187 70.6857 60.5849 70.8383 60.6796C70.9908 60.7738 71.9709 60.723 73.0164 60.5662ZM48.5574 59.9572C48.6769 60.0772 48.9877 60.0903 49.2471 59.9858C49.534 59.8704 49.4489 59.7848 49.0292 59.7675C48.6502 59.752 48.4379 59.8372 48.5574 59.9572ZM78.0674 61.0745C80.3581 61.0955 80.7089 61.0403 79.5981 60.8331C77.5605 60.4527 76.0714 60.4259 75.5476 60.7603C75.3001 60.9182 76.4342 61.0593 78.0674 61.0745ZM88.7776 61.2416C88.2826 61.2416 88.0801 61.3235 88.3276 61.4237C88.5751 61.5241 88.9801 61.5241 89.2275 61.4237C89.475 61.3235 89.2725 61.2416 88.7776 61.2416ZM84.178 61.5026C84.429 61.5021 84.6891 61.4812 84.9035 61.44C85.3514 61.3535 85.0695 61.2796 84.2778 61.2755C83.4861 61.2716 83.1191 61.3424 83.4636 61.4327C83.6429 61.4798 83.9052 61.5031 84.178 61.5026ZM64.6588 61.333C61.194 61.333 59.7766 61.3872 61.509 61.4537C63.2414 61.5197 66.0763 61.5197 67.8087 61.4537C69.5411 61.3872 68.1237 61.333 64.6588 61.333ZM106.957 62.7238C105.571 62.4551 103.141 62.102 101.557 61.9397C99.9728 61.7772 98.5463 61.6221 98.386 61.5949C98.2257 61.5679 98.1947 61.7085 98.3171 61.9072C98.4394 62.1059 99.2184 62.2755 100.048 62.2837C102.083 62.3047 107.59 63.1383 107.341 63.3885C107.232 63.4983 107.667 63.5037 108.309 63.4003C109.32 63.2382 109.138 63.1471 106.957 62.7238ZM90.5775 61.603C90.0825 61.603 89.88 61.6849 90.1275 61.7851C90.375 61.8855 90.78 61.8855 91.0274 61.7851C91.2749 61.6849 91.0724 61.603 90.5775 61.603ZM120.914 62.1255C121.033 62.2455 121.344 62.2585 121.603 62.1541C121.89 62.0387 121.805 61.9531 121.385 61.9358C121.006 61.9203 120.794 62.0055 120.914 62.1255ZM51.1785 62.4066C51.4984 62.5299 51.6433 62.4692 51.5167 62.2645C51.3958 62.0679 51.1448 61.9072 50.9585 61.9072C50.441 61.9072 50.5549 62.1662 51.1785 62.4066ZM123.102 62.5839C123.201 62.5774 123.306 62.5548 123.403 62.5154C123.59 62.4401 123.619 62.3774 123.5 62.3383C123.436 62.3174 123.331 62.3032 123.185 62.2972C122.806 62.2816 122.594 62.3669 122.714 62.4868C122.788 62.5617 122.937 62.5948 123.102 62.5839ZM92.8351 62.4868C92.9546 62.6068 93.2654 62.6199 93.5248 62.5154C93.8117 62.4 93.7266 62.3144 93.3069 62.2972C93.0692 62.2874 92.897 62.3173 92.8316 62.3706C92.7922 62.4023 92.7908 62.4422 92.8351 62.4868ZM61.059 62.3524C60.3658 62.3524 60.0824 62.4268 60.4291 62.5175C60.7757 62.6086 61.3424 62.6086 61.689 62.5175C62.0356 62.4268 61.7523 62.3524 61.059 62.3524ZM99.12 62.8669C99.364 62.9661 99.8498 62.9721 100.2 62.8803C100.55 62.7886 100.351 62.7076 99.757 62.7003C99.1629 62.6931 98.8767 62.7679 99.12 62.8669ZM78.6981 62.7383C77.609 62.7383 77.164 62.8059 77.7081 62.8886C78.2523 62.9714 79.1439 62.9714 79.688 62.8886C80.2322 62.8059 79.7872 62.7383 78.6981 62.7383ZM101.737 63.0485C101.242 63.0485 101.039 63.1304 101.287 63.2306C101.534 63.331 101.939 63.331 102.187 63.2306C102.434 63.1304 102.232 63.0485 101.737 63.0485ZM128.473 63.571C128.593 63.6909 128.904 63.704 129.163 63.5995C129.332 63.5314 129.372 63.4736 129.289 63.4342C129.233 63.4069 129.117 63.3883 128.945 63.3813C128.745 63.373 128.591 63.3931 128.508 63.4316C128.434 63.4658 128.417 63.5145 128.473 63.571ZM73.0734 63.9131C73.5923 63.9092 73.6359 63.8588 73.1184 63.7665C71.3002 63.4423 68.0611 63.2747 68.3022 63.5175C68.4028 63.6179 69.8518 63.773 71.5217 63.8619C72.2177 63.899 72.7422 63.9156 73.0734 63.9131ZM65.6418 63.5897C65.8857 63.6888 66.3716 63.6948 66.7217 63.6031C67.0718 63.5113 66.8729 63.4303 66.2787 63.4231C65.975 63.4194 65.7521 63.4372 65.6389 63.4686C65.5307 63.4986 65.5229 63.5413 65.6418 63.5897ZM37.3003 63.4099C36.8053 63.4099 36.6028 63.4917 36.8503 63.592C37.0978 63.6924 37.5028 63.6924 37.7502 63.592C37.9977 63.4917 37.7952 63.4099 37.3003 63.4099ZM123.561 66.1382C123.757 65.942 118.965 65.0285 113.796 64.2768C112.015 64.0176 109.99 63.8041 109.296 63.8026C108.153 63.7996 108.186 63.8268 109.656 64.0968C114.539 64.9923 123.405 66.2943 123.561 66.1382ZM102.104 64.2563C101.989 64.2127 101.749 64.154 101.377 64.0754C100.987 63.993 100.483 63.9182 100.01 63.8679C99.6438 63.8289 99.2965 63.8048 99.037 63.8033C98.1364 63.7982 98.1968 63.8471 99.397 64.0961C100.189 64.2605 101.242 64.383 101.737 64.3685C102.154 64.3562 102.284 64.3249 102.104 64.2563ZM75.4618 64.1658C75.4576 64.4979 78.1209 64.4479 79.5981 64.0885C80.3342 63.9092 79.8469 63.8365 78.0716 63.86C76.638 63.8792 75.4632 64.0165 75.4618 64.1658ZM81.5597 64.6321C81.7544 64.5767 81.9513 64.5088 82.1179 64.4368L82.8379 64.1264L82.1179 64.1065C81.7221 64.0954 81.1547 64.2441 80.858 64.4368C80.3785 64.7482 80.3785 64.7848 80.858 64.7671C81.0295 64.7608 81.2918 64.7084 81.5597 64.6321ZM69.1045 64.3849C69.2233 64.3754 69.3372 64.3519 69.4286 64.3147C69.6761 64.2145 69.4736 64.1326 68.9786 64.1326C68.4836 64.1326 68.2811 64.2145 68.5286 64.3147C68.6847 64.3779 68.9027 64.4013 69.1045 64.3849ZM66.3617 64.3124C66.6057 64.4116 67.0915 64.4176 67.4417 64.3258C67.7918 64.2341 67.5928 64.1531 66.9987 64.1458C66.4046 64.1386 66.1184 64.2134 66.3617 64.3124ZM115.66 66.842C116.059 66.441 115.733 66.3337 111.276 65.4034C108.901 64.9072 105.985 64.503 104.797 64.5047L102.637 64.5076L106.057 65.1686C107.937 65.5321 109.984 65.8414 110.605 65.8558C111.226 65.8703 112.564 66.1516 113.579 66.4807C114.594 66.8096 115.53 66.9723 115.66 66.842ZM135.313 65.0165C135.432 65.1365 135.743 65.1493 136.003 65.0451C136.289 64.9296 136.204 64.8441 135.785 64.8268C135.406 64.8112 135.193 64.8965 135.313 65.0165ZM76.984 65.0465C77.3278 65.1368 77.976 65.14 78.4239 65.0537C78.8717 64.9672 78.5898 64.8933 77.7981 64.8892C77.0065 64.8853 76.6395 64.9561 76.984 65.0465ZM158.614 70.6036C157.883 70.1761 152.069 68.576 145.295 66.9386C142.226 66.1967 139.486 65.5744 139.204 65.5552C137.791 65.4599 139.654 66.0069 145.851 67.5064C149.604 68.414 153.867 69.5585 155.325 70.0492C158.03 70.9599 159.705 71.2422 158.614 70.6036ZM109.116 68.2688C108.127 67.9872 106.912 67.6823 106.417 67.5916L105.247 67.3769C105.098 67.3499 104.977 67.4723 104.977 67.6489C104.977 67.9854 106.107 68.2392 109.116 68.5781L110.916 68.7809L109.116 68.2688ZM116.234 69.3529C116.353 69.4729 116.664 69.4858 116.924 69.3815C117.095 69.3125 117.134 69.2543 117.047 69.2148C116.989 69.1881 116.874 69.1701 116.706 69.1633C116.462 69.1532 116.287 69.185 116.225 69.2411C116.191 69.2719 116.192 69.3102 116.234 69.3529ZM122.907 70.9161C123.403 70.8953 123.383 70.8335 122.796 70.5802C121.833 70.1646 121.82 70.1646 122.076 70.5802C122.148 70.6968 122.306 70.7972 122.493 70.8572C122.624 70.8994 122.769 70.9218 122.907 70.9161Z" fill="#FFA100"/>
<path d="M67.7187 14.206C70.4865 14.206 65.3976 14.206 67.7187 14.206V14.206Z" fill="#FFA100"/>
<path d="M135.674 11.265C135.803 11.2569 135.927 11.2327 136.025 11.1929C136.273 11.0926 136.07 11.0108 135.575 11.0108C135.08 11.0108 134.878 11.0926 135.125 11.1929C135.274 11.2534 135.48 11.2774 135.674 11.265Z" fill="#FFA100"/>
<path d="M137.473 11.5332C137.592 11.6532 137.903 11.6663 138.162 11.5618C138.449 11.4464 138.364 11.3609 137.945 11.3436C137.566 11.328 137.353 11.4133 137.473 11.5332Z" fill="#FFA100"/>
<path d="M201.812 12.7257C201.397 12.4302 201.523 12.386 202.352 12.5357L203.432 12.7308L202.352 12.2198C201.116 11.6351 200.286 11.5152 201.092 12.0377C201.571 12.3492 201.571 12.3894 201.092 12.3991C200.866 12.4037 200.746 12.415 200.733 12.4584C200.718 12.5069 200.838 12.5958 201.092 12.7605C201.828 13.2385 202.486 13.2067 201.812 12.7257Z" fill="#FFA100"/>
<path d="M140.713 11.8946C140.832 12.0146 141.143 12.0277 141.402 11.9232C141.689 11.8078 141.604 11.7222 141.184 11.7049C140.805 11.6894 140.593 11.7746 140.713 11.8946Z" fill="#FFA100"/>
<path d="M148.272 12.9787C148.392 13.0987 148.702 13.1118 148.962 13.0073C149.156 12.9292 149.18 12.8646 149.045 12.8258C148.98 12.8074 148.88 12.7947 148.744 12.7891C148.365 12.7735 148.153 12.8588 148.272 12.9787Z" fill="#FFA100"/>
<path d="M206.491 14.8122C205.402 14.3605 204.187 13.8001 203.792 13.5674C202.928 13.0594 202.51 13.0319 201.867 13.4409C201.513 13.6667 201.657 13.8257 202.407 14.0369C202.971 14.1952 203.579 14.2891 203.759 14.2457C203.94 14.2023 204.861 14.5012 205.807 14.9091C206.752 15.3176 207.738 15.6474 207.998 15.6428C208.258 15.638 207.58 15.2645 206.491 14.8122Z" fill="#FFA100"/>
<path d="M150.597 13.3588C150.841 13.458 151.327 13.464 151.677 13.3722C151.871 13.3216 151.897 13.2743 151.781 13.2408C151.688 13.2136 151.501 13.1954 151.234 13.1922C150.64 13.185 150.354 13.2598 150.597 13.3588Z" fill="#FFA100"/>
<path d="M152.757 13.7202C153.001 13.8194 153.487 13.8254 153.837 13.7336C154.187 13.6418 153.988 13.5609 153.394 13.5536C152.8 13.5464 152.514 13.6212 152.757 13.7202Z" fill="#FFA100"/>
<path d="M155.374 13.9018C154.879 13.9018 154.677 13.9836 154.924 14.0839C155.172 14.1843 155.577 14.1843 155.824 14.0839C156.072 13.9836 155.869 13.9018 155.374 13.9018Z" fill="#FFA100"/>
<path d="M156.629 14.3411C156.6 14.3706 156.628 14.4066 156.724 14.4452C156.971 14.5456 157.376 14.5456 157.624 14.4452C157.871 14.345 157.669 14.2631 157.174 14.2631C156.87 14.2631 156.676 14.294 156.629 14.3411Z" fill="#FFA100"/>
<path d="M193.712 18.5311C193.91 18.5311 193.829 18.3738 193.532 18.1811C193.326 18.0475 193.069 17.9309 192.863 17.8717C192.773 17.8456 192.693 17.8308 192.632 17.8308C192.434 17.8308 192.515 17.9884 192.812 18.1811C193.109 18.3738 193.514 18.5311 193.712 18.5311Z" fill="#FFA100"/>
<path d="M198.323 18.8983C198.581 18.8948 198.536 18.7528 198.212 18.5424C197.52 18.0935 197.396 18.0935 197.672 18.5424C197.794 18.7411 198.087 18.9013 198.323 18.8983Z" fill="#FFA100"/>
<path d="M195.512 21.7835C195.71 21.7835 195.629 21.6261 195.332 21.4334C195.035 21.2407 194.63 21.0832 194.432 21.0832C194.234 21.0832 194.315 21.2407 194.612 21.4334C194.909 21.6261 195.314 21.7835 195.512 21.7835Z" fill="#FFA100"/>
<path d="M199.451 22.5121C199.637 22.5151 199.475 22.2869 199.091 22.0051C198.707 21.7232 198.316 21.5693 198.223 21.6632C198.025 21.862 198.953 22.5038 199.451 22.5121Z" fill="#FFA100"/>
<path d="M205.051 25.012C205.348 25.012 204.538 24.4589 203.252 23.7823C201.965 23.1058 200.668 22.5527 200.372 22.5527C200.075 22.5527 200.885 23.1058 202.172 23.7823C203.458 24.4589 204.755 25.012 205.051 25.012Z" fill="#FFA100"/>
<path d="M201.05 24.007C200.877 23.8916 200.644 23.7515 200.372 23.6017C198.953 22.8217 198.932 22.8138 198.932 23.0502C198.932 23.196 199.828 23.7123 200.54 24.037C200.901 24.2011 201.215 24.3161 201.343 24.3092C201.44 24.3041 201.317 24.185 201.05 24.007Z" fill="#FFA100"/>
<path d="M202.943 26.312C202.911 26.1133 201.631 25.3551 200.098 24.6268C197.097 23.2009 196.607 23.0411 196.952 23.6017C197.074 23.8003 196.962 23.9696 196.703 23.9775C196.444 23.9854 196.684 24.2379 197.237 24.539C197.81 24.8506 198.565 24.9831 198.992 24.8472C199.546 24.671 199.668 24.7292 199.458 25.0699C199.254 25.4009 199.348 25.4641 199.792 25.2933C200.005 25.2109 200.142 25.1885 200.199 25.2248C200.249 25.2564 200.238 25.3328 200.164 25.453C200.071 25.6046 200.097 25.8054 200.212 25.9721C200.263 26.0459 200.332 26.1129 200.415 26.166C201.234 26.6864 201.573 26.5338 201.045 25.883C200.611 25.3464 200.63 25.303 201.211 25.5216C201.574 25.6582 201.933 25.7699 202.01 25.7699C202.087 25.7699 202.063 25.9943 201.958 26.2689C201.834 26.5945 202.181 26.9068 202.96 27.1674C203.919 27.4889 204.039 27.4799 203.576 27.1199C203.259 26.8743 202.975 26.5106 202.943 26.312Z" fill="#FFA100"/>
<path d="M40.3271 27.6892C40.2476 27.6551 40.0718 27.6339 39.8201 27.6339C39.3252 27.6339 39.1227 27.7158 39.3702 27.816C39.6176 27.9164 40.0226 27.9164 40.2701 27.816C40.3918 27.7668 40.4044 27.722 40.3271 27.6892Z" fill="#FFA100"/>
<path d="M200.931 28.4375C201.251 28.5608 201.395 28.5001 201.269 28.2954C201.148 28.0989 200.897 27.9381 200.711 27.9381C200.193 27.9381 200.307 28.1972 200.931 28.4375Z" fill="#FFA100"/>
<path d="M36.5824 29.7035C36.922 29.7064 37.2799 29.6862 37.5653 29.643C38.1123 29.5599 37.7502 29.4899 36.7603 29.487C36.2717 29.4858 35.9145 29.5017 35.7324 29.5285C35.5454 29.5558 35.5412 29.5947 35.7654 29.6381C35.9771 29.679 36.2724 29.7009 36.5824 29.7035Z" fill="#FFA100"/>
<path d="M26.9586 32.8543C27.0781 32.9742 27.3888 32.9873 27.6483 32.8828C27.9351 32.7674 27.8501 32.6819 27.4303 32.6646C27.0514 32.649 26.839 32.7343 26.9586 32.8543Z" fill="#FFA100"/>
<path d="M24.4387 33.2156C24.5582 33.3356 24.869 33.3487 25.1284 33.2442C25.4153 33.1288 25.3302 33.0432 24.9105 33.0259C24.5315 33.0104 24.3192 33.0956 24.4387 33.2156Z" fill="#FFA100"/>
<path d="M29.8384 34.6611C29.9579 34.7811 30.2687 34.7942 30.5281 34.6897C30.815 34.5743 30.7299 34.4887 30.3102 34.4714C29.9312 34.4559 29.7189 34.5411 29.8384 34.6611Z" fill="#FFA100"/>
<path d="M28.0385 34.6611C28.158 34.7811 28.4688 34.7942 28.7282 34.6897C29.0151 34.5743 28.93 34.4887 28.5103 34.4714C28.1313 34.4559 27.919 34.5411 28.0385 34.6611Z" fill="#FFA100"/>
<path d="M202.214 37.3338C202.412 37.3338 202.474 37.1711 202.352 36.9725C202.229 36.7738 201.967 36.6111 201.769 36.6111C201.667 36.6111 201.601 36.6548 201.577 36.7245C201.556 36.7895 201.573 36.8768 201.632 36.9725C201.651 37.0037 201.673 37.034 201.698 37.063C201.835 37.2183 202.047 37.3338 202.214 37.3338Z" fill="#FFA100"/>
<path d="M207.972 38.8049C208.55 39.1631 208.813 38.9731 208.483 38.436C208.35 38.221 208.073 38.149 207.868 38.2766C207.626 38.4266 207.663 38.6128 207.972 38.8049Z" fill="#FFA100"/>
<path d="M23.6955 38.5404C23.6772 38.5681 23.6836 38.6006 23.7187 38.6362C23.8382 38.7562 24.149 38.7693 24.4084 38.6648C24.6953 38.5494 24.6102 38.4638 24.1905 38.4465C23.924 38.4356 23.7398 38.4746 23.6955 38.5404Z" fill="#FFA100"/>
<path d="M20.7411 38.4751C20.2462 38.4751 20.0437 38.557 20.2912 38.6572C20.5387 38.7576 20.9436 38.7576 21.1911 38.6572C21.4386 38.557 21.2361 38.4751 20.7411 38.4751Z" fill="#FFA100"/>
<path d="M179.015 41.9099C179.139 41.7845 176.822 41.0711 171.393 39.5631C168.455 38.7469 166.678 38.5845 169.053 39.3493C171.755 40.2186 178.875 42.0493 179.015 41.9099Z" fill="#FFA100"/>
<path d="M2.47983 39.359C2.59935 39.479 2.91011 39.492 3.16956 39.3876C3.45642 39.2722 3.37134 39.1866 2.9516 39.1693C2.57263 39.1538 2.36031 39.239 2.47983 39.359Z" fill="#FFA100"/>
<path d="M11.1074 40.4731C11.4512 40.5634 12.0995 40.5666 12.5473 40.4803C12.9952 40.3939 12.7133 40.3199 11.9216 40.3159C11.1299 40.312 10.7629 40.3827 11.1074 40.4731Z" fill="#FFA100"/>
<path d="M9.06776 40.8982C9.2126 40.8904 9.35744 40.8699 9.4847 40.8366C9.83484 40.7448 9.63586 40.6638 9.04175 40.6566C8.44763 40.6494 8.16148 40.7242 8.40475 40.8232C8.56013 40.8863 8.81325 40.9117 9.06776 40.8982Z" fill="#FFA100"/>
<path d="M191.234 41.436C191.237 41.4028 191.222 41.3589 191.189 41.3049C191.068 41.1083 190.817 40.9476 190.631 40.9476C190.114 40.9476 190.228 41.2066 190.851 41.4469C191.087 41.5378 191.227 41.5288 191.234 41.436Z" fill="#FFA100"/>
<path d="M7.06186 41.0047C6.56688 41.0047 6.3644 41.0866 6.61188 41.1868C6.85936 41.2872 7.26434 41.2872 7.51183 41.1868C7.75932 41.0866 7.55682 41.0047 7.06186 41.0047Z" fill="#FFA100"/>
<path d="M191.83 41.8886C191.949 42.0086 192.26 42.0216 192.52 41.9172C192.694 41.8471 192.731 41.788 192.639 41.7485C192.579 41.7229 192.466 41.7056 192.302 41.6989C191.923 41.6834 191.71 41.7686 191.83 41.8886Z" fill="#FFA100"/>
<path d="M182.373 43.0648C182.713 43.0648 182.647 42.9503 182.193 42.7544C181.797 42.5834 181.229 42.444 180.933 42.444C180.592 42.444 180.659 42.5586 181.113 42.7544C181.509 42.9254 182.076 43.0648 182.373 43.0648Z" fill="#FFA100"/>
<path d="M8.76472 43.3528C9.0087 43.4519 9.49454 43.4579 9.84468 43.3662C10.1948 43.2744 9.99583 43.1934 9.40173 43.1862C8.80762 43.179 8.52147 43.2538 8.76472 43.3528Z" fill="#FFA100"/>
<path d="M6.60484 43.7141C6.84882 43.8133 7.33466 43.8193 7.68478 43.7276C8.03493 43.6358 7.83595 43.5548 7.24184 43.5476C6.64774 43.5403 6.36157 43.6152 6.60484 43.7141Z" fill="#FFA100"/>
<path d="M185.35 44.0568C185.47 44.1768 185.781 44.1899 186.04 44.0854C186.327 43.97 186.242 43.8844 185.822 43.8671C185.443 43.8516 185.231 43.9368 185.35 44.0568Z" fill="#FFA100"/>
<path d="M7.51956 46.9478C7.63908 47.0678 7.94986 47.0808 8.20929 46.9764C8.49615 46.861 8.41107 46.7754 7.99133 46.7581C7.61237 46.7426 7.40004 46.8278 7.51956 46.9478Z" fill="#FFA100"/>
<path d="M7.15958 50.5615C7.27911 50.6815 7.58987 50.6946 7.8493 50.5901C8.13617 50.4747 8.0511 50.3891 7.63135 50.3718C7.2524 50.3563 7.04005 50.4415 7.15958 50.5615Z" fill="#FFA100"/>
<path d="M0.381104 55.0411C0.689774 55.0411 0.942169 54.8784 0.942169 54.6797C0.942169 54.4811 0.789612 54.3184 0.603287 54.3184C0.416962 54.3184 0.164566 54.4811 0.0422211 54.6797C-0.0252686 54.7893 -0.0091095 54.888 0.0710449 54.9543C0.135727 55.0083 0.242599 55.0411 0.381104 55.0411Z" fill="#FFA100"/>
<path d="M10.6617 57.6791C12.1466 57.5584 13.8474 57.2383 14.4415 56.9673C15.456 56.5046 15.3949 56.4891 13.4192 56.707C12.7773 56.7781 11.9673 56.9083 11.2164 57.0553C10.6146 57.1732 10.05 57.3016 9.63937 57.419L7.96181 57.8989L10.6617 57.6791Z" fill="#FFA100"/>
<path d="M6.79961 58.1504C6.91913 58.2704 7.22989 58.2834 7.48933 58.179C7.63417 58.1207 7.68408 58.0701 7.64401 58.032C7.60535 57.9946 7.47949 57.9693 7.27138 57.9607C6.89241 57.9452 6.68007 58.0304 6.79961 58.1504Z" fill="#FFA100"/>
<path d="M26.3054 60.3578C26.4263 60.2992 26.5008 60.2205 26.5008 60.1342C26.5008 59.9539 26.1767 59.8918 25.7809 59.9955C25.385 60.0996 25.0609 60.247 25.0609 60.3234C25.0609 60.3992 25.385 60.4617 25.7809 60.4617C25.9869 60.4617 26.1739 60.4216 26.3054 60.3578Z" fill="#FFA100"/>
<path d="M17.8613 63.461C16.7722 63.461 16.3264 63.5286 16.8713 63.6114C17.4162 63.6941 18.3063 63.6941 18.8512 63.6114C19.3961 63.5286 18.9504 63.461 17.8613 63.461Z" fill="#FFA100"/>
<path d="M12.7245 63.951C12.9685 64.0502 13.4543 64.0562 13.8045 63.9644C14.1546 63.8727 13.9556 63.7917 13.3615 63.7845C12.7674 63.7772 12.4813 63.852 12.7245 63.951Z" fill="#FFA100"/>
<path d="M55.0617 65.6337C51.7269 65.5278 48.9364 65.3824 48.8597 65.3103C48.7824 65.2383 48.5694 65.2723 48.3859 65.3861C48.2016 65.4999 48.1032 65.6362 48.1658 65.6886C48.4189 65.9007 61.5596 66.2643 61.3494 66.0533C61.2249 65.9282 58.395 65.7392 55.0617 65.6337Z" fill="#FFA100"/>
<path d="M40.9001 65.3065C37.6335 65.3065 36.297 65.3616 37.9302 65.4285C39.5635 65.4954 42.2366 65.4954 43.8699 65.4285C45.5032 65.3616 44.1666 65.3065 40.9001 65.3065Z" fill="#FFA100"/>
<path d="M31.1152 65.8398C31.4246 65.8334 31.7297 65.8146 31.9842 65.783C32.6311 65.7023 32.1888 65.6348 31.0006 65.633C29.8124 65.6307 29.283 65.6965 29.8243 65.7793C30.152 65.8292 30.6392 65.8495 31.1152 65.8398Z" fill="#FFA100"/>
<path d="M67.7187 66.4803L65.3788 66.2437C64.0921 66.1136 62.9271 65.9792 62.79 65.9448C62.6536 65.9105 62.4413 66.0448 62.319 66.2437C62.1769 66.4747 63.1106 66.5826 64.9077 66.5426L67.7187 66.4803Z" fill="#FFA100"/>
<path fill-rule="evenodd" clip-rule="evenodd" d="M81.218 67.0481C76.489 67.06 74.7784 66.9627 74.5991 66.6726C74.3959 66.3441 68.2586 66.2934 68.2586 66.6202C68.2586 66.7593 70.0403 66.9895 72.2184 67.1312C74.5161 67.2805 76.1782 67.5443 76.1782 67.7592C76.1782 67.9909 77.1766 68.0791 78.8472 67.9941C80.3145 67.9196 81.4535 67.9599 81.3783 68.083C81.3023 68.2064 82.8955 68.4177 84.919 68.5533C90.1022 68.9002 90.9607 68.9902 95.6172 69.6757C97.8938 70.0109 100.567 70.193 101.557 70.0805C101.837 70.0485 102.074 70.0256 102.268 70.012C102.982 69.9619 103.126 70.0376 102.817 70.255C102.42 70.5343 102.657 70.5758 103.717 70.4132C104.821 70.2437 105.031 70.2857 104.617 70.5939C104.203 70.9018 104.399 70.9419 105.462 70.7647C106.306 70.6243 106.765 70.6687 106.636 70.8778C106.378 71.2964 109.485 71.8132 110.071 71.4495C110.312 71.3004 110.39 71.3484 110.259 71.5633C109.969 72.0339 112.556 72.4749 113.893 72.1825C114.65 72.0167 114.752 72.0553 114.336 72.3523C113.857 72.6946 113.857 72.735 114.336 72.7173C114.633 72.7064 115.198 72.5716 115.59 72.4177C116.186 72.1843 116.085 72.0964 114.982 71.8887C114.255 71.7516 113.204 71.7398 112.648 71.8619C112.009 72.0022 111.804 71.965 112.089 71.7612C112.725 71.3061 102.619 69.3923 99.217 69.324C95.6615 69.2524 91.8571 68.7346 92.402 68.3967C92.6396 68.2492 92.0835 68.2131 91.166 68.3172C89.9784 68.4516 89.4975 68.3768 89.4975 68.0585C89.4975 67.7603 89.1938 67.6874 88.5884 67.8399C87.2807 68.1695 82.5447 67.6403 83.7378 67.2982C84.2525 67.1503 83.1725 67.0434 81.218 67.0481ZM100.395 69.7143C100.514 69.8343 100.825 69.8472 101.084 69.7429C101.371 69.6275 101.286 69.5419 100.866 69.5246C100.487 69.5091 100.275 69.5943 100.395 69.7143Z" fill="#FFA100"/>
<path d="M42.7977 66.462C42.9172 66.5819 43.228 66.5948 43.4874 66.4905C43.7743 66.3751 43.6892 66.2896 43.2695 66.2723C42.8905 66.2567 42.6782 66.342 42.7977 66.462Z" fill="#FFA100"/>
<path d="M82.8983 69.0136C83.0762 68.8354 70.7258 68.0133 60.9557 67.5533C50.7728 67.0737 49.6866 67.06 49.3421 67.4054C49.2549 67.4931 49.6331 67.578 50.2793 67.6357C50.6793 67.6714 51.1827 67.6964 51.7417 67.7051C53.2034 67.7278 55.2093 67.7871 56.1993 67.8374C59.527 68.0061 66.9783 68.461 69.3386 68.6403C75.2916 69.0916 82.6199 69.2933 82.8983 69.0136Z" fill="#FFA100"/>
<path fill-rule="evenodd" clip-rule="evenodd" d="M50.0023 68.185C44.6335 68.0123 42.4314 67.8219 42.5861 67.5431C42.707 67.3253 42.5875 67.3506 42.321 67.5988C41.9793 67.9168 40.1253 68.0647 36.0586 68.0978C32.8807 68.124 29.0657 68.2602 27.5808 68.4006C24.9323 68.6515 24.9196 68.6577 26.9058 68.7147C28.0195 68.7468 29.4777 68.8523 30.1456 68.9489C31.0723 69.0833 31.1511 69.0588 30.4768 68.8463C29.991 68.693 34.3649 68.5647 40.1963 68.5612C46.0277 68.5575 50.0705 68.6732 49.1796 68.8181C48.2544 68.9685 49.7984 69.0309 52.7795 68.9637C56.1944 68.8868 57.5014 68.9503 56.5593 69.1477C55.537 69.3619 56.1641 69.4122 58.7191 69.3203C61.1989 69.2319 61.9829 69.2912 61.239 69.5116C60.5176 69.7254 61.6538 69.7916 64.6588 69.7106C67.1337 69.6437 68.4295 69.693 67.5387 69.8195C66.2366 70.0044 66.74 70.1016 70.1049 70.3141C72.4076 70.4595 75.08 70.4981 76.0446 70.3998C77.64 70.2378 77.6927 70.255 76.6282 70.5922C75.9849 70.7956 75.459 70.9982 75.4597 71.0423C75.4604 71.086 77.2019 71.146 79.3295 71.1753C83.6767 71.2353 89.9538 71.9288 100.297 73.4918C111.208 75.1411 117.932 76.438 117.681 76.8456C117.551 77.0566 117.693 77.117 118.023 76.9901C118.764 76.7046 123.696 77.4432 123.696 77.8397C123.696 77.9214 123.753 77.9738 123.847 77.9929C123.946 78.0134 124.086 77.9961 124.241 77.9366C124.421 77.8669 124.661 77.8706 124.88 77.9329C125.025 77.974 125.161 78.0404 125.266 78.1281C125.725 78.5097 138.119 81.4596 138.956 81.3862C139.176 81.3672 138.302 81.0579 137.015 80.6986C134.144 79.8973 134.892 79.7821 138.074 80.5352C139.349 80.8369 140.613 80.9993 140.883 80.8955C141.152 80.7918 141.273 80.8676 141.152 81.0639C140.955 81.3848 141.787 81.5518 143.566 81.5493C143.903 81.5489 144.081 81.7083 143.961 81.9031C143.827 82.1196 144.08 82.1679 144.608 82.0273C145.11 81.8941 146.892 82.1834 148.842 82.7151C150.185 83.0811 151.385 83.3648 151.973 83.4629C152.197 83.5001 152.333 83.5105 152.354 83.4887C152.602 83.24 145.257 81.0946 140.4 79.9965C124.144 76.3217 99.461 71.9071 87.8776 70.6029C82.551 70.003 58.2017 68.4488 50.0023 68.185ZM72.5784 69.9412C71.8852 69.9412 71.6018 70.0157 71.9485 70.1064C72.2951 70.1974 72.8618 70.1974 73.2084 70.1064C73.555 70.0157 73.2717 69.9412 72.5784 69.9412ZM128.611 78.8233C128.761 78.8669 128.975 78.8527 129.163 78.7772C129.45 78.6618 129.365 78.5762 128.945 78.559C128.566 78.5434 128.354 78.6286 128.473 78.7486C128.506 78.7818 128.554 78.8067 128.611 78.8233ZM130.273 79.11C130.393 79.23 130.703 79.2429 130.963 79.1386C131.172 79.0543 131.184 78.986 131.011 78.9484C130.947 78.9346 130.858 78.9249 130.745 78.9203C130.366 78.9048 130.154 78.99 130.273 79.11Z" fill="#FFA100"/>
<path d="M97.5148 68.9916C97.6344 69.1115 97.9451 69.1244 98.2046 69.0201C98.4914 68.9048 98.4064 68.8192 97.9866 68.8019C97.6076 68.7864 97.3953 68.8716 97.5148 68.9916Z" fill="#FFA100"/>
<path d="M46.2998 68.8305C45.8048 68.8305 45.6023 68.9123 45.8498 69.0126C46.0973 69.113 46.5023 69.113 46.7498 69.0126C46.9973 68.9123 46.7948 68.8305 46.2998 68.8305Z" fill="#FFA100"/>
<path d="M23.261 68.8716C22.3702 68.8716 22.006 68.942 22.451 69.0284C22.8961 69.1144 23.6259 69.1144 24.071 69.0284C24.2784 68.9882 24.31 68.9513 24.1947 68.9235C24.0625 68.8917 23.737 68.8716 23.261 68.8716Z" fill="#FFA100"/>
<path d="M91.4563 70.6253C96.3231 70.7594 96.3864 70.5198 91.6574 69.8574C86.4496 69.1281 83.5072 68.9933 83.214 69.4703C83.0903 69.6709 83.8074 69.7233 84.9921 69.6005C86.084 69.4874 86.9777 69.5409 86.9777 69.7191C86.9777 69.8975 87.7271 69.9836 88.644 69.9102C89.8006 69.8181 90.2337 69.8999 90.0621 70.1786C89.8962 70.4485 90.3532 70.595 91.4563 70.6253Z" fill="#FFA100"/>
<path d="M20.3811 69.1918C19.8862 69.1918 19.6837 69.2737 19.9312 69.3739C20.1787 69.4743 20.5836 69.4743 20.8311 69.3739C21.0786 69.2737 20.8761 69.1918 20.3811 69.1918Z" fill="#FFA100"/>
<path d="M64.3966 70.4371C64.5161 70.557 64.8269 70.5699 65.0863 70.4656C65.3732 70.3502 65.2881 70.2647 64.8683 70.2474C64.6082 70.2368 64.4268 70.2735 64.3769 70.3365C64.3544 70.3652 64.3593 70.3995 64.3966 70.4371Z" fill="#FFA100"/>
<path d="M138.275 71.2415C138.854 71.2329 138.818 71.1743 138.095 70.9415C136.864 70.5458 135.918 70.5458 136.835 70.9415C137.231 71.1125 137.879 71.2473 138.275 71.2415Z" fill="#FFA100"/>
<path d="M100.851 71.13C100.761 71.0705 100.409 71.0126 99.757 70.9098C97.4818 70.5509 96.5572 70.5636 95.9772 70.9613C95.5736 71.2378 95.8042 71.3098 96.887 71.2461C97.6843 71.1992 98.528 71.2791 98.7607 71.4236C98.8648 71.488 99.0504 71.5226 99.2733 71.5277C99.5496 71.5342 99.8835 71.4952 100.19 71.4116C100.714 71.2687 100.954 71.1983 100.851 71.13Z" fill="#FFA100"/>
<path d="M139.273 71.5212C139.392 71.6412 139.703 71.654 139.962 71.5498C140.249 71.4344 140.164 71.3488 139.744 71.3315C139.365 71.316 139.153 71.4012 139.273 71.5212Z" fill="#FFA100"/>
<path d="M101.017 71.984C101.314 71.9674 101.962 71.8233 102.457 71.6643L103.357 71.3747L102.457 71.3444C102.205 71.3359 101.913 71.3691 101.649 71.4289C101.393 71.4868 101.162 71.5697 101.017 71.6643C100.537 71.9757 100.537 72.0112 101.017 71.984Z" fill="#FFA100"/>
<path d="M103.855 72.387C104.25 72.387 104.674 72.2243 104.797 72.0257C104.919 71.8268 104.695 71.6643 104.299 71.6643C104.133 71.6643 103.963 71.6929 103.811 71.7405C103.601 71.8069 103.428 71.9101 103.357 72.0257C103.234 72.2243 103.458 72.387 103.855 72.387Z" fill="#FFA100"/>
<path d="M115.381 73.5456C114.905 73.5481 112.815 73.2246 110.736 72.8264C108.657 72.4285 106.592 72.0856 106.147 72.0643C104.813 72.0008 105.233 72.6381 106.687 72.885C107.161 72.9654 108.074 73.1272 109.058 73.3046L110.736 73.6095C121.585 75.6004 122.105 75.6715 122.988 75.2867C123.875 74.9004 123.875 74.9 122.892 75.0945C121.515 75.3662 118.817 74.9057 119.437 74.5046C119.73 74.3146 119.388 74.2581 118.554 74.3598C117.751 74.4573 117.279 74.3853 117.402 74.1845C117.526 73.9825 117.128 73.9271 116.424 74.049C115.585 74.1942 115.385 74.1498 115.741 73.8975C116.133 73.6211 116.052 73.5415 115.381 73.5456Z" fill="#FFA100"/>
<path d="M117.576 72.4442C117.081 72.4442 116.879 72.5261 117.126 72.6263C117.374 72.7267 117.779 72.7267 118.026 72.6263C118.274 72.5261 118.071 72.4442 117.576 72.4442Z" fill="#FFA100"/>
<path d="M119.376 72.8056C118.881 72.8056 118.678 72.8874 118.926 72.9877C119.173 73.0881 119.578 73.0881 119.826 72.9877C120.073 72.8874 119.871 72.8056 119.376 72.8056Z" fill="#FFA100"/>
<path d="M115.514 72.9667C115.633 73.0867 115.944 73.0995 116.204 72.9953C116.49 72.8799 116.405 72.7943 115.986 72.777C115.607 72.7615 115.394 72.8467 115.514 72.9667Z" fill="#FFA100"/>
<path d="M120.657 73.2273C120.593 73.2596 120.611 73.3023 120.726 73.349C120.973 73.4494 121.378 73.4494 121.626 73.349C121.873 73.2488 121.671 73.1669 121.176 73.1669C120.911 73.1669 120.731 73.1902 120.657 73.2273Z" fill="#FFA100"/>
<path d="M117.314 73.328C117.433 73.448 117.744 73.4609 118.004 73.3566C118.29 73.2412 118.205 73.1556 117.786 73.1384C117.407 73.1228 117.194 73.2081 117.314 73.328Z" fill="#FFA100"/>
<path d="M122.714 73.6894C122.833 73.8094 123.144 73.8223 123.403 73.718C123.69 73.6026 123.605 73.517 123.185 73.4997C122.806 73.4842 122.594 73.5694 122.714 73.6894Z" fill="#FFA100"/>
<path d="M119.114 73.6894C119.233 73.8094 119.544 73.8223 119.803 73.718C120.09 73.6026 120.005 73.517 119.585 73.4997C119.207 73.4842 118.994 73.5694 119.114 73.6894Z" fill="#FFA100"/>
<path d="M124.513 74.0508C124.633 74.1708 124.944 74.1837 125.203 74.0794C125.49 73.964 125.405 73.8784 124.985 73.8611C124.606 73.8456 124.394 73.9308 124.513 74.0508Z" fill="#FFA100"/>
<path d="M120.719 74.0695C120.963 74.1687 121.449 74.1747 121.799 74.0829C122.149 73.9911 121.95 73.9102 121.356 73.9029C120.762 73.8957 120.476 73.9705 120.719 74.0695Z" fill="#FFA100"/>
<path d="M122.714 74.4122C122.833 74.5322 123.144 74.545 123.403 74.4407C123.69 74.3253 123.605 74.2398 123.185 74.2225C122.995 74.2147 122.846 74.2324 122.761 74.2671C122.676 74.3015 122.654 74.3525 122.714 74.4122Z" fill="#FFA100"/>
<path d="M128.375 74.6124C127.881 74.6124 127.678 74.6943 127.926 74.7945C128.173 74.8949 128.578 74.8949 128.825 74.7945C129.073 74.6943 128.87 74.6124 128.375 74.6124Z" fill="#FFA100"/>
<path d="M124.888 74.8658C125.012 74.857 125.131 74.8332 125.226 74.7945C125.473 74.6943 125.271 74.6124 124.776 74.6124C124.281 74.6124 124.078 74.6943 124.326 74.7945C124.478 74.8563 124.69 74.8801 124.888 74.8658Z" fill="#FFA100"/>
<path d="M130.06 75.2166C130.122 75.205 130.184 75.1873 130.243 75.1635C130.53 75.0481 130.445 74.9625 130.025 74.9452C129.775 74.935 129.598 74.9685 129.54 75.0267C129.51 75.0571 129.512 75.094 129.553 75.1349C129.645 75.2275 129.851 75.2563 130.06 75.2166Z" fill="#FFA100"/>
<path d="M126.576 74.9738C126.081 74.9738 125.878 75.0557 126.126 75.1559C126.373 75.2563 126.778 75.2563 127.026 75.1559C127.273 75.0557 127.071 74.9738 126.576 74.9738Z" fill="#FFA100"/>
<path d="M131.353 75.4963C131.473 75.6163 131.783 75.6292 132.043 75.5249C132.33 75.4095 132.245 75.3239 131.825 75.3066C131.446 75.2911 131.234 75.3763 131.353 75.4963Z" fill="#FFA100"/>
<path d="M131.075 75.8566L129.995 75.6101C129.769 75.5586 129.512 75.51 129.258 75.4696C128.845 75.4036 128.441 75.359 128.195 75.3567C127.632 75.3514 127.67 75.4128 128.375 75.6394C129.444 75.9826 128.874 76.1052 126.396 76.0643L124.596 76.0343L126.756 76.5439C129.005 77.0748 130.661 77.2139 129.095 76.7408C128.258 76.4879 128.296 76.4477 129.635 76.1629L131.075 75.8566Z" fill="#FFA100"/>
<path d="M123.696 75.6394C122.972 75.8721 122.937 75.9307 123.516 75.9394C123.912 75.9452 124.56 75.8104 124.956 75.6394C125.873 75.2436 124.927 75.2436 123.696 75.6394Z" fill="#FFA100"/>
<path d="M130.535 76.6725C130.832 76.6725 131.399 76.5331 131.795 76.3621C132.249 76.1663 132.316 76.0518 131.975 76.0518C131.679 76.0518 131.111 76.1911 130.715 76.3621C130.261 76.558 130.195 76.6725 130.535 76.6725Z" fill="#FFA100"/>
<path d="M131.805 77.3266L133.06 76.8417C133.597 76.6344 133.924 76.5089 133.915 76.4743C133.9 76.4218 133.105 76.5799 131.075 76.9804C130.253 77.1428 131.326 77.4812 135.575 78.3998C138.644 79.0638 141.479 79.5928 141.875 79.5762C142.87 79.5338 136.208 77.8911 133.78 77.58L131.805 77.3266Z" fill="#FFA100"/>
<path d="M135.035 77.0849C136.024 77.5117 136.593 77.5117 135.935 77.0849C135.638 76.8922 135.152 76.7434 134.855 76.7546C134.667 76.7614 134.595 76.7962 134.639 76.8576C134.679 76.9123 134.812 76.9884 135.035 77.0849Z" fill="#FFA100"/>
<path d="M176.634 78.8917C176.844 78.8917 176.915 78.729 176.793 78.5304C176.671 78.3315 176.499 78.169 176.412 78.169C176.364 78.169 176.321 78.2166 176.292 78.292C176.268 78.3559 176.253 78.4393 176.253 78.5304C176.253 78.729 176.425 78.8917 176.634 78.8917Z" fill="#FFA100"/>
<path d="M139.993 78.3873C140.112 78.5072 140.423 78.5201 140.682 78.4158C140.819 78.3612 140.871 78.3132 140.844 78.2759C140.813 78.2346 140.685 78.2066 140.464 78.1976C140.085 78.1821 139.873 78.2673 139.993 78.3873Z" fill="#FFA100"/>
<path d="M143.173 79.9314C143.296 79.9354 143.435 79.9125 143.562 79.8613C143.849 79.7459 143.764 79.6604 143.344 79.6431C143.143 79.6348 142.989 79.6549 142.906 79.6935C142.833 79.7278 142.816 79.7765 142.872 79.8328C142.934 79.894 143.044 79.9273 143.173 79.9314Z" fill="#FFA100"/>
<path d="M139.633 81.6396C139.752 81.7596 140.063 81.7725 140.322 81.6682C140.609 81.5528 140.524 81.4672 140.104 81.4499C139.725 81.4344 139.513 81.5196 139.633 81.6396Z" fill="#FFA100"/>
<path d="M141.376 82.0998C141.498 82.1033 141.636 82.0802 141.762 82.0296C142.049 81.9142 141.964 81.8286 141.544 81.8113C141.165 81.7958 140.953 81.881 141.073 82.001C141.134 82.0628 141.246 82.0961 141.376 82.0998Z" fill="#FFA100"/>
<path d="M142.512 82.3624C142.632 82.4824 142.943 82.4952 143.202 82.391C143.489 82.2756 143.404 82.19 142.984 82.1727C142.605 82.1572 142.393 82.2424 142.512 82.3624Z" fill="#FFA100"/>
<path d="M144.286 82.8229C144.401 82.822 144.527 82.7987 144.642 82.7523C144.854 82.6671 144.863 82.5981 144.684 82.5609C144.621 82.5478 144.534 82.5386 144.424 82.5341C144.045 82.5185 143.833 82.6038 143.952 82.7237C144.018 82.7903 144.144 82.824 144.286 82.8229Z" fill="#FFA100"/>
</g>
</svg>
