<svg width="182" height="81" viewBox="0 0 182 81" fill="none" xmlns="http://www.w3.org/2000/svg">
<g id="Union" style="mix-blend-mode:multiply">
<path fill-rule="evenodd" clip-rule="evenodd" d="M146.193 1.03588C146.412 0.795994 146.354 0.70969 145.905 0.575153C145.767 0.540699 145.632 0.517063 145.519 0.506397C145.37 0.492618 145.258 0.50066 145.216 0.534794C145.181 0.573185 144.757 0.633564 144.151 0.695743C143.809 0.730701 143.408 0.766132 142.987 0.798298C141.835 0.887058 140.739 1.06214 140.555 1.18404C140.269 1.38422 139.286 1.35125 138.47 1.20652C137.921 1.10955 137.447 0.962208 137.31 0.801258C137.268 0.745624 137.23 0.702152 137.195 0.670154C137.145 0.625858 137.101 0.60387 137.063 0.60239C137 0.600086 136.952 0.652591 136.918 0.75301C136.776 1.10791 131.881 1.20734 131.504 0.86623C131.389 0.752186 131.185 0.75745 131.057 0.936451C130.931 1.08609 129.873 1.26018 128.702 1.32022C127.53 1.38045 126.527 1.55306 126.512 1.69974C126.408 2.17064 125.55 2.07613 125.541 1.57898C125.531 1.02324 125.066 1.00618 124.76 1.57029C124.66 1.73551 124.585 1.81804 124.491 1.81508C124.399 1.81214 124.286 1.7273 124.107 1.55814C123.804 1.24427 123.469 1.19454 122.894 1.35599C121.988 1.64313 117.523 1.78981 116.142 1.59211C115.87 1.55371 115.422 1.504 114.926 1.45609C114.469 1.41195 113.97 1.36945 113.531 1.33893C113.216 1.30825 112.962 1.28594 112.761 1.27347C112.647 1.26625 112.55 1.2623 112.469 1.26165C112.055 1.25821 112.067 1.34336 112.326 1.54616C112.652 1.80213 112.671 1.88367 112.095 1.96062C111.907 1.98572 111.655 2.01033 111.329 2.04053C111.14 2.05907 110.945 2.06826 110.756 2.0694C110.376 2.0717 110.014 2.04135 109.74 1.98819C109.561 1.95374 109.42 1.90976 109.334 1.85889C109.052 1.6615 108.586 1.61524 108.289 1.7109C108.012 1.8059 106.266 1.9982 104.425 2.13439C99.4627 2.52817 97.9218 2.71505 97.4438 3.02024C97.3185 3.09998 96.3457 3.21794 94.8987 3.33937C93.5758 3.45044 91.8573 3.56415 90.029 3.65424L88.5887 3.73496C78.9538 4.27887 77.5186 4.44361 77.1895 4.89908C77.0277 5.16671 76.6581 5.32274 76.265 5.24529C76.0926 5.22133 75.868 5.2471 75.6434 5.30452C75.4057 5.36539 75.1667 5.46155 74.9879 5.57148C74.6379 5.7856 74.1025 6.06305 73.8257 6.12885C73.5291 6.22451 73.1975 6.40877 73.0891 6.55791C72.7613 6.97615 71.6161 7.41603 70.4094 7.62326C70.2984 7.65543 70.2253 7.74518 70.2828 7.83149C70.3232 7.89252 70.3885 7.94207 70.4995 7.98703C70.2893 8.07793 70.1717 8.15767 70.1756 8.2105C70.1548 8.69223 69.2942 8.74868 69.1988 8.26055C69.0931 7.71515 68.6308 7.77947 68.4271 8.3882C68.2887 8.74508 68.1972 8.76361 67.7833 8.48993C67.4308 8.23365 67.0912 8.24315 66.5532 8.50223C65.7096 8.94295 61.3387 9.86522 59.9441 9.91117C59.4165 9.92922 58.2398 10.0203 57.3297 10.1166C55.9101 10.2272 55.7325 10.2931 56.1766 10.5309C56.6637 10.7896 56.5592 10.8408 55.2821 11.1913C55.1201 11.2366 54.9543 11.2752 54.7884 11.3071C54.6661 11.3271 54.5461 11.3469 54.4294 11.3661L54.4137 11.3687C53.9175 11.4351 53.4812 11.4341 53.2854 11.36C52.9732 11.2148 52.5057 11.2505 52.2302 11.3962C51.9742 11.5382 50.2871 12.0317 48.498 12.4864C43.6793 13.7389 42.1932 14.1915 41.7752 14.5754C41.565 14.7674 38.3213 15.6385 34.5812 16.4915C23.9186 18.9966 22.409 19.4242 22.1517 19.9544C22.0381 20.2463 21.7011 20.4641 21.3016 20.4563C20.9438 20.4696 20.4057 20.7286 20.0988 21.0004C19.7907 21.2721 19.3127 21.6383 19.0503 21.7517C18.7748 21.8974 18.4796 22.1366 18.3987 22.3025C18.1479 22.7714 17.0953 23.4043 15.9436 23.8185C15.8913 23.844 15.8521 23.8817 15.8338 23.9226C15.8143 23.9638 15.8182 24.0079 15.8547 24.0456C16.0219 24.2205 16.4215 24.2284 17.9245 24.1603C18.6167 24.1086 19.2527 24.158 19.3114 24.2655C19.3885 24.369 18.8922 24.6493 18.2223 24.9057C17.5694 25.1582 16.7793 25.6777 16.4698 26.0393C15.92 26.719 14.4692 27.5521 13.6687 27.6261C13.4441 27.642 13.2965 27.7617 13.3735 27.8654C13.4271 27.9441 13.9233 27.9622 14.4457 27.9152C15.2959 27.8014 16.4059 28.0522 15.9122 28.2427C15.8733 28.262 15.7988 28.2926 15.7036 28.3317L15.5779 28.3837C15.4408 28.4406 15.2801 28.5089 15.1247 28.5825C14.5815 28.8127 12.6645 29.3834 11.3678 29.7376C10.8806 29.8668 11.1522 30.2889 11.77 30.3421C11.8796 30.3506 11.9841 30.4086 12.0598 30.4914C12.129 30.5682 12.1734 30.6667 12.1748 30.7669C12.1957 30.9715 12.2544 31.079 12.3158 31.0066C12.3288 30.9942 12.3458 30.9763 12.3662 30.9537C12.4089 30.9065 12.4663 30.8391 12.5326 30.7613C12.5881 30.6968 12.6498 30.6251 12.714 30.5517C12.7614 30.4974 12.8103 30.4422 12.8591 30.3882C13.3043 29.8497 14.1701 29.9117 13.8032 30.4642C13.6792 30.6089 13.448 30.686 13.2678 30.6334C13.1399 30.5918 13.0719 30.581 13.0641 30.6148C13.0537 30.6557 13.1294 30.7613 13.2926 30.9566C13.5708 31.3176 13.593 31.4324 13.4154 31.5883C13.2809 31.6754 13.0537 31.7812 12.9022 31.7824C12.2844 31.8191 11.8248 32.0918 11.8757 32.3503C11.9032 32.4938 12.1865 32.5852 12.5143 32.5183C12.7441 32.4715 12.9034 32.4912 12.9662 32.5565C12.9988 32.5901 13.0066 32.6359 12.9845 32.691C12.9034 32.8569 12.3928 32.9611 11.8051 32.9618C10.3152 32.9076 7.27512 33.558 8.07163 33.7536C8.36936 33.8224 8.65805 33.8763 8.92966 33.9129C9.47031 33.9858 9.93772 33.9896 10.2616 33.9034C10.3387 33.8772 10.4275 33.8637 10.5163 33.8616C10.6743 33.8576 10.831 33.8898 10.9159 33.9492C11.0543 34.036 11.066 34.1362 10.9903 34.2303C10.831 34.4286 10.2812 34.5989 9.70664 34.5543C9.24045 34.5 8.52866 34.6452 8.10166 34.882C7.69162 35.1148 7.29599 35.2254 7.22934 35.1791C7.05698 34.9755 6.41709 35.5839 6.57114 35.7913C6.79575 36.1634 14.5515 34.3115 15.0934 33.783C15.6419 33.1933 17.0078 32.7056 17.2024 33.0241C17.2795 33.1277 17.8919 33.0624 18.5553 32.8671C19.2201 32.6718 20.108 32.4608 20.5141 32.4075C20.703 32.3689 21.1494 32.2911 21.7278 32.1902C22.3772 32.0769 23.1928 31.9346 23.9969 31.7863C25.5027 31.5384 27.0279 31.2869 27.3752 31.2161C28.4304 31.09 27.9067 31.6149 26.6296 31.9653C25.9649 32.1304 24.7909 32.4584 24.0008 32.6799L23.9813 32.6848C23.1899 32.9061 21.6881 33.2725 20.6239 33.4598C19.5661 33.6757 18.2719 33.94 17.7483 34.0767C17.2195 34.1847 16.8133 34.1481 16.859 33.9896C16.8851 33.8348 17.0027 33.7515 17.1097 33.8189C17.2234 33.9152 17.2795 33.8142 17.252 33.6706C17.2168 33.4926 17.1723 33.3984 17.0418 33.404C16.8785 33.4108 16.5796 33.5751 15.9931 33.9275C15.5348 34.2002 15.0791 34.5916 15.0151 34.8436C14.9118 35.1929 15.1535 35.2631 16.4084 35.186C17.2285 35.1082 17.8814 35.154 17.8488 35.28C17.828 35.3176 17.6504 35.3913 17.363 35.4854C16.8799 35.644 16.0832 35.8605 15.1939 36.0607C14.6742 36.1888 14.1754 36.3086 13.7484 36.4112L13.7308 36.4154C13.0101 36.5887 12.4981 36.7118 12.445 36.7415C12.3354 36.7638 12.0011 36.802 11.6563 36.783C11.339 36.7797 11.1471 36.854 11.0674 37.0342C11.0412 37.0918 11.0268 37.1602 11.0243 37.2403C11.002 37.9017 11.3089 38.0181 12.4464 37.7261C12.9884 37.5857 13.516 37.5676 13.5981 37.7C13.734 37.911 13.1541 38.1488 11.4696 38.5524C11.3337 38.5801 11.198 38.6251 11.0804 38.6784C10.9303 38.7468 10.8102 38.8289 10.7605 38.906C10.6599 39.0719 9.96909 39.315 9.31748 39.4565C9.03281 39.5183 8.75595 39.5606 8.53781 39.5687C8.40732 39.5697 7.47226 39.824 6.35959 40.1269L5.83078 40.2708C4.50266 40.6611 3.06101 41.0451 2.63523 41.102C2.10764 41.1903 1.84519 41.3519 1.83078 41.6069C1.82297 41.7422 1.88437 41.9038 2.01364 42.0947C2.15988 42.3633 2.44455 42.3647 2.91989 42.1782C3.30515 42.01 3.77268 41.9744 3.96469 42.0845C4.1749 42.1908 4.30161 42.1647 4.27939 42.0499C4.26364 41.971 4.26767 41.8034 4.28586 41.6257C4.29502 41.545 4.30673 41.4621 4.32114 41.3847C4.36691 41.1648 4.41123 41.069 4.50009 41.0757C4.56149 41.0805 4.64499 41.1358 4.76645 41.2342C5.04074 41.4741 5.17526 41.6856 5.16867 41.8479C5.1622 41.9967 5.03684 42.1042 4.79257 42.1541C4.77231 42.1582 4.75217 42.1632 4.73239 42.1691C4.68479 42.1833 4.63877 42.2022 4.59543 42.2249C4.42954 42.3114 4.30417 42.4515 4.28855 42.5853C4.24411 42.7437 4.11484 42.8596 3.99472 42.8245C3.90854 42.8053 3.79624 42.8255 3.68906 42.8849C3.62253 42.9223 3.55857 42.9753 3.50632 43.0437C3.36399 43.192 2.72275 43.502 2.06455 43.7259C0.797823 44.1338 0.484469 44.3768 1.05649 44.5883C1.38156 44.701 1.61533 45.2205 1.33066 45.2189C1.25229 45.2051 1.06955 45.2423 0.929781 45.3009C0.663424 45.3893 0.806978 45.5613 1.08518 45.6701C1.29148 45.7508 1.57102 45.7966 1.81259 45.7473C2.3414 45.6394 2.7175 46.0105 2.46286 46.3608C2.37534 46.4982 1.97837 46.6985 1.58274 46.8093C0.352511 47.2096 0.620333 47.9014 2.05417 47.9667C3.18637 48.0341 2.80368 48.5004 1.3934 48.7584C-0.527616 49.1206 -0.442655 49.8495 1.52658 49.8355C1.853 49.8263 2.24216 49.8537 2.55295 49.8985C2.72666 49.9236 2.8768 49.9541 2.97873 49.987C3.26206 50.0783 3.96982 50.113 4.55747 50.1123C5.16342 50.1081 5.67148 50.1835 5.69882 50.3271C5.73801 50.5281 3.4841 50.9286 1.65195 51.0638C1.19748 51.0669 0.878878 51.2812 0.659395 51.714C0.514498 52.0104 0.454439 52.1621 0.484469 52.2255C0.504 52.2685 0.565401 52.2706 0.668551 52.2494C0.833101 52.2159 1.12692 52.3648 1.3176 52.5648C1.52658 52.7609 1.93003 52.8874 2.22263 52.8278C2.51377 52.7682 3.05832 52.8363 3.43051 52.9989C3.7988 53.133 4.53012 53.1924 5.04074 53.0882C5.55783 53.0125 6.22385 53.0258 6.53073 53.1423C6.81406 53.2337 7.54795 53.2034 8.13169 53.0842C8.51694 52.9855 8.90476 52.9395 9.15817 52.939C9.28354 52.9387 9.37619 52.9497 9.41806 52.9709C9.87375 53.2659 9.76413 53.6764 9.16733 53.828C8.67502 53.9284 8.6489 53.9934 8.99887 54.1311C9.22739 54.2336 10.2173 54.0613 11.2044 53.7704C11.5224 53.6756 11.8137 53.5898 12.0807 53.5127C12.1961 53.5456 12.3496 53.5519 12.5143 53.5183C12.7441 53.4715 12.9034 53.4912 12.9662 53.5565C12.9988 53.5901 13.0066 53.6359 12.9845 53.691C12.9034 53.8569 12.3928 53.9611 11.8051 53.9618C10.3152 53.9076 7.27512 54.558 8.07163 54.7536C8.36936 54.8224 8.65805 54.8763 8.92966 54.9129C9.47031 54.9858 9.93772 54.9896 10.2616 54.9034C10.3387 54.8772 10.4275 54.8637 10.5163 54.8616C10.6511 54.8582 10.7849 54.8811 10.874 54.9248C9.15268 55.2929 7.39121 55.6016 7.0361 55.5466C6.58823 55.4886 6.52683 55.5608 6.62729 56.0777C6.65659 56.228 6.67063 56.3514 6.67038 56.4475C6.60105 56.535 6.55283 56.6265 6.54782 56.7009C6.45297 56.7045 6.30551 56.592 6.11411 56.3617C5.66879 55.8258 5.45859 56.4058 5.83469 57.0753C6.23032 57.7409 7.25546 57.6509 7.57016 56.9299C7.60166 56.8588 7.63254 56.799 7.6622 56.7508C7.7352 56.7395 7.81113 56.7273 7.88962 56.7141C7.98691 57.1115 8.42612 57.0212 8.78501 56.5485C9.19699 56.4664 9.64255 56.3709 10.0997 56.2672C10.3021 56.3615 10.5234 56.4473 10.6913 56.5017C10.9184 56.5456 10.959 56.595 10.7788 56.6697C10.6612 56.7184 10.4497 56.7781 10.135 56.8543C8.44907 57.2579 9.03012 57.7066 10.8049 57.3742C11.7033 57.2205 12.483 57.0316 12.5862 56.9806C12.6723 56.9334 13.7392 56.8646 14.9276 56.831C15.4498 56.8163 15.9769 56.789 16.4299 56.7577C16.0594 56.8566 15.6383 56.9607 15.1939 57.0607C14.6742 57.1888 14.1754 57.3086 13.7484 57.4112C13.0184 57.5867 12.4986 57.7116 12.445 57.7415C12.3354 57.7638 12.0011 57.802 11.6563 57.783C11.339 57.7797 11.1471 57.854 11.0674 58.0342C11.0412 58.0918 11.0268 58.1602 11.0243 58.2403C11.002 58.9017 11.3089 59.0181 12.4464 58.7261C12.9884 58.5857 13.516 58.5676 13.5981 58.7C13.734 58.911 13.1541 59.1488 11.4696 59.5524C11.3337 59.5801 11.198 59.6251 11.0804 59.6784C10.9303 59.7468 10.8102 59.8289 10.7605 59.906C10.6599 60.0719 9.96909 60.315 9.31748 60.4565C9.03281 60.5183 8.75595 60.5606 8.53781 60.5687C8.40732 60.5697 7.47226 60.824 6.35959 61.1269L5.83078 61.2708C4.50266 61.6611 3.06101 62.0451 2.63523 62.102C2.10764 62.1903 1.84519 62.3519 1.83078 62.6069C1.82297 62.7422 1.88437 62.9038 2.01364 63.0947C2.15988 63.3633 2.44455 63.3647 2.91989 63.1782C3.30515 63.01 3.77268 62.9744 3.96469 63.0845C4.1749 63.1908 4.30161 63.1647 4.27939 63.0499C4.26364 62.971 4.26767 62.8034 4.28586 62.6257C4.29502 62.545 4.30673 62.4621 4.32114 62.3847C4.36691 62.1648 4.41123 62.069 4.50009 62.0757C4.56149 62.0805 4.64499 62.1358 4.76645 62.2342C5.04074 62.4741 5.17526 62.6856 5.16867 62.8479C5.1622 62.9967 5.03684 63.1042 4.79257 63.1541C4.72336 63.1682 4.65671 63.1928 4.59543 63.2249C4.42954 63.3114 4.30417 63.4515 4.28855 63.5853C4.24411 63.7437 4.11484 63.8596 3.99472 63.8245C3.90854 63.8053 3.79624 63.8255 3.68906 63.8849C3.62253 63.9223 3.55857 63.9753 3.50632 64.0437C3.36399 64.192 2.72275 64.502 2.06455 64.7259C0.797823 65.1338 0.484469 65.3768 1.05649 65.5883C1.38156 65.701 1.61533 66.2205 1.33066 66.2189C1.25229 66.2051 1.06955 66.2423 0.929781 66.3009C0.663424 66.3893 0.806978 66.5613 1.08518 66.6701C1.29148 66.7508 1.57102 66.7966 1.81259 66.7473C2.3414 66.6394 2.7175 67.0105 2.46286 67.3608C2.37534 67.4982 1.97837 67.6985 1.58274 67.8093C0.352511 68.2096 0.620333 68.9014 2.05417 68.9667C3.18637 69.0341 2.80368 69.5004 1.3934 69.7583C-0.527616 70.1206 -0.442655 70.8495 1.52658 70.8355C1.853 70.8263 2.24216 70.8537 2.55295 70.8985C2.72666 70.9236 2.8768 70.9541 2.97873 70.987C3.26206 71.0783 3.96982 71.113 4.55747 71.1123C5.16342 71.108 5.67148 71.1835 5.69882 71.3271C5.73801 71.5281 3.4841 71.9286 1.65195 72.0638C1.19748 72.0669 0.878878 72.2812 0.659395 72.714C0.514498 73.0104 0.454439 73.1621 0.484469 73.2255C0.495211 73.249 0.518526 73.2603 0.554293 73.2622C0.583834 73.2638 0.62192 73.259 0.668551 73.2494C0.833101 73.2159 1.12692 73.3648 1.3176 73.5648C1.52658 73.7608 1.93003 73.8874 2.22263 73.8278C2.51377 73.7682 3.05832 73.8363 3.43051 73.9989C3.7988 74.133 4.53012 74.1924 5.04074 74.0882C5.55783 74.0125 6.22385 74.0258 6.53073 74.1423C6.81406 74.2337 7.54795 74.2034 8.13169 74.0842C8.51694 73.9855 8.90476 73.9395 9.15817 73.939C9.22177 73.9389 9.27695 73.9416 9.32138 73.9471C9.36447 73.9525 9.39743 73.9604 9.41806 73.9709C9.87375 74.2659 9.76413 74.6764 9.16733 74.828C8.67502 74.9284 8.6489 74.9934 8.99887 75.1311C9.22739 75.2336 10.2173 75.0613 11.2044 74.7704C14.3764 73.8243 14.8976 73.7774 15.0046 74.323C15.0543 74.5814 14.8205 74.8382 14.3255 75.0285C13.2939 75.4779 7.70078 76.6496 7.0361 76.5466C6.58823 76.4886 6.52683 76.5608 6.62729 77.0777C6.76706 77.7955 6.55942 77.8976 6.11411 77.3617C5.66879 76.8258 5.45859 77.4058 5.83469 78.0753C6.23032 78.7409 7.25546 78.6508 7.57016 77.9299C7.65122 77.7466 7.72946 77.6385 7.7883 77.609C7.8353 77.5855 7.86923 77.6109 7.88364 77.6869C7.97898 78.175 8.55087 77.9985 8.93222 77.3236C9.22348 76.876 9.34616 76.8212 9.73532 77.07C9.97568 77.2301 10.4092 77.4103 10.6913 77.5016C10.9184 77.5456 10.959 77.595 10.7788 77.6697C10.6612 77.7184 10.4497 77.7781 10.135 77.8543C8.44907 78.2579 9.03012 78.7066 10.8049 78.3742C11.7033 78.2205 12.483 78.0316 12.5862 77.9806C12.6723 77.9333 13.7392 77.8646 14.9276 77.831C16.1159 77.7975 17.3291 77.699 17.6386 77.6357C17.8619 77.5903 18.14 77.6031 18.332 77.6769C18.3907 77.6997 18.4417 77.7282 18.4796 77.7627C18.6036 77.8649 18.7317 77.8774 18.8701 77.7919C18.9575 77.7373 19.0503 77.6429 19.1495 77.5064C19.502 77.0762 19.5987 77.0864 19.86 77.451C20.1446 77.8408 20.1994 77.8297 20.381 77.4042C20.4502 77.2047 20.5259 77.0918 20.6487 77.0532C20.7623 77.0171 20.9164 77.0459 21.1435 77.1292C22.0172 77.4285 23.8181 77.3295 25.9832 76.8578C27.6495 76.4578 27.9159 76.463 27.6861 76.8385C27.2995 77.4844 23.0645 78.528 21.5719 78.3553C21.2846 78.3229 21.0273 78.3183 20.8288 78.3358C20.5716 78.3586 20.411 78.4187 20.4057 78.5037C20.3993 78.6167 20.3431 78.6897 20.2673 78.6792C20.2412 78.6756 20.2138 78.6625 20.185 78.6382C20.078 78.5708 20.0154 78.643 20.044 78.7865C20.0715 78.9301 19.984 79.0673 19.8625 79.1221C19.7884 79.1372 19.3747 79.2624 18.8279 79.4279L18.7904 79.4393L17.9625 79.689C17.2599 79.8988 16.7219 80.0988 16.4201 80.2478C16.0454 80.4334 16.0376 80.5396 16.5429 80.4862C16.7675 80.4702 17.0105 80.4505 17.0888 80.4642C17.1854 80.4744 18.4901 80.3573 20.0271 80.1632C21.047 80.0352 22.2079 79.8916 23.0829 79.7933C23.5099 79.7453 23.8676 79.708 24.1067 79.6886C25.0926 79.5974 28.019 79.1217 32.4421 78.3378C35.2002 77.8488 38.5418 77.2399 42.359 76.5295C46.5287 75.7381 50.1512 75.0584 50.4124 75.0349C51.1659 74.911 50.5599 75.6016 49.7765 75.7618C49.3207 75.8548 49.0921 76.0506 49.0818 76.3812C49.0504 76.8055 49.1522 76.8444 49.7882 76.5055C51.5838 75.6016 61.2917 73.3513 61.4955 73.817C61.6012 74.0642 64.6035 73.5111 66.7712 72.8596C67.052 72.7728 67.5862 72.6633 67.9348 72.5923L67.9504 72.5888C68.1216 72.5541 68.3593 72.5127 68.6053 72.4699L68.7184 72.4502C68.832 72.4303 68.9453 72.4103 69.0525 72.3906C69.1496 72.3728 69.2417 72.3552 69.3242 72.3383C69.7252 72.2564 70.7633 72.134 71.6252 72.0777C72.7835 71.9904 73.1922 71.8474 73.2511 71.5666C73.2758 71.429 73.5069 71.2467 73.8557 71.0677C73.8087 71.3632 73.8438 71.4743 74.0986 71.4152C74.2057 71.3903 74.3532 71.3348 74.5504 71.25C76.4139 70.4975 86.2721 69.0566 86.4378 69.5377C86.5228 69.7928 89.5603 69.4894 91.7737 69.0192C92.0663 68.9548 92.62 68.8887 92.9712 68.8469C93.141 68.8267 93.3747 68.8055 93.6176 68.7837L93.969 68.7516L94.3607 68.7107C94.7668 68.6621 95.8115 68.6259 96.6747 68.6408C97.8369 68.6495 98.2549 68.5407 98.3371 68.2659C98.4428 67.8703 100.327 67.2921 101.781 67.2365C104.278 67.1155 110.132 66.3879 115.081 65.5914C116.399 65.384 117.652 65.1896 118.679 65.0322C119.184 65.0501 119.917 65.1012 120.548 65.1706C121.703 65.2866 122.13 65.2168 122.237 64.9505C122.38 64.5664 124.307 64.1646 125.761 64.2434C128.258 64.3533 134.154 64.169 139.155 63.8327C140.972 63.7168 142.671 63.614 143.824 63.5467C144.653 63.4985 145.2 63.4688 145.308 63.466C145.588 63.4586 145.9 63.2454 146.027 63.008C146.084 62.8983 146.155 62.8133 146.225 62.7649C146.307 62.7084 146.388 62.7015 146.45 62.7629C146.563 62.8769 147.014 63.0407 147.444 63.1171C148.097 63.2463 148.208 63.2141 148.127 62.8065C148.044 62.399 148.322 62.3332 150.572 62.2155C151.967 62.1496 153.193 62.0295 153.265 61.9399C153.357 61.8496 155.252 61.6534 157.483 61.5363C161.482 61.3141 162.41 61.2019 165.526 60.5931C166.397 60.424 167.975 60.1775 169.034 60.062C170.092 59.9171 171.093 59.7152 171.258 59.5645C171.606 59.2628 173.189 58.2847 173.245 58.3125C173.564 58.4796 174.417 58.2524 174.319 58.0209C174.26 57.876 173.979 57.7372 173.7 57.7446C173.346 57.7538 173.137 57.5252 172.961 57.0323C172.801 56.4805 172.797 56.3051 172.946 56.272C173.01 56.2702 173.146 56.2526 173.315 56.2304L173.326 56.229C173.5 56.2062 173.709 56.1788 173.913 56.1588C174.376 56.0999 175.11 56.1826 175.742 56.3289C175.95 56.3768 176.146 56.4316 176.318 56.4905C176.609 56.5901 176.831 56.7014 176.921 56.8111C177.035 56.9545 177.611 56.9101 178.315 56.716C178.962 56.5233 179.76 56.356 180.076 56.3478C180.501 56.3366 180.8 56.2213 180.923 56.0703C181.047 55.9164 180.989 55.7254 180.695 55.5707C180.262 55.3187 176.833 55.0577 172.214 54.8865C170.891 54.8335 171.627 54.4046 173.74 53.9685L174.045 53.9005C174.921 53.7055 176.088 53.4456 176.799 53.2443C177.91 52.9809 178.376 52.9688 178.79 53.2213C179.186 53.4741 179.409 53.4682 179.72 53.1967C180.233 52.7443 180.092 52.2212 179.361 51.9187C179.024 51.7812 178.757 51.4955 178.754 51.2616C178.75 51.0568 178.596 50.7683 178.407 50.6561C178.218 50.544 178.829 50.3232 179.904 50.09C181.906 49.657 182.457 49.2329 181.629 48.7864C181.047 48.4506 181.005 48.2468 181.424 47.7383C181.697 47.4092 181.621 47.3235 180.891 47.167C180.443 47.0618 179.583 46.8211 178.964 46.6032C178.764 46.5207 178.475 46.447 178.137 46.3865C177.744 46.3159 177.284 46.2632 176.821 46.2357C176.49 46.2158 176.159 46.2088 175.848 46.217C175.105 46.2172 174.451 46.1758 174.095 46.1051C173.918 46.0696 173.816 46.0266 173.815 45.9778C173.813 45.8608 174.165 45.7346 174.592 45.6941C175.02 45.6827 175.464 45.5587 175.733 45.4233C176.014 45.2822 176.104 45.1287 175.79 45.0773C175.737 45.0695 175.67 45.062 175.596 45.0548C175.545 45.0497 175.491 45.0448 175.437 45.0399L175.425 45.0389C175.369 45.0337 175.313 45.0285 175.261 45.0232C175.209 45.018 175.16 45.0126 175.118 45.0071C175.008 45.01 174.899 44.9792 174.808 44.9323C174.73 44.8917 174.666 44.8392 174.631 44.7859C174.554 44.7001 174.647 44.6392 174.833 44.6635C175.151 44.7429 177.663 43.7112 177.826 43.4728C178.025 43.1164 177.57 42.7187 176.957 42.7348C176.565 42.7451 175.947 42.498 175.55 42.1866C175.171 41.8747 174.853 41.7367 174.855 41.9123C174.859 42.0584 174.657 42.21 174.415 42.2164C173.689 42.2355 172.808 41.9075 172.897 41.6711C172.95 41.5234 172.82 41.4976 172.616 41.5907C172.359 41.7145 172.244 41.6005 172.237 41.2495C172.231 40.8986 172.34 40.7786 172.603 40.8887C172.809 40.9711 172.938 40.9092 172.861 40.7649C172.803 40.6201 173.025 40.4972 173.322 40.4894C173.638 40.4812 173.897 40.3573 173.893 40.2109C173.886 39.86 173.213 39.6143 172.282 39.6388C171.559 39.6579 170.993 39.1467 171.118 38.64C171.184 38.6138 171.232 38.5885 171.258 38.5645C171.307 38.5223 171.38 38.4668 171.469 38.4027C171.668 38.3675 171.936 38.3588 172.222 38.3821C173.136 38.4751 173.19 38.4445 172.848 38.0438C172.744 37.9162 172.623 37.8034 172.511 37.7224C172.895 37.4857 173.22 37.3002 173.245 37.3125C173.564 37.4796 174.417 37.2524 174.319 37.0209C174.26 36.876 173.979 36.7372 173.7 36.7446C173.566 36.7481 173.453 36.7175 173.354 36.6515C173.477 36.5384 173.596 36.3992 173.708 36.2361C173.824 36.058 173.967 35.895 174.112 35.7664C174.307 35.5943 174.504 35.4835 174.643 35.4799C174.859 35.4743 175.089 35.3509 175.172 35.219C175.365 35.2489 175.558 35.2862 175.742 35.3289C175.88 35.3607 176.013 35.3956 176.137 35.4327C176.2 35.4514 176.26 35.4708 176.318 35.4905C176.609 35.5901 176.831 35.7014 176.921 35.8111C177.035 35.9545 177.611 35.9101 178.315 35.716C178.962 35.5233 179.76 35.356 180.076 35.3478C180.501 35.3366 180.8 35.2213 180.923 35.0703C181.047 34.9164 180.989 34.7254 180.695 34.5707C180.325 34.3552 177.763 34.133 174.139 33.9662C174.425 33.9019 174.449 33.7975 174.348 33.615C174.097 33.1533 174.349 32.6785 174.671 32.9918C174.773 33.0684 174.917 32.9293 175.008 32.6844C175.66 32.5359 176.329 32.3773 176.799 32.2443C177.91 31.9809 178.376 31.9688 178.79 32.2213C179.186 32.4741 179.409 32.4682 179.72 32.1967C180.233 31.7443 180.092 31.2212 179.361 30.9187C179.024 30.7812 178.757 30.4955 178.754 30.2616C178.75 30.0568 178.596 29.7683 178.407 29.6561C178.218 29.544 178.829 29.3232 179.904 29.09C181.906 28.657 182.457 28.2329 181.629 27.7864C181.047 27.4506 181.005 27.2468 181.424 26.7383C181.697 26.4092 181.621 26.3235 180.891 26.167C180.443 26.0618 179.583 25.8211 178.964 25.6032C178.764 25.5207 178.475 25.447 178.137 25.3865C177.744 25.3159 177.284 25.2632 176.821 25.2357C176.49 25.2158 176.159 25.2088 175.848 25.217C175.105 25.2172 174.451 25.1758 174.095 25.1051C173.918 25.0696 173.816 25.0266 173.815 24.9778C173.813 24.8608 174.165 24.7346 174.592 24.6941C175.02 24.6827 175.464 24.5587 175.733 24.4233C176.014 24.2822 176.104 24.1287 175.79 24.0773C175.7 24.064 175.568 24.0519 175.437 24.0399L175.425 24.0389C175.355 24.0324 175.286 24.026 175.223 24.0193C175.185 24.0153 175.15 24.0112 175.118 24.0071C175.008 24.01 174.899 23.9792 174.808 23.9323C174.73 23.8917 174.666 23.8392 174.631 23.7859C174.554 23.7001 174.647 23.6392 174.833 23.6635C175.151 23.7429 177.663 22.7112 177.826 22.4728C178.025 22.1164 177.57 21.7187 176.957 21.7348C176.565 21.7451 175.947 21.498 175.55 21.1866C175.171 20.8747 174.853 20.7367 174.855 20.9123C174.859 21.0584 174.657 21.21 174.415 21.2164C173.689 21.2355 172.808 20.9075 172.897 20.6711C172.95 20.5234 172.82 20.4976 172.616 20.5907C172.359 20.7145 172.244 20.6005 172.237 20.2495C172.231 19.8986 172.34 19.7786 172.603 19.8887C172.809 19.9711 172.938 19.9092 172.861 19.7649C172.803 19.6201 173.025 19.4972 173.322 19.4894C173.638 19.4812 173.897 19.3573 173.893 19.2109C173.886 18.86 173.213 18.6143 172.282 18.6388C171.519 18.659 170.931 18.0891 171.145 17.5569C171.198 17.409 171.681 17.3378 172.222 17.3821C173.136 17.4751 173.19 17.4445 172.848 17.0438C172.638 16.7859 172.356 16.5885 172.225 16.5919C172.095 16.5954 171.981 16.4521 171.979 16.3058C171.975 16.1304 172.252 16.006 172.605 15.9966C172.996 15.9865 173.381 15.713 173.708 15.2361C173.824 15.058 173.967 14.895 174.112 14.7664C174.307 14.5943 174.504 14.4835 174.643 14.4799C174.884 14.4737 175.143 14.3206 175.195 14.1727C175.267 13.9954 174.391 13.9014 172.697 13.9458C171.264 13.9836 170.054 13.8984 169.995 13.7535C169.82 13.3486 170.597 13.1233 172.643 13.0695C174.281 13.0263 174.541 12.961 174.348 12.615C174.097 12.1533 174.349 11.6785 174.671 11.9918C174.784 12.0767 174.948 11.8968 175.036 11.6018C175.352 10.5987 174.729 10.0884 173.203 10.1284C172.049 10.1588 171.881 10.1046 171.759 9.58121C171.677 9.17363 171.394 8.94706 170.889 8.84319C170.067 8.65992 169.704 8.17211 170.374 8.15439C170.709 8.14569 170.65 8.03019 170.046 7.51924C169.423 7.03817 168.88 6.90625 167.055 6.86638C164.839 6.77843 164.164 6.53281 164.711 5.96231C164.769 5.90374 165.055 5.83908 165.495 5.77904C166.183 5.68535 167.245 5.60315 168.39 5.57296C171.032 5.50354 171.793 5.39576 171.732 5.13388C171.673 4.93059 171.333 4.67627 170.959 4.59833C170.585 4.52024 170.171 4.29709 170.02 4.09626C169.619 3.60927 169.133 3.47571 166.988 3.23961C165.962 3.12032 164.749 2.9766 164.283 2.90111C164.058 2.86486 163.177 2.8391 161.926 2.82285C160.572 2.80513 158.785 2.79857 156.928 2.80185C153.337 2.83779 150.078 2.77724 149.668 2.7295C149.477 2.69373 149.113 2.64991 148.67 2.60726C148.159 2.55803 147.543 2.51044 146.964 2.47861C145.883 2.39002 144.931 2.23955 144.834 2.09566C144.567 1.69318 144.911 1.18651 145.414 1.23178C145.571 1.2605 145.75 1.24262 145.903 1.19519C146.024 1.15779 146.129 1.10201 146.193 1.03588ZM71.6761 8.22101C71.6435 8.22823 71.6174 8.24381 71.586 8.25087C71.5818 8.24405 71.5783 8.23676 71.5755 8.2295C71.5725 8.22136 71.5704 8.21328 71.5691 8.20591L71.6761 8.22101ZM128.681 2.22791C128.308 2.23775 127.953 2.13012 127.895 1.98523C127.837 1.84511 128.056 1.77309 128.333 1.76848C128.627 1.76357 128.985 1.83493 129.142 1.98178C129.274 2.09533 129.053 2.21822 128.681 2.22791ZM14.5632 29.9808C14.4575 30.51 14.904 30.5679 15.8496 30.1657C16.5821 29.8372 16.6749 29.7286 16.2831 29.6595C15.9422 29.6082 15.604 29.6003 15.3193 29.6297C14.9001 29.673 14.5946 29.7967 14.5632 29.9808ZM14.1584 31.3171C14.2394 31.365 14.3321 31.3845 14.4117 31.376C14.4784 31.3686 14.5371 31.3407 14.571 31.2926C14.6455 31.1878 14.5749 31.023 14.4195 30.9056C14.336 30.8563 14.242 30.837 14.161 30.8475C14.097 30.8558 14.0409 30.8834 14.0069 30.93C13.9325 31.0347 14.003 31.1996 14.1584 31.3171ZM13.811 32.5522C13.8385 32.6956 13.9038 32.8318 13.9403 32.8244C13.9939 32.8133 14.0578 32.651 14.084 32.4963C14.1062 32.3128 14.0475 32.2055 13.956 32.2241C13.8463 32.2464 13.7771 32.3799 13.811 32.5522ZM20.6108 34.6565C20.6943 34.6754 20.8054 34.6669 20.9033 34.6398C20.9686 34.6218 21.0273 34.5955 21.0665 34.5635C21.1776 34.4513 21.0743 34.4125 20.8197 34.4647C20.5638 34.5167 20.4841 34.5929 20.6108 34.6565ZM18.8779 35.0103C19.0711 35.0305 19.3989 34.9635 19.6065 34.8615C19.8325 34.7556 19.6758 34.7279 19.2749 34.8098C18.8674 34.8631 18.6964 34.9576 18.8779 35.0103ZM14.447 37.676C14.4209 37.7409 14.6507 37.7537 14.9615 37.6903C15.2893 37.6232 15.5166 37.4276 15.4891 37.2841C15.4839 37.2576 15.4708 37.2371 15.4513 37.2222C15.2762 37.0911 14.5932 37.3781 14.447 37.676ZM5.64401 41.6521C5.61655 41.8067 5.72885 41.9929 5.90915 42.0454C6.31919 42.2007 6.44455 41.9662 6.18332 41.6014C5.9653 41.258 5.70407 41.2815 5.64401 41.6521ZM7.45139 41.4918C7.52316 41.5668 7.69296 41.5621 7.80393 41.4498C7.9332 41.334 7.86142 41.259 7.66159 41.2999C7.45529 41.3122 7.36252 41.4206 7.45139 41.4918ZM3.16416 46.0685C3.19284 46.212 3.25681 46.348 3.29343 46.3407C3.34824 46.3295 3.41098 46.1672 3.43833 46.0125C3.45932 45.8292 3.40048 45.7218 3.30905 45.7403C3.20065 45.7628 3.13144 45.8962 3.16416 46.0685ZM11.8 45.6191C11.8509 45.8775 12.4255 45.9093 12.4725 45.661C12.5117 45.4738 12.3615 45.3851 12.1604 45.4261C11.9424 45.4707 11.7882 45.5616 11.8 45.6191ZM4.86435 47.6915C4.93625 47.7665 5.10605 47.7617 5.21701 47.6495C5.34628 47.5337 5.27451 47.4587 5.07334 47.4995C4.98068 47.5051 4.91013 47.5304 4.8696 47.5629C4.82004 47.6023 4.81479 47.6525 4.86435 47.6915ZM12.5103 56.1007C12.5378 56.2442 12.748 56.3505 12.9674 56.3059C13.3134 56.2352 13.3214 56.174 13.0576 55.9889C12.6384 55.6865 12.4372 55.7274 12.5103 56.1007ZM13.811 53.5522C13.8385 53.6956 13.9038 53.8318 13.9403 53.8244C13.9939 53.8133 14.0578 53.651 14.084 53.4963C14.1062 53.3128 14.0475 53.2055 13.956 53.2241C13.8463 53.2464 13.7771 53.3799 13.811 53.5522ZM14.447 58.676C14.4209 58.7409 14.6507 58.7537 14.9615 58.6903C15.2893 58.6232 15.5166 58.4276 15.4891 58.2841C15.4839 58.2576 15.4708 58.2371 15.4513 58.2222C15.2762 58.0911 14.5932 58.3781 14.447 58.676ZM5.64401 62.6521C5.61655 62.8067 5.72885 62.9929 5.90915 63.0454C6.31919 63.2007 6.44455 62.9662 6.18332 62.6014C5.9653 62.258 5.70407 62.2815 5.64401 62.6521ZM7.45139 62.4918C7.52316 62.5668 7.69296 62.5621 7.80393 62.4498C7.9332 62.334 7.86142 62.259 7.66159 62.2999C7.45529 62.3122 7.36252 62.4206 7.45139 62.4918ZM3.16416 67.0685C3.19284 67.212 3.25681 67.348 3.29343 67.3407C3.34824 67.3295 3.41098 67.1672 3.43833 67.0125C3.45932 66.8292 3.40048 66.7218 3.30905 66.7403C3.20065 66.7628 3.13144 66.8962 3.16416 67.0685ZM11.8 66.619C11.8509 66.8775 12.4255 66.9093 12.4725 66.661C12.5117 66.4738 12.3615 66.3851 12.1604 66.4261C11.9424 66.4707 11.7882 66.5616 11.8 66.619ZM4.86435 68.6915C4.93625 68.7665 5.10605 68.7617 5.21701 68.6495C5.34628 68.5337 5.27451 68.4587 5.07334 68.4995C4.98068 68.5051 4.91013 68.5304 4.8696 68.5629C4.82004 68.6022 4.81479 68.6525 4.86435 68.6915ZM16.3497 73.9289C16.3222 74.0836 16.4242 74.2122 16.5874 74.1788C16.7022 74.1553 16.7597 74.0705 16.7545 73.9763C16.7519 73.9361 16.7389 73.8941 16.714 73.8544C16.6266 73.6933 16.5129 73.5971 16.4763 73.6045C16.4398 73.612 16.3706 73.7454 16.3497 73.9289ZM15.3742 74.2772C15.4186 74.5069 15.5858 74.6818 15.732 74.652C15.8783 74.6223 15.9658 74.3952 15.9214 74.1655C15.8769 73.9358 15.7098 73.7608 15.5648 73.7907C15.4186 73.8204 15.3298 74.0475 15.3742 74.2772ZM12.5103 77.1006C12.5378 77.2442 12.748 77.3505 12.9674 77.3059C13.3134 77.2352 13.3214 77.174 13.0576 76.9889C12.6384 76.6865 12.4372 76.7274 12.5103 77.1006ZM33.5156 76.3946C33.5979 76.527 33.936 76.6073 34.2286 76.5477C34.5564 76.4806 34.717 76.3287 34.6098 76.1711C34.5224 76.0102 34.1894 75.9585 33.8982 76.0182C33.8421 76.0297 33.791 76.0437 33.7451 76.0598C33.716 76.07 33.6892 76.081 33.6644 76.0927C33.5012 76.1707 33.4398 76.2812 33.5156 76.3946Z" fill="#6EB600"/>
</g>
</svg>
