<svg xmlns="http://www.w3.org/2000/svg" xmlns:xlink="http://www.w3.org/1999/xlink" width="1920" height="1005" viewBox="0 0 1920 1005">
  <defs>
    <clipPath id="clip-path">
      <rect id="Rectangle_1" data-name="Rectangle 1" width="1920" height="1005" fill="#fff" stroke="#707070" stroke-width="1"/>
    </clipPath>
  </defs>
  <g id="world" clip-path="url(#clip-path)">
    <path id="Path_1" data-name="Path 1" d="M1605.869-1476.934c-1.62,2.623-7.858,4.775-13.866,4.775s-17.857,2.414-26.331,5.371c-11.891,4.138-14.858,7.5-12.977,14.67,1.849,7.063-.982,10.491-11.776,14.252l-14.2,4.953,11.086,5.757c22.5,11.671,39.685,15.4,53.77,11.661,13.26-3.521,13.626-3.291,5.047,3.145-5.089,3.814-7.241,7.011-4.765,7.105s-.449,2.905-6.468,6.249l-10.95,6.081,13.333,14.723c10.48,11.588,19.957,16.008,44.324,20.657,44.867,8.589,77.6,10.355,85.8,4.618,6.207-4.347,5.935-5.935-2.1-12.058-5.089-3.887-6.907-7.063-4.044-7.063s7.565-6.739,10.438-14.984c4.389-12.6,3.9-15.987-3.114-21.368-9.843-7.544-33.06-4.148-45.275,6.625-4.827,4.263-8.338,5.151-8.338,2.1,0-2.9,3.751-7.387,8.338-9.958,7.889-4.43,7.878-4.869-.313-8.025-4.765-1.839-21.567-2.163-37.323-.732-33.311,3.02-33.562-2.058-.292-5.945,19.748-2.32,22.3-3.908,21.305-13.312-.721-6.792,1.452-10.689,5.956-10.689,13,0,7.325-8.495-14.012-21C1627.122-1482.221,1610.905-1485.073,1605.869-1476.934Zm176.805,99.431c-1.546,2.508-7.074,3.459-12.267,2.1-6.948-1.818-10.668.742-14.064,9.686-2.549,6.7-8.787,14.4-13.886,17.126s-11.525,11.442-14.284,19.362-7.273,14.4-10.031,14.4a4.917,4.917,0,0,0-5.015,4.775c0,5.946,16.979,6.217,27.783.439,4.441-2.383,22.7-5.538,40.552-7.011,42.161-3.469,66.131-7.879,73.194-13.479,6.269-4.964,3.176-18.1-4.263-18.1-2.591,0-11.034-4.492-18.756-10-9.624-6.855-17.8-9.048-26.007-7-9.488,2.382-11.661,1.348-10.522-4.995C1796.7-1379.069,1787.126-1384.7,1782.674-1377.5Zm28.17,88.857c-2.623.878-10.188,2.78-16.812,4.221-15.464,3.365-50.343,34.053-43.5,38.274,2.79,1.734,3.866,6.3,2.393,10.146-1.871,4.88-10.115,7.032-27.2,7.105l-24.523.1,11.922,9.32c12.079,9.456,4.639,13.845-8.913,5.256-4.023-2.549-16-.8-31.273,4.566-13.615,4.786-32.13,8-41.137,7.137s-29.267-3.041-44.993-4.827c-19.905-2.268-26.477-1.776-21.6,1.588,3.866,2.664,6.008,5.58,4.775,6.5s-24.534,5.339-51.774,9.822c-28.421,4.681-56.09,12.215-64.919,17.669-8.464,5.224-18.515,9.508-22.361,9.508s-9.665,5.026-12.957,11.18c-4.472,8.349-9.195,10.741-18.682,9.435l-12.7-1.745,11.922,5.37c10.836,4.88,11.107,5.674,3,8.7-8.15,3.051-7.826,4.065,3.72,11.63,6.959,4.566,11.6,9.978,10.323,12.047s-36.613,6.541-78.523,9.937c-79.265,6.416-90.059,10.386-75.65,27.742,3.323,4.012,5.319,11.546,4.441,16.75-1.818,10.731,6.363,17.5,21.316,17.606,8.537.063,25.568,17.471,25.568,26.133,0,6.311-26.018,1.64-37.877-6.812-16.645-11.849-54.878-20.574-72.87-16.624-12.8,2.821-13.166,3.49-5.151,9.4,8.349,6.144,8.349,6.478-.01,9.718-4.775,1.85-10.773,1.254-13.364-1.337-6.144-6.144-28.034-1.86-28.034,5.485,0,6.645,29.581,21.786,42.558,21.786,4.869,0,10.094,3.218,11.609,7.147,3.072,8.018-8.882,10.107-13.646,2.388-1.62-2.618-10.867-4.8-20.542-4.833-24.576-.094-39.977-4.921-37.365-11.724,1.212-3.166.449-8.61-1.7-12.089-2.3-3.73-1.1-10.627,2.936-16.781,6.113-9.331,5.851-11.682-2.414-21.849l-9.258-11.389.8,16.154c.711,14.19-1.045,16.791-14.5,21.452-8.411,2.915-18.39,9.54-22.172,14.733-6.228,8.537-5.517,11.159,7.523,27.613,12.977,16.392,13.688,18.985,7.251,26.328-9.686,11.042-14.472,28.206-9.905,35.515a30.345,30.345,0,0,1,3.887,13.149c.094,5.24,4.587,6.78,16.812,5.765,33.844-2.818,42.631-2.26,56.832,3.623,17.4,7.2,31.911,31.377,21.295,35.453-3.647,1.4-6.625,6.9-6.625,12.229,0,7.294,3.229,9.774,13.1,10.06,7.21.2,10.334,1.488,6.949,2.851s-11.6,1.106-18.233-.563c-10.47-2.627-11.8-5.111-9.979-18.623,2.435-18.117-9.676-36.488-24.074-36.488-24.2,0-55.943,22.251-39.538,27.72,8.432,2.813,5.632,22.714-4.493,31.878-5.245,4.744-9.54,11.471-9.54,14.947s-8.578,10.693-19.069,16.043-19.059,11.724-19.059,14.166c0,5.544-51.509,2.069-69.247-4.678-18.9-7.19-10.453-11.843,21.942-12.077,26.728-.19,29.164-1.225,47.274-20.076,10.5-10.933,19.09-24.125,19.09-29.312s2.153-10.767,4.775-12.387c7.816-4.835,5.5-9.917-7.784-17.025-12.507-6.694-12.539-6.881-9.9-51.211,2.518-42.291,2.1-44.975-8.443-54.149l-11.1-9.655,11.452-16.885c6.3-9.289,11.462-22.842,11.462-30.113,0-11.619-2.163-13.542-17.878-15.914-31.892-4.8-63.048-4.932-67.342-.292-2.307,2.5-6.874,13.114-10.144,23.6-7.2,23.1-15.407,33.1-33.23,40.49-15.9,6.583-22.013,22.022-9.967,25.173,6.263,1.64,7.641,6.06,6.073,19.482-1.111,9.549-3.937,17.364-6.268,17.364-10.544,0-2.837,13.392,9.08,15.777,7.651,1.531,16.112,7.877,19.873,14.9,3.6,6.727,9.4,12.235,12.89,12.235,8.166,0,7.87,9.5-.644,20.744-6.435,8.5-7.279,8.382-22.489-3.023-8.695-6.517-21.169-13.431-27.724-15.366s-14.229-5.364-17.056-7.61-9.286-4.725-14.347-5.5-14.486-5.106-20.946-9.631-14.2-8.224-17.2-8.224c-8.856,0-11.4,37.189-3.98,58.219,3.7,10.494,5.638,20.85,4.3,23.009s-.248,5.278,2.417,6.927c6.254,3.867,6.321,21.5.076,21.5-2.622,0-4.767,4.491-4.767,9.984a12.679,12.679,0,0,1-9.366,12.43c-5.148,1.349-13.677,9.759-18.948,18.7s-15,18.307-21.618,20.826c-7.4,2.813-12.036,8.291-12.036,14.227,0,5.311-2.97,9.654-6.6,9.654s-10.115,5.364-14.41,11.919-11.788,11.919-16.651,11.919c-17.489,0-21.9,13.942-29.2,92.324-2.412,25.87-6.773,49.919-9.7,53.442-3.055,3.685-3.995,12.458-2.2,20.616,2.264,10.3.119,19.41-7.808,33.189-10.386,18.056-10.52,19.443-2.7,28.092,4.529,5,8.233,11.815,8.233,15.133,0,6.727-15.43,29.837-32.043,47.993-5.972,6.527-10.858,14.1-10.858,16.816,0,8.615,14.563,26.141,21.722,26.141,7.022,0,10.167,23.281,3.3,24.449-1.963.335-8.109,1.1-13.651,1.7-11.507,1.245-20.927,6.246-20.87,11.081.072,6.221,22.146,13.535,31.232,10.345,21.465-7.533,35.57,7.787,15.517,16.85-12.056,5.445-20.721,27.5-15.5,39.429,1.974,4.5,3.194,10.7,2.707,13.784s3.085,6.857,7.922,8.392c10.292,3.27,31.094,29.775,27.691,35.281-3.28,5.311-36.18,3.538-51.086-2.756-8.533-3.6-18.891-3.819-32.81-.691-20.7,4.653-28.625,1.473-45.9-18.4-5.586-6.427-52.53-20.268-68.746-20.268-5.115,0-9.3,2.884-9.3,6.413,0,10.207-16.293,22.194-30.169,22.194-7,0-12.733,2.146-12.733,4.768s-5.067,4.768-11.259,4.768c-10.33,0-11.517,2.5-14.371,30.409-3.652,35.648-1.13,44.788,12.927,46.791,5.677.805,12.436,6.293,15.025,12.2s6.345,10.728,8.342,10.728,3.637,4.29,3.637,9.536c0,11.424.443,11.471,22.184,2.383,32.123-13.426,69.714-5.039,85.512,19.081,6.988,10.661,7.26,13.388,1.687,16.835-3.957,2.446-7.879,2.112-9.7-.824-4.32-6.994-23.934-3.147-29.531,5.793-6.8,10.856,18.557,66.391,30.316,66.391,4.729,0,10.039,2.331,11.8,5.182s6.884,4.22,11.383,3.042c9.853-2.574,18.972,3.953,30.331,21.708,10.349,16.172,7.174,22.513-11.269,22.513-7.712,0-13.862,1.607-13.67,3.576.362,3.7,10.077,19.51,24.9,40.5,4.705,6.67,9.757,19.519,11.226,28.559,2.564,15.81,1.787,16.84-20.479,27.315-27.366,12.873-41.79,13.727-53.469,3.152-4.705-4.263-10.949-7.748-13.871-7.748-8.914,0-38.2-19.052-41.161-26.785-1.535-4-.472-16.482,2.359-27.729,4.056-16.111,3.652-24.9-1.9-41.375l-7.05-20.921-30.293-3.2c-16.66-1.759-49.6-6.58-73.194-10.708s-51.9-7.514-62.9-7.524c-17.075-.014-20.912,1.879-26.217,12.954C321.01,56.292,304.564,62.914,267.522,63c-31.79.071-70.234-8.358-70.234-15.39,0-1.988-3.861-3.609-8.58-3.609s-11-2.417-13.948-5.368c-9.333-9.335-61.168-2.751-78.356,9.96-11.926,8.821-20.43,10.956-40.947,10.289-19.081-.625-25.359.744-23.872,5.206C35.379,75.473,21.908,82.715.839,80.608c-11.145-1.116-25.131.191-31.075,2.9-11.736,5.35-14.953,22.471-4.223,22.471,9.657,0,12.78,18.084,4.547,26.318-6.264,6.265-6.173,7.433.787,10.1,4.328,1.664,9.877,8.3,12.332,14.752s8.7,12.839,13.881,14.194,8.247,4.368,6.812,6.693,2.612,4.224,9,4.224,14.281,3.218,17.546,7.151c8.819,10.633,28.977,9.126,31.985-2.384,3.237-12.367,9.157-12,32.357,2.05,20.621,12.486,40.765,12.163,55.828-.887,5.072-4.4,12.609-5.94,19.964-4.1,6.5,1.63,13.151.815,14.777-1.817,5.643-9.135,12.6-4.882,9.257,5.655-1.825,5.745-3.766,21.3-4.318,34.566-.648,15.577-7.412,39.043-19.1,66.225l-18.1,42.1,8.156,27.033c6.244,20.706,6.979,30.1,3.137,40.145-3.918,10.255-3.628,13.111,1.344,13.111,6.564,0,60.143,78.521,60.143,88.142,0,2.98,6.631,10.328,14.739,16.32,17.313,12.8,28.162,36.078,28.162,60.423,0,14.055,3.556,20.716,18.529,34.724,10.187,9.526,24.043,26.265,30.789,37.189s14.438,21.207,17.1,22.848c7.3,4.519,19.853,33.226,20.135,46.066.138,6.241,3.779,26.9,8.094,45.909l7.841,34.562,19.677.005c11.522,0,22.09-2.909,25.5-7.024,3.208-3.862,13.657-8.438,23.224-10.17s23.19-6.078,30.269-9.664,16.35-6.513,20.6-6.513,10.711-2.984,14.358-6.632,21.812-11.247,40.369-16.882c25.731-7.82,34.736-12.878,37.939-21.307,4.567-12.006,35.127-26.695,55.543-26.695,8.28,0,13.08-3.118,14.771-9.588,1.383-5.279,8.142-10.966,15.044-12.659s17.266-8.105,23.038-14.255,13.962-11.176,18.2-11.176c5.477,0,6.84-2.694,4.728-9.355-3.3-10.408,4.653-28.788,12.456-28.788,6,0,20.74-16.544,30.34-34.052,6.54-11.919,6.078-13.483-8.633-29.084-9.819-10.408-22.07-17.708-33.258-19.8-18.362-3.447-30.493-16.33-34.378-36.5-3.937-20.45-10.229-19.767-30.536,3.308-18.328,20.826-22.256,22.972-47.139,25.751-36.013,4.024-43.144-.681-40.231-26.537,2.345-20.8-6-34.219-11.24-18.07-1.544,4.753-3.828,11.863-5.077,15.8-2.955,9.3-15.469-12.148-15.716-26.919-.09-5.63-7.136-16.419-15.659-23.977-16.069-14.25-32.519-43.72-34.793-62.338-1.029-8.43,1.068-10.728,9.791-10.728,6.1,0,11.941-2.528,12.971-5.612,1.21-3.633,4.294-4.095,8.737-1.316,3.779,2.359,10.086,4.348,14.019,4.42S539.781,373.4,547.647,388.5s18.256,28.712,23.09,30.262,17.7,8.744,28.6,15.986c28.272,18.794,41.07,20.731,62.2,9.407,22.838-12.244,34.417-8.649,38.268,11.891,3.041,16.216,8.17,18.58,52.816,24.368,2.621.344,17.637,2.474,33.367,4.734s30.059,3.748,31.838,3.3,26.2-2.046,54.26-3.538c54.093-2.88,61.2-.572,70.1,22.752,1.754,4.586,6.078,8.344,9.61,8.344s13.223,7.685,21.536,17.078c13.414,15.157,16.86,16.7,30.58,13.684,13.914-3.056,14.815-2.623,9.009,4.377-3.546,4.271-12.084,7.819-18.972,7.882-12.079.11-11.722.882,9.929,21.546,22.022,21.012,22.766,21.307,38.134,15.056,10.669-4.333,16.186-10.074,17.273-17.965,2.2-16.01,10.167-23.424,10.919-10.164.575,10.217,2.121,18.8,3.814,21.216.46.653,1.578,17.283,2.487,36.95,2.142,46.119,9.488,75.512,29.184,116.811,8.746,18.356,17.4,39.811,19.215,47.677a97.008,97.008,0,0,0,11.1,26.224c11.285,17.235,24.179,46.8,24.179,55.449,0,12.163,18.986,35.138,29.037,35.138,5.569,0,11.16-4.81,13.855-11.919,2.5-6.556,7.575-11.92,11.285-11.92s8.066-5.22,9.665-11.6,7.262-12.983,12.58-14.675c8.046-2.551,9.174-5.731,6.7-18.885-1.787-9.569-.491-20.249,3.3-27.048,3.678-6.589,6.322-26.948,6.395-49.271.115-34.2,1.1-38.223,9.665-39.863,5.245-1.006,11.254-4.806,13.343-8.444s8.2-6.622,13.552-6.622a12.7,12.7,0,0,0,12.2-9.379c1.338-5.158,6.29-10.6,10.982-12.086s21.577-15.509,37.5-31.148,30.877-28.44,33.217-28.44c10.115,0,29.351-20.53,29.351-31.325,0-8.543,4.044-13.23,15.5-17.974,9.425-3.9,16.656-4.643,18.474-1.888,3.145,4.777,29.2.729,43.5-6.756,4.577-2.407,8.338-9.473,8.338-15.71,0-10.613.909-10.994,14.273-5.95,10.146,3.833,15.746,10.246,19.393,22.232,8.547,28.058,14.932,37.9,30.563,47.13,10.627,6.269,17.92,16.6,25.245,35.768,5.674,14.824,9.5,29.627,8.484,32.893-5.872,19.077-7.293,32.669-3.145,30.1a5.6,5.6,0,0,1,7.628,1.988c3.657,5.931,21.493,6.474,21.493.653,0-2.3,6.437-6.856,14.3-10.112s14.294-8.883,14.294-12.5,1.62-6.575,3.6-6.575c5.381,0,14.409,22.871,20.7,52.4,3.072,14.4,8.255,30.49,11.525,35.758,6.76,10.89,13.364,61.3,8.641,66.019-1.7,1.713-3.563,9.022-4.148,16.245-.564,7.228-2.665,21.282-4.65,31.238-2.33,11.671-1.9,17.6,1.233,16.687,12.476-3.628,46.215,46.238,50.52,74.669,1.578,10.375,7.513,27.625,13.186,38.329,15.13,28.516,63.31,58.93,75.159,47.448.982-.953-2.769-9.454-8.339-18.889-6.687-11.333-10.125-25.27-10.125-41.013,0-22.137-1.515-25.222-21.138-43.086-11.63-10.58-28.254-22.866-36.947-27.3s-15.318-10.514-14.722-13.526c2.006-10.1-13.04-39.5-20.208-39.5-9.864,0-9.258-27.577,1.055-48.135,4.472-8.925,9.3-24.812,10.72-35.3,2.1-15.448,4.713-19.371,13.751-20.653,9.415-1.33,10.679-.015,8.025,8.344-2.581,8.124-1.118,9.926,8,9.926,11.536,0,46.7,25.651,46.7,34.061,0,7.08,12.622,18.385,20.522,18.385,11.421,0,19.748,14.365,18.275,31.524-1.63,18.914,1.7,19.724,19.916,4.816l13.438-11-13.385-16.248c-7.356-8.935-9.969-13.569-5.8-10.294,12.559,9.865,45.693,5.7,68.21-8.586,16.958-10.756,20.95-16.211,23.479-32.065,4.013-25.073-3.9-65.48-15.767-80.58-5.2-6.608-19.163-20.569-31.033-31.02s-21.587-21.364-21.587-24.254-4.357-9.888-9.7-15.561c-12.267-13.064-7.345-28.4,16.875-52.627,21.054-21.065,44.261-31.51,56.016-25.221,4.671,2.508,10.47,3.342,12.863,1.859s5.036,4.152,5.862,12.525,4.5,16.206,8.182,17.417c4.817,1.587,5.935-.663,3.991-8.072-3.166-12.11,7.847-18.919,50.363-31.144,23.771-6.837,27.24-9.268,24.7-17.288-3.615-11.381,1.693-12.186,9.54-1.445,3.824,5.231,8,6.475,12.445,3.709,3.668-2.294,8.829-4.572,11.442-5.058s12.152-2.26,21.169-3.938,19.32-7.238,22.9-12.358,9.571-9.307,13.291-9.307,10.282-5.365,14.576-11.92,10.177-11.919,13.072-11.919c8.526,0,26.164-23.452,29.686-39.439,1.787-8.139,7.356-18.147,12.382-22.241s11.922-12.817,15.318-19.372,8.662-11.385,11.724-10.727c4.754,1.016,8.035-11.772,6.133-23.839-.313-1.97,1.578-3.576,4.2-3.576s4.775-4.062,4.775-9.026c0-9.488-11.912-17.131-23.583-15.143-10.323,1.764,2.654-12.744,14.879-16.625,9.32-2.956,9.3-3.246-1.254-14.489l-10.773-11.467h21.222l-11.243-10.728c-6.175-5.9-14.994-20.787-19.6-33.089-5.35-14.322-13.646-25.707-23.082-31.681l-14.733-9.331,12.633-12.631c6.948-6.951,12.633-15.037,12.633-17.978s1.369-3.977,3.041-2.3,9.352-2.256,17.053-8.739,18.975-11.786,25.046-11.786,12.277-3.218,13.782-7.152c2.048-5.349-.763-7.152-11.18-7.152-7.659,0-19.414-2.5-26.112-5.555-10.48-4.772-13.761-4.086-23.321,4.9-13.208,12.41-27.126,9.273-25.579-5.764.8-7.919-1.87-10.608-11.713-11.743-28.118-3.252-30.3-29.518-2.455-29.518,12.517,0,17.271-2.637,21.5-11.919,2.988-6.556,8.474-11.92,12.184-11.92s11.807-5.326,17.972-11.838c11.619-12.244,34.335-16.125,40.072-6.847,1.755,2.837-2.592,11.185-9.645,18.552-9.31,9.717-11.211,14.389-6.948,17.026,4.367,2.7,3.615,5.292-2.905,10.06-15.788,11.548-3.343,6.746,20.135-7.772,24.962-15.438,44.387-18.609,64.4-10.513,13.249,5.364,13.448,10.67,1.442,40.2-3.521,8.682-2.142,9.311,22.9,10.379,13.145.563,22.183,8.911,22.329,20.611.031,3.281-3.041,5.96-6.833,5.96-5.674,0-5.967,2.675-1.672,15,3.908,11.2,3.782,17.316-.481,24.135-8.4,13.459-2.466,26.714,11.588,25.9,6.468-.372,11.766-2.2,11.766-4.067s9.122-5.845,20.26-8.84,21.838-7.9,23.761-10.909c11.849-18.5-6.625-73.949-32.329-97.02-14.576-13.088-14.942-23.591-.961-28.006,20.448-6.47,40.123-25.622,45.808-44.588,3.876-12.949,10.741-21.918,22.172-28.988,9.112-5.631,18.547-13.784,20.97-18.113,4.044-7.228,5.2-7.147,14.179.968,5.371,4.863,15.088,8.84,21.6,8.84,12.508,0,55.212-22.7,55.212-29.346,0-2.155,14.963-19.762,33.238-39.134s34.638-39.511,36.352-44.756,12.11-20.262,23.123-33.375c24.827-29.575,26.927-35.033,29.059-75.588,1.1-20.911,4.764-37.222,10.156-45.294,11.536-17.226,11.838-57.023.48-60.632-4.524-1.436-12.34-7.848-17.376-14.247-11.7-14.88-26.248-14.784-42.5.282-12.507,11.6-28.358,16.668-22.507,7.19,1.609-2.6.731-8.5-1.954-13.112-4.64-7.957-4.89-7.962-5.026-.037-.084,4.591-2.916,8.343-6.291,8.343-3.573,0-6.071-5.488-5.956-13.111.167-11.748-1.671-13.264-17.69-14.59-9.832-.815-17.878-3.194-17.878-5.287s12.329-11.919,27.407-21.836,38.254-28.993,51.513-42.391c46.832-47.344,81.2-77.934,96.339-85.773,12.654-6.541,26.729-7.628,80.77-6.227,58.608,1.521,66.423.772,74.949-7.166,5.235-4.882,12.8-7.562,16.833-5.96s14.816,4.115,24,5.6,20.908,5.588,26.081,9.13c8.934,6.118,8.746,6.437-3.856,6.437-7.293,0-12.037,1.97-10.553,4.373,2.863,4.638,36.425,3.637,44.439-1.321,2.612-1.612,14.649-3.309,26.75-3.767,23-.868,28.755-6.036,12.476-11.2-5.246-1.665-9.54-5.188-9.54-7.834s15.558-20.053,34.565-38.691c30.417-29.817,37.4-34.333,58.274-37.66,13.792-2.2,25.558-1.931,28.138.644,2.717,2.722,7.805,2.612,13.229-.286,10.313-5.521,11.744.581,3.3,14.1-4.315,6.9-3.929,11.061,1.808,19.243,6.113,8.734,8.369,9.4,13.844,4.061,17.22-16.782,41.848-32.244,51.356-32.244,5.8,0,9.289-2.046,7.743-4.548s-1.432-10.032.25-16.731c3.427-13.66,18.933-19.724,36.216-14.165l11.065,3.561-13.1,4.42c-9.592,3.233-13.312,7.834-13.834,17.131-1.683,29.474-6.677,37.533-29.581,47.773-10.867,4.859-38.7,27.353-61.878,50-29.11,28.449-47.877,42.886-60.771,46.748-11.18,3.352-18.651,8.529-18.651,12.921,0,4.029-5.349,12.907-11.88,19.729-21.034,21.951-22.977,56.76-7.063,126.385,3,13.111,6.562,32.421,7.92,42.909s4.357,21.074,6.667,23.525c5.444,5.769,41.461-32.945,43.415-46.677.867-6.059,7.722-13.134,16.844-17.373,11.567-5.373,15.423-10.265,15.5-19.681.125-15.648,9.853-23.958,32.527-27.791,17.951-3.038,19.236-5.774,12.748-27.082-2.268-7.452.857-14.49,11.65-26.222,8.108-8.821,13.427-12.283,11.818-7.691-2,5.7-.5,8.344,4.733,8.344,9.529,0,9.759-9.164.679-26.676-6.217-11.986-6.144-14.395.648-21.9,6.969-7.7,6.969-8.692.063-11.343-4.169-1.6-9.582-1.663-12.027-.152s-6.885-.181-9.863-3.767c-4.222-5.087-1.724-10.942,11.379-26.623,9.226-11.052,16.781-24.059,16.781-28.9s2.184-10.15,4.848-11.8c9.112-5.63,27.909-7.185,30.772-2.545,1.62,2.617,6.938.558,12.225-4.73,11.1-11.1,25.966-12.7,22-2.365-1.473,3.847-.857,8.129,1.369,9.507s5.266-.63,6.739-4.462c3.6-9.393,33.886-21.579,53.614-21.579,11.8,0,18.035,3.128,23.8,11.919,9.3,14.194,14.6,15.076,18.411,3.06,1.546-4.872,11.441-12.753,21.995-17.511s20.7-11.072,22.538-14.028c5.026-8.066,32.538-26.351,39.653-26.351,7.774,0,67.155-29.288,72.5-35.758,2.55-3.089,4.786-2.671,6.354,1.191,1.327,3.276,6.677,5.96,11.87,5.96s13.646,2.251,18.777,5c7.084,3.786,11.107,3.223,16.666-2.331,6.531-6.537,6.552-8.745.167-20.492-3.939-7.237-10.679-21.074-14.983-30.743-4.786-10.747-10.26-16.644-14.085-15.171-3.448,1.321-9.707-2.513-13.907-8.516-10.188-14.546-9.665-19.672,1.306-12.821,11.494,7.18,52.568-3.4,56.664-14.594,1.536-4.182,5.591-9.3,9.028-11.371,4.838-2.928,4.994-5.75.711-12.616-4.368-6.995-3.992-10.38,1.8-16.173,6.186-6.183,11.18-6.841,27.1-3.57.982.2-.836,3.523-4.044,7.385-9.623,11.6,5,21.579,31.734,21.66,26.425.086,32.308,2.923,36.958,17.808,2.142,6.88,7.126,10.728,13.876,10.728,5.8,0,15.694,3.614,22.006,8.033,13.249,9.279,32.161,12.388,36.142,5.936,1.5-2.437-.062-4.505-3.5-4.591-3.7-.1-2.017-3.681,4.148-8.83,6.385-5.34,9.906-13.073,9.143-20.106-1.129-10.375.554-11.447,18.212-11.61,10.71-.1,25.433-4.147,32.747-9.011,12.852-8.539,12.967-9,3.709-14.122-5.256-2.913-17.668-10.981-27.585-17.922-18.9-13.25-77.364-24.8-70.676-13.965,1.776,2.87,1.839,9.607.136,14.966-4.744,14.962-16.593,2.222-16.593-17.846,0-9.712-1.933-15.185-4.765-13.44-2.623,1.621-4.765.071-4.765-3.443,0-6.623-66.267-41.851-78.732-41.851-3.887,0-7.074-2.193-7.074-4.868s-5.893-7.253-13.1-10.161S3636.4-891.8,3624.6-897.691s-30.03-12.244-40.51-14.108-21.264-5.192-23.938-7.4-25.192-5.078-50.05-6.371-54.836-3.766-66.632-5.488c-18.526-2.7-22.277-1.773-27.449,6.8-3.3,5.459-4.18,9.926-1.965,9.926s6.416,5.2,9.31,11.557c5.841,12.81,2.09,18.131-16.864,23.948-7.492,2.3-11.6,1.083-13.552-4-1.536-4.014-7.429-8.682-13.082-10.369s-13.583-7.229-17.606-12.306c-6.343-8-14.764-9.445-62.871-10.814-30.542-.867-68.012-.177-83.246,1.544-30.229,3.41-58.681-2.4-58.681-12,0-3.337,1.943-7.27,4.315-8.739,8.118-5.021-.742-22.1-15.653-30.166-16.854-9.111-82.191-10.937-137.591-3.843-31.462,4.025-32.36,3.839-42.339-8.848-7.9-10.04-12.831-12.308-21.89-10.03-6.426,1.609-10.5,1.014-9.06-1.317s-6.415-7.168-17.47-10.741c-18.662-6.018-19.163-6.6-7-8.171,15.9-2.048,16.8-8.2,2.382-16.258-7.241-4.044-28.358-5.632-64.982-4.88-47.292.983-53.509.22-48.43-5.893,6.875-8.3-.168-10.459-45.077-13.887-15.736-1.2-33.593-3.741-39.685-5.652-9.153-2.863-10.815-1.9-9.54,5.527,1.212,7.022-1.756,9.31-13.584,10.459-8.328.805-17.565,4.389-20.532,7.973-4.357,5.255-3.292,5.955,5.6,3.657,9.258-2.383,10.094-1.724,5.246,4.2-3.177,3.866-4.608,11.452-3.2,16.854,2.707,10.344-9.759,19.424-15,10.929-1.557-2.508-8.056-4.556-14.461-4.556-8.61,0-11.63,2.581-11.63,9.937,0,5.454-1.609,9.1-3.574,8.088-33.279-17.136-42.213-19.132-62.035-13.876-28.212,7.471-36.164,6.823-50.1-4.149-6.656-5.245-13.343-9.54-14.837-9.54s-6.907,8.192-12.017,18.2c-14.221,27.888-20.689,31.583-38.828,22.2-17.867-9.239-39.34-32.467-32.339-34.975,2.664-.951,0-4.169-5.935-7.147s-11.828-8.641-13.113-12.57c-1.944-5.914-1.077-6.112,4.973-1.118,7.409,6.123,22.831,3.469,22.831-3.929,0-2.2-3.751-6.395-8.338-9.3-6.249-3.96-6.781-5.935-2.131-7.868,4.67-1.954,4.075-4.211-2.382-9.111-5.131-3.887-6.2-6.583-2.633-6.667,10.292-.261,6.51-7.3-8.8-16.353-10.282-6.07-20.041-7.909-32.183-6.06-10.794,1.64-26.477-.544-41.252-5.747-30.375-10.7-49.632-5.371-48.441,13.395l.773,12.225h-52.9c-38.024,0-55.129-1.849-60.834-6.593-5.559-4.619-6.489-8.328-3.1-12.4,3.7-4.462-4.336-6.52-34.5-8.809-21.629-1.651-43.624-2.09-48.859-.992s-15.527,3.27-22.841,4.806c-8.025,1.7-12.016,4.9-10.062,8.067,1.933,3.114.564,4.326-3.375,2.988-3.646-1.243-5.987-6.7-5.2-12.11.784-5.433-.836-11.254-3.573-12.957s-4.995-.564-4.995,2.507c0,3.887-6.269,4.65-20.595,2.5s-24.837-.868-34.565,4.2c-7.68,4-18.662,7.293-24.408,7.314s-11.546,1.808-12.894,3.991-17.554,6.666-36.017,9.968-34.774,7.952-36.247,10.334-4.629,4.336-7.011,4.336c-7.711,0,1.118-14.89,11.5-19.414a135.551,135.551,0,0,0,17.23-9.184c3.929-2.644,21.765-11.2,39.633-19.028s31.441-15.934,30.166-18.013,14.116-11.013,34.241-19.842c60.186-26.425,70.07-35.276,46.111-41.284-6.551-1.64-11.922-4.859-11.922-7.126s5.371-2.089,11.922.4c13.134,4.995,15.214.763,7.074-14.44-2.811-5.256-7.795-7.91-11.912-6.322-4.211,1.609-7.084-.031-7.084-4.065,0-3.73-8.035-10.856-17.868-15.841-21.6-10.94-94.844-13.489-98.711-3.437-1.3,3.364-10.146,5.882-20.312,5.789l-18.024-.167,13.981-11.441,13.991-11.432-12.779-3.208c-7.043-1.766-15.83-2.048-19.55-.617s-12.831.784-20.26-1.411l-13.521-4.012,15.5-6.27c8.526-3.448,15.5-7.848,15.5-9.77C1870.435-1284.915,1825.076-1293.4,1810.845-1288.645Zm833.6,79.391c-18.3,4.974-27.1,15-27.961,31.817-.711,14.127,9.3,23.667,34.45,32.851,13.928,5.078,16.394,4.692,21.41-3.344,3.908-6.259,7.408-7.628,11.285-4.409,3.657,3.041,12.831,3.051,26.258.042,13.9-3.135,22.57-3.03,26.582.3,4.075,3.375,10.166,3.406,19.226.094,7.3-2.654,9.853-5,5.674-5.214-19.184-.951-32.078-33.75-13.27-33.75,8.6,0,9.205,1.108,3.981,7.387-7.931,9.571,1.023,18.944,22.329,23.4,12.915,2.7,16.363,1.18,25.025-10.982l10.042-14.106-15.486-5.674c-27.585-10.115-66.036-18.066-75.43-15.611-5.047,1.317-9.174,6.447-9.174,11.379s-2.142,8.976-4.764,8.976a4.785,4.785,0,0,1-4.775-4.765c0-2.622-4.159-4.764-9.247-4.764s-10.575-2.142-12.184-4.744C2672.648-1209.7,2659.106-1213.246,2644.446-1209.254Zm192.05,31.106c-6.468,6.468-2.738,11.19,14.7,18.589,26.1,11.076,62.746,16.018,78.377,10.574,7.356-2.57,13.385-6.238,13.385-8.171,0-5.528-32.36-14-42.9-11.253-5.768,1.515-9.539.146-9.539-3.448,0-4.221-6.207-5.246-21.441-3.522-11.808,1.327-21.452.533-21.452-1.766C2847.625-1182.077,2841.021-1182.672,2836.5-1178.148ZM2707.3-1097.5c-10.146,10.135-5.83,15.381,15.36,18.7,9.739,1.515,23.6,3.7,30.824,4.827,18.16,2.863,17.69-12.005-.742-22.883C2735.446-1107.085,2717.128-1107.336,2707.3-1097.5Zm116.495,77.719c0,2.319-4.838,5.809-10.731,7.764l-10.721,3.542,10.585,2.1c5.82,1.149,14.409-.136,19.069-2.853,5.141-2.988,6.029-4.984,2.236-5.078-3.427-.073-4.911-2.288-3.292-4.911s.668-4.765-2.1-4.765S2823.791-1022.094,2823.791-1019.785ZM3553.1-718.4c0,2.374,4.295,4.32,9.54,4.32s9.529-.826,9.529-1.827-4.284-2.951-9.529-4.325S3553.1-720.782,3553.1-718.4ZM2746.009-337.027c7.22,7.213,1.933,23.862-7.074,22.322-5.622-.958-7.795,3.848-8.934,19.763-.826,11.571-2.5,22.031-3.72,23.252s.92,8.278,4.744,15.682c7.784,15.061,9.143,51.664,2.748,73.968-2.466,8.606-2.424,17.855.1,22.375,2.581,4.6,2.55,18.842-.073,35.358-4.566,28.855-.01,50.748,6.385,30.614,2.581-8.153,5.653-9.789,13.677-7.286,5.684,1.774,11.912,5.617,13.834,8.544,2.414,3.662,3.531,3.361,3.584-.962.031-3.452-5.559-13.656-12.445-22.676-12.978-17.025-13.333-26.609-2.047-56.212,4.22-11.085,7.428-13.226,17.031-11.39,14.858,2.841,14.848-.248-.083-46.014-6.562-20.083-11.944-45.566-11.975-56.632-.094-34.409-5.256-55.874-13.437-55.874C2742.948-342.2,2742.3-340.741,2746.009-337.027ZM2725.843-52.948c1.755,6.995.418,22.123-2.978,33.613-5.381,18.237-7.544,20.549-16.98,18.185-7.554-1.9-10.8-.605-10.8,4.291,0,3.852-3.553,8.992-7.879,11.424-5.548,3.1-6.739,7.066-4.022,13.345,2.131,4.916,3.438,11.619,2.915,14.894-1.254,7.767,4.388,7.333,15.673-1.211,8.192-6.193,8.307-7.166,1.192-9.893-10.481-4.029-10.126-12.511.47-10.77,4.577.758,10.94-.262,14.137-2.265s14.346.729,24.827,6.079c22.5,11.476,24.189,11.71,24.189,3.3,0-9.946,15.2-21.231,30.96-22.986,12.957-1.445,14.273-3.2,14.294-19.067.021-13.121-1.4-16.282-5.726-12.687-10,8.3-35.025-1.1-54.313-20.387C2729.8-69.082,2721.308-71,2725.843-52.948ZM2704.621,53.136c0,2.4,2.675,5.326,5.956,6.5s4.4,3.8,2.5,5.845-6.447,1.235-10.094-1.793c-9.718-8.062-18.369,4.515-18.348,26.657.021,20.377-11.964,53.089-22.831,62.3-10.992,9.326-42.4,29.617-45.829,29.617-1.672,0-1.912-4.291-.543-9.535s.554-9.536-1.828-9.536-4.316,3.419-4.316,7.59-4.294,13.049-9.54,19.715-9.53,14.657-9.53,17.75c0,3.752-11.849,5.865-35.641,6.351-31.88.649-38.044,2.379-58.409,16.392-12.518,8.615-27.344,20.244-32.934,25.841s-13.971,12.3-18.6,14.89c-5.475,3.061-7.314,7.623-5.256,13,2.5,6.489,4.619,7.08,9.853,2.741,9.08-7.538,14.211,1.478,7.732,13.589-6.457,12.058-6.416,29.016.063,29.016,2.779,0,3.72-2.145,2.1-4.768s-.668-4.768,2.1-4.768,5.058,3.371,5.058,7.491c0,12.148,10.887-1.808,20.2-25.889,6.865-17.751,7.074-21.751,1.41-27.416-3.646-3.647-8.923-6.632-11.744-6.632a4.959,4.959,0,0,1-5.1-4.768c0-2.622,4.315-4.768,9.6-4.768a44.723,44.723,0,0,0,17.868-4.452c11.013-5.917,49.914-14.618,65.379-14.618,10.595,0,11.671,1.267,7.575,8.935-3.636,6.779-2.748,10.775,3.646,16.562,7.8,7.067,9.29,6.646,20.1-5.683,6.427-7.323,10.94-17.459,10.021-22.522-1.338-7.447-.47-8.068,4.535-3.252,8.693,8.382,28.139,7.409,38.452-1.931,8.129-7.352,8.725-7.333,8.725.248,0,6.532,2.215,5.741,11.274-4.029,12.674-13.683,18.368-15.686,14.283-5.016-1.515,3.934-.449,7.152,2.362,7.152,6.5,0,16.154-17.879,18.014-33.371,5.046-41.975,8.976-56.34,19.017-69.509,12.894-16.9,13.907-27.877,4.169-44.922-3.751-6.556-6.9-16.744-6.99-22.647-.094-6.284-3.135-10.728-7.315-10.728C2707.84,48.763,2704.621,50.733,2704.621,53.136Zm-171.613,201.2c0,2.928-4.033,4.267-8.976,2.976-12.6-3.3-23.865,11.071-19,24.225,4.89,13.26,7.816,13.055,19.122-1.315,5.068-6.437,12-10.633,15.422-9.321,7.659,2.941,19.226-10.088,15.016-16.911C2550.469,247.323,2533.009,247.6,2533.009,254.336ZM1965.258,619.825c-13.8,3.677-27.679,12.182-30.072,18.433-6.656,17.349,15.255,30.147,31.8,18.562,8.944-6.27,22.622-28.131,22.622-36.169C1989.6,616.774,1978.173,616.389,1965.258,619.825Z" transform="translate(-118.105 -64.041)" fill="#f4f2f1" fill-rule="evenodd"/>
  </g>
</svg>
